<?xml version="1.0" encoding="utf-8"?>
<!-- Generator: Adobe Illustrator 26.1.0, SVG Export Plug-In . SVG Version: 6.00 Build 0)  -->
<svg version="1.1" id="Layer_1" xmlns="http://www.w3.org/2000/svg" xmlns:xlink="http://www.w3.org/1999/xlink" x="0px" y="0px"
	 viewBox="0 0 100 100" style="enable-background:new 0 0 100 100;" xml:space="preserve">
<style type="text/css">
	.st0{fill:#384EA0;}
	.st1{fill:#FFFFFF;}
	.st2{opacity:0.1;}
	.st3{fill:none;}
	.st4{fill:#70BE44;}
	.st5{opacity:0.6;}
	.st6{opacity:0.15;}
	.st7{opacity:0.7;}
	.st8{fill:#2FA0DA;}
	.st9{fill-rule:evenodd;clip-rule:evenodd;}
	.st10{opacity:0.45;}
	.st11{opacity:0.53;fill-rule:evenodd;clip-rule:evenodd;}
	.st12{opacity:0.2;fill-rule:evenodd;clip-rule:evenodd;}
	.st13{opacity:0.5;fill-rule:evenodd;clip-rule:evenodd;}
	.st14{opacity:0.7;fill-rule:evenodd;clip-rule:evenodd;}
	.st15{opacity:0.2;}
	.st16{opacity:0.5;}
	.st17{opacity:0.79;fill-rule:evenodd;clip-rule:evenodd;}
	.st18{fill:#F4EA30;}
	.st19{opacity:0.1;clip-path:url(#SVGID_00000183214533898715870720000005617708997191383210_);}
</style>
<path class="st0" d="M618.24,224.46h-198.1c-7.76,0-14.05-6.29-14.05-14.05v-52.35c0-7.76,6.29-14.05,14.05-14.05h198.1
	c7.76,0,14.05,6.29,14.05,14.05v52.35C632.3,218.16,626,224.46,618.24,224.46z"/>
<g>
	<g>
		<path class="st1" d="M55.39,287.02c-1.81,4.88-1.4,10.07-0.68,15.12c0.78,5.43,1.61,10.64,1.07,16.15
			c-0.28,2.87-0.56,5.71-0.46,8.6c0.1,2.89,0.45,5.76,0.87,8.61c0.21,1.46,0.44,2.91,0.68,4.36c0.19,1.11,0.4,2.25,1,3.22
			c1.09,1.78,3.08,2.65,5.06,3c2.49,0.44,5.06,0.43,7.57,0.58c2.92,0.17,5.85,0.35,8.77,0.49c5.98,0.29,11.89,0.14,17.86-0.32
			c5.77-0.45,11.61-1.27,17.4-0.72c2.8,0.27,5.59,0.75,8.4,0.8c2.75,0.05,5.49-0.35,8.18-0.87c1.23-0.24,2.46-0.56,3.7-0.72
			c1.2-0.15,2.41-0.21,3.61-0.41c1.92-0.34,3.65-1.21,4.82-2.8c2.04-2.77,1.98-6.63,1.6-9.89c-0.4-3.44-1.29-6.77-1.94-10.16
			c-1.1-5.69-1.02-11.45-1.39-17.22c-0.19-2.9-0.39-5.8-0.57-8.7c-0.15-2.46-0.11-4.89-1.14-7.18c-0.93-2.07-2.5-3.77-3.99-5.45
			c-1.83-2.07-3.67-4.12-5.59-6.1c-7.8-8.06-17.36-13.67-26.82-19.53c-2.44-1.51-4.83-3.2-7.37-4.54c-2.46-1.31-4.47,0.39-6.57,1.64
			c-4.75,2.82-9.77,5.41-14.21,8.7c-4.32,3.19-7.5,7.59-11.24,11.39c-3.6,3.65-7.32,7.32-9.31,12.14c-0.96,2.32-1.45,4.8-1.25,7.32
			c0.13,1.59,2.63,1.61,2.5,0c-0.4-5.09,2.31-9.58,5.57-13.26c1.6-1.81,3.34-3.49,5.02-5.22c1.73-1.77,3.33-3.65,4.98-5.5
			c1.73-1.94,3.57-3.74,5.7-5.23c2.1-1.47,4.34-2.74,6.55-4.05c2.32-1.38,4.63-2.75,6.95-4.13c0.91-0.54,2.2-1.68,3.26-1.81
			c1.03-0.13,2.51,1.23,3.36,1.75c4.64,2.88,9.31,5.73,13.93,8.64c4.3,2.7,8.54,5.53,12.38,8.87c3.93,3.43,7.41,7.32,10.86,11.22
			c1.35,1.53,2.76,3.13,3.39,5.12c0.73,2.31,0.53,5,0.69,7.4c0.36,5.49,0.73,10.97,0.89,16.46c0.12,4.12,1.04,8.16,1.91,12.17
			c0.72,3.28,1.43,6.72,1.06,10.09c-0.15,1.35-0.52,2.78-1.41,3.84c-1.3,1.53-3.39,1.66-5.25,1.84c-2.42,0.23-4.77,0.85-7.17,1.24
			c-2.67,0.44-5.34,0.56-8.04,0.31c-2.56-0.23-5.1-0.63-7.67-0.79c-2.71-0.18-5.42,0.04-8.13,0.24c-5.51,0.41-11.01,0.99-16.54,1.11
			c-5.52,0.12-11.04-0.28-16.54-0.6c-2.45-0.14-4.93-0.18-7.37-0.46c-2.07-0.24-4.13-0.85-4.75-3.06c-0.69-2.47-0.91-5.19-1.24-7.73
			c-0.35-2.75-0.58-5.52-0.55-8.29c0.04-2.62,0.41-5.2,0.61-7.8c0.2-2.55,0.12-5.07-0.17-7.6c-0.55-4.87-1.71-9.69-1.67-14.61
			c0.02-2.4,0.39-4.72,1.23-6.98C58.36,286.18,55.95,285.52,55.39,287.02L55.39,287.02z"/>
	</g>
</g>
<g>
	<text transform="matrix(1 0 0 1 479.4975 193.0201)" class="st1" style="font-family:'Allisya'; font-size:32.8171px;">shelter</text>
</g>
<g class="st2">
	<rect x="310.79" y="-14.62" width="82.03" height="61.37"/>
	<polygon points="310.8,-14.62 392.68,-14.62 350.89,-42.34 	"/>
	<g>
		<path d="M360.97-28.81c-2.26,1.66-4.32,3.47-6.2,5.37c-3.43,3.47-6.69,7.12-8.92,11.09c-3.3,5.87-5.11,12.46-3.74,18.79
			c1.38,6.37,5.85,12.26,13.09,16.1c7.42,3.94,15.99,5.3,25.06,5.36c4.4,0.03,8.55-0.44,12.42-1.88v-36.61h-0.11l-29.74-19.73
			C362.12-29.78,361.49-29.19,360.97-28.81z"/>
		<path d="M382.25,35.61c-10.36,0.57-21.43-0.36-30.8-3.76c-9.53-3.46-17.24-9.11-21.52-16.22c-4.23-7.02-4.76-15.02-2.84-22.48
			c2.03-7.93,6.66-15.12,12.8-21.8c3.38-3.68,7.16-6.95,11.17-10.25c0.67-0.55,1.43-1.2,2.27-1.82l-2.44-1.62L310.8-14.62h-0.01
			v61.37h82.03V33.54C389.55,34.66,386.03,35.4,382.25,35.61z"/>
	</g>
	<rect x="310.79" y="40.74" width="82.03" height="6.01"/>
	<polygon points="392.82,-15.06 351.69,-42.34 311.01,-14.2 311.01,-4.48 351.69,-32.62 392.82,-5.33 	"/>
	<g>
		<polygon points="351.69,-37.28 399.55,-5.52 409.33,-8.76 351.69,-47 296.4,-8.76 305.78,-5.52 		"/>
		<polygon points="301.23,-7.22 351.58,-42.04 404.07,-7.22 409.13,-8.9 351.69,-47 296.52,-8.84 		"/>
	</g>
	<g>
		<path d="M386.61-1.21h-25.4v47.96h25.4V-1.21z M363.37,43.55V1.99h21.09v41.55H363.37z"/>
		<g>
			<path d="M386.61-1.21h-25.4v47.96h25.4V-1.21z M362.07,44.74V0.8h23.27v43.94H362.07z"/>
			<rect x="363.37" y="1.99" width="21.09" height="41.55"/>
		</g>
		<path d="M367.34,26.47c0.64-6.15,2.44-13.06,6.35-16.94c2.14-2.12,4.72-3.47,7.37-4.06c1.12-0.25,2.26-0.46,3.4-0.52V1.99h-21.09
			v41.55h6.56C367.31,38.66,366.74,32.27,367.34,26.47z"/>
		<path d="M382.97,22.87c0,1.13-0.86,2.04-1.92,2.04c-1.06,0-1.92-0.92-1.92-2.04c0-1.13,0.86-2.04,1.92-2.04
			C382.11,20.83,382.97,21.74,382.97,22.87z"/>
	</g>
	<g>
		<rect x="316.18" y="-3.26" width="34.27" height="34.08"/>
		<rect x="318.76" y="-0.7" width="29.11" height="28.95"/>
		<rect x="320.37" y="1.16" width="11.88" height="11.81"/>
		<rect x="334.39" y="1.16" width="11.88" height="11.81"/>
		<rect x="320.37" y="14.58" width="11.88" height="11.81"/>
		<rect x="334.38" y="14.58" width="11.88" height="11.81"/>
		<g>
			<polygon points="320.37,2.02 332.25,7.07 332.25,7.55 320.37,2.57 			"/>
			<polygon points="332.25,7.99 332.25,8.49 320.37,3.68 320.37,3.1 			"/>
			<polygon points="320.37,4.1 332.25,8.98 332.25,9.46 320.37,4.66 			"/>
		</g>
		<g>
			<polygon points="320.37,17.25 332.25,22.3 332.25,22.78 320.37,17.8 			"/>
			<polygon points="332.25,23.22 332.25,23.72 320.37,18.9 320.37,18.33 			"/>
			<polygon points="320.37,19.33 332.25,24.21 332.25,24.69 320.37,19.89 			"/>
		</g>
		<g>
			<polygon points="334.39,16.77 346.26,21.82 346.26,22.3 334.39,17.32 			"/>
			<polygon points="346.27,22.74 346.27,23.24 334.39,18.43 334.39,17.85 			"/>
			<polygon points="334.39,18.86 346.27,23.73 346.27,24.21 334.39,19.41 			"/>
		</g>
		<g>
			<polygon points="334.39,3.83 346.26,8.88 346.26,9.36 334.39,4.38 			"/>
			<polygon points="346.27,9.8 346.27,10.3 334.39,5.49 334.39,4.91 			"/>
			<polygon points="334.39,5.91 346.27,10.79 346.27,11.27 334.39,6.47 			"/>
		</g>
	</g>
	<g>
		<path d="M294.77,48.54c0.11,0.33,0.99,2.44,4.77,2.44c0,0,0,0,0,0c0.5,0,1.04-0.04,1.61-0.11c0.08-0.01,0.16-0.02,0.24-0.02h31.32
			c1.14,0,2.72-0.58,3.85-1.42c1.49-1.1,1.58-3.1,1.01-4.58c-0.66-1.71-2.17-2.96-3.58-2.96c-0.39,0-0.78,0.09-1.16,0.28
			c-0.11,0.05-0.23,0.13-0.36,0.24c-0.65,0.7-1.29,1.19-1.73,1.48c-0.14,0.1-0.31,0.2-0.48,0.29c-0.01,0.01-0.03,0.01-0.04,0.02
			c-0.9,0.45-1.99,0.09-2.45-0.8c-0.46-0.89-0.11-1.99,0.77-2.46c0.01-0.01,0.08-0.05,0.18-0.11c0.18-0.12,0.42-0.35,0.67-0.58
			c0.17-0.16,0.34-0.32,0.53-0.48c1.46-1.72,1.49-3.89,0.09-6.46l0,0c0,0-1.7-2.89-4.27-2.89c-0.56,0-1.15,0.14-1.76,0.41
			c-0.53,0.24-1.14,0.21-1.64-0.08c-0.5-0.28-0.85-0.79-0.92-1.36c-0.08-0.55-0.9-5.44-5.77-5.44c-0.04,0-0.08,0-0.12,0
			c-0.01,0-0.06,0-0.15,0c-1.92,0-6.39,0.64-6.45,6.61c-0.01,0.59-0.3,1.15-0.79,1.48c-0.49,0.34-1.11,0.42-1.66,0.22l0,0
			c0,0-0.83-0.28-1.94-0.28c-2.08,0-3.72,0.94-4.88,2.8c-0.24,0.46-1.26,2.84,1.89,5.21c0.64,0.48,0.89,1.32,0.63,2.07
			c-0.26,0.75-0.98,1.25-1.79,1.22l-0.09,0c-1.48,0-4.26,0.38-5.33,1.83c-0.59,0.79-0.65,1.9-0.2,3.41c0,0.01,0,0.01,0,0.01
			C294.76,48.53,294.76,48.53,294.77,48.54C294.77,48.54,294.76,48.53,294.77,48.54z"/>
		<g>
			<path d="M337.01,48.77h-25.68c-0.07,0-0.13,0-0.2,0.01c-0.46,0.06-0.91,0.09-1.32,0.09h0c-3.1,0-3.82-1.73-3.91-2
				c0-0.01,0,0,0-0.01c0,0,0,0,0,0c0,0,0-0.01,0-0.01c-0.37-1.24-0.32-2.15,0.16-2.8c0.88-1.18,3.16-1.5,4.37-1.5h0.08
				c0.66,0.02,1.25-0.38,1.47-1c0.22-0.62,0.01-1.3-0.51-1.7c-2.58-1.94-1.75-3.89-1.55-4.27c0.95-1.53,2.29-2.3,4-2.3
				c0.91,0,1.59,0.23,1.59,0.23c0.46,0.17,0.97,0.1,1.37-0.18c0.4-0.28,0.64-0.73,0.65-1.22c0.04-3.2,1.62-4.53,3.15-5.07
				c-0.75-1.48-2.21-3.11-5.02-3.11c-0.04,0-0.08,0-0.12,0c-0.01,0-0.06,0-0.15,0c-1.92,0-6.39,0.64-6.45,6.61
				c-0.01,0.59-0.3,1.15-0.79,1.48c-0.49,0.34-1.11,0.42-1.66,0.22c0,0-0.83-0.28-1.94-0.28c-2.08,0-3.72,0.94-4.88,2.8
				c-0.24,0.46-1.26,2.84,1.89,5.21c0.64,0.48,0.89,1.32,0.63,2.07c-0.26,0.75-0.98,1.25-1.79,1.22l-0.09,0
				c-1.48,0-4.26,0.38-5.33,1.83c-0.59,0.79-0.65,1.9-0.2,3.41c0,0.01,0,0.01,0,0.01c0,0,0,0,0,0c0,0.01,0,0,0,0.01
				c0.11,0.33,0.99,2.44,4.77,2.44c0,0,0,0,0,0c0.5,0,1.04-0.04,1.61-0.11c0.08-0.01,0.16-0.02,0.24-0.02h31.32
				c1.14,0,2.72-0.58,3.85-1.42c0.26-0.2,0.47-0.43,0.65-0.67C337.15,48.77,337.08,48.77,337.01,48.77z"/>
		</g>
		<path d="M322.32,30.75c0,0-0.29,0.4-0.74,1c-0.1,0.15-0.21,0.3-0.32,0.47c-0.11,0.16-0.22,0.34-0.32,0.52
			c-0.12,0.18-0.19,0.38-0.3,0.56c-0.07,0.2-0.19,0.39-0.23,0.59l-0.1,0.3l-0.06,0.3c-0.06,0.2-0.06,0.4-0.09,0.6
			c-0.04,0.2,0,0.4-0.01,0.59c-0.01,0.19,0.02,0.37,0.04,0.55c0.03,0.17,0.02,0.34,0.06,0.48c0.03,0.14,0.06,0.27,0.08,0.38
			c0.04,0.22,0.05,0.35,0.05,0.35s-0.1-0.08-0.26-0.25c-0.08-0.08-0.18-0.18-0.28-0.31c-0.12-0.12-0.19-0.28-0.29-0.45
			c-0.1-0.17-0.21-0.36-0.27-0.59c-0.06-0.22-0.16-0.46-0.16-0.72c-0.02-0.26-0.05-0.53,0-0.8c0.02-0.14,0.03-0.28,0.06-0.41
			l0.12-0.4c0.07-0.27,0.22-0.51,0.34-0.75c0.15-0.22,0.29-0.45,0.46-0.63c0.16-0.19,0.33-0.36,0.51-0.51
			c0.17-0.15,0.35-0.27,0.51-0.38C321.79,30.84,322.32,30.75,322.32,30.75z"/>
		<path d="M327.53,41.4c0,0-0.5,0-1.24,0c-0.18,0.01-0.37,0.01-0.57,0.03c-0.2,0.01-0.4,0.03-0.61,0.05
			c-0.21,0.01-0.42,0.07-0.63,0.09c-0.2,0.07-0.42,0.08-0.62,0.17l-0.3,0.1l-0.28,0.13c-0.2,0.07-0.36,0.19-0.54,0.29
			c-0.18,0.09-0.32,0.23-0.48,0.34c-0.16,0.1-0.29,0.24-0.42,0.36c-0.12,0.13-0.26,0.22-0.35,0.34c-0.09,0.11-0.19,0.2-0.26,0.29
			c-0.15,0.16-0.25,0.25-0.25,0.25s0.01-0.13,0.05-0.35c0.02-0.11,0.04-0.25,0.08-0.4c0.03-0.16,0.11-0.32,0.19-0.5
			c0.08-0.18,0.17-0.39,0.32-0.57c0.15-0.18,0.28-0.4,0.49-0.56c0.2-0.17,0.4-0.36,0.65-0.48c0.12-0.07,0.24-0.14,0.37-0.2
			l0.39-0.14c0.26-0.1,0.54-0.12,0.8-0.17c0.27-0.01,0.53-0.04,0.78,0c0.25,0.02,0.49,0.05,0.71,0.11c0.22,0.04,0.42,0.13,0.61,0.19
			C327.15,41.02,327.53,41.4,327.53,41.4z"/>
	</g>
	<g>
		<path d="M376.17,48.54c0.11,0.33,0.99,2.44,4.77,2.44c0,0,0,0,0,0c0.5,0,1.04-0.04,1.61-0.11c0.08-0.01,0.16-0.02,0.24-0.02h31.32
			c1.14,0,2.72-0.58,3.85-1.42c1.49-1.1,1.58-3.1,1.01-4.58c-0.66-1.71-2.17-2.96-3.58-2.96c-0.39,0-0.78,0.09-1.16,0.28
			c-0.11,0.05-0.23,0.13-0.36,0.24c-0.65,0.7-1.29,1.19-1.73,1.48c-0.14,0.1-0.31,0.2-0.48,0.29c-0.01,0.01-0.03,0.01-0.04,0.02
			c-0.9,0.45-1.99,0.09-2.45-0.8c-0.46-0.89-0.11-1.99,0.77-2.46c0.01-0.01,0.08-0.05,0.18-0.11c0.18-0.12,0.42-0.35,0.67-0.58
			c0.17-0.16,0.34-0.32,0.53-0.48c1.46-1.72,1.49-3.89,0.09-6.46l0,0c0,0-1.7-2.89-4.27-2.89c-0.56,0-1.15,0.14-1.76,0.41
			c-0.53,0.24-1.14,0.21-1.64-0.08c-0.5-0.28-0.85-0.79-0.92-1.36c-0.08-0.55-0.9-5.44-5.77-5.44c-0.04,0-0.08,0-0.12,0
			c-0.01,0-0.06,0-0.15,0c-1.92,0-6.39,0.64-6.45,6.61c-0.01,0.59-0.3,1.15-0.79,1.48c-0.49,0.34-1.11,0.42-1.66,0.22l0,0
			c0,0-0.83-0.28-1.94-0.28c-2.08,0-3.72,0.94-4.88,2.8c-0.24,0.46-1.26,2.84,1.89,5.21c0.64,0.48,0.89,1.32,0.63,2.07
			c-0.26,0.75-0.98,1.25-1.79,1.22l-0.09,0c-1.47,0-4.26,0.38-5.33,1.83c-0.59,0.79-0.65,1.9-0.2,3.41c0,0.01,0,0.01,0,0.01
			C376.17,48.53,376.17,48.53,376.17,48.54C376.17,48.54,376.17,48.53,376.17,48.54z"/>
		<g>
			<path d="M418.42,48.77h-25.68c-0.07,0-0.13,0-0.2,0.01c-0.46,0.06-0.91,0.09-1.32,0.09h0c-3.1,0-3.82-1.73-3.91-2
				c0-0.01,0,0,0-0.01c0,0,0,0,0,0c0,0,0-0.01,0-0.01c-0.37-1.24-0.32-2.15,0.16-2.8c0.88-1.18,3.16-1.5,4.37-1.5h0.08
				c0.66,0.02,1.25-0.38,1.47-1c0.22-0.62,0.01-1.3-0.51-1.7c-2.58-1.94-1.75-3.89-1.55-4.27c0.95-1.53,2.29-2.3,4-2.3
				c0.91,0,1.59,0.23,1.59,0.23c0.46,0.17,0.97,0.1,1.37-0.18c0.4-0.28,0.64-0.73,0.64-1.22c0.04-3.2,1.62-4.53,3.15-5.07
				c-0.75-1.48-2.21-3.11-5.02-3.11c-0.04,0-0.08,0-0.12,0c-0.01,0-0.06,0-0.15,0c-1.92,0-6.39,0.64-6.45,6.61
				c-0.01,0.59-0.3,1.15-0.79,1.48c-0.49,0.34-1.11,0.42-1.66,0.22c0,0-0.83-0.28-1.94-0.28c-2.08,0-3.72,0.94-4.88,2.8
				c-0.24,0.46-1.26,2.84,1.89,5.21c0.64,0.48,0.89,1.32,0.63,2.07c-0.26,0.75-0.98,1.25-1.79,1.22l-0.09,0
				c-1.47,0-4.26,0.38-5.33,1.83c-0.59,0.79-0.65,1.9-0.2,3.41c0,0.01,0,0.01,0,0.01c0,0,0,0,0,0c0,0.01,0,0,0,0.01
				c0.11,0.33,0.99,2.44,4.77,2.44c0,0,0,0,0,0c0.5,0,1.04-0.04,1.61-0.11c0.08-0.01,0.16-0.02,0.24-0.02h31.32
				c1.14,0,2.72-0.58,3.85-1.42c0.26-0.2,0.47-0.43,0.65-0.67C418.56,48.77,418.49,48.77,418.42,48.77z"/>
		</g>
		<path d="M403.73,30.75c0,0-0.29,0.4-0.74,1c-0.1,0.15-0.21,0.3-0.32,0.47c-0.11,0.16-0.22,0.34-0.32,0.52
			c-0.12,0.18-0.19,0.38-0.3,0.56c-0.07,0.2-0.19,0.39-0.23,0.59l-0.1,0.3l-0.06,0.3c-0.06,0.2-0.06,0.4-0.08,0.6
			c-0.04,0.2,0,0.4-0.01,0.59c-0.01,0.19,0.02,0.37,0.04,0.55c0.03,0.17,0.02,0.34,0.06,0.48c0.03,0.14,0.06,0.27,0.08,0.38
			c0.04,0.22,0.05,0.35,0.05,0.35s-0.1-0.08-0.26-0.25c-0.08-0.08-0.18-0.18-0.28-0.31c-0.11-0.12-0.19-0.28-0.29-0.45
			c-0.1-0.17-0.21-0.36-0.27-0.59c-0.06-0.22-0.16-0.46-0.16-0.72c-0.02-0.26-0.05-0.53,0-0.8c0.02-0.14,0.03-0.28,0.06-0.41
			l0.12-0.4c0.07-0.27,0.22-0.51,0.34-0.75c0.15-0.22,0.28-0.45,0.46-0.63c0.16-0.19,0.33-0.36,0.51-0.51
			c0.17-0.15,0.35-0.27,0.51-0.38C403.2,30.84,403.73,30.75,403.73,30.75z"/>
		<path d="M408.94,41.4c0,0-0.49,0-1.24,0c-0.18,0.01-0.37,0.01-0.57,0.03c-0.2,0.01-0.4,0.03-0.61,0.05
			c-0.21,0.01-0.42,0.07-0.63,0.09c-0.2,0.07-0.42,0.08-0.62,0.17l-0.3,0.1l-0.28,0.13c-0.2,0.07-0.36,0.19-0.54,0.29
			c-0.18,0.09-0.32,0.23-0.48,0.34c-0.16,0.1-0.29,0.24-0.42,0.36c-0.12,0.13-0.26,0.22-0.35,0.34c-0.09,0.11-0.19,0.2-0.26,0.29
			c-0.15,0.16-0.25,0.25-0.25,0.25s0.01-0.13,0.05-0.35c0.02-0.11,0.04-0.25,0.08-0.4c0.03-0.16,0.11-0.32,0.19-0.5
			c0.08-0.18,0.17-0.39,0.32-0.57c0.15-0.18,0.28-0.4,0.49-0.56c0.19-0.17,0.4-0.36,0.65-0.48c0.12-0.07,0.24-0.14,0.37-0.2
			l0.39-0.14c0.26-0.1,0.54-0.12,0.8-0.17c0.27-0.01,0.53-0.04,0.78,0c0.25,0.02,0.49,0.05,0.71,0.11c0.22,0.04,0.42,0.13,0.61,0.19
			C408.56,41.02,408.94,41.4,408.94,41.4z"/>
	</g>
</g>
<path class="st3" d="M618.44,224.44h-198.1c-7.76,0-14.05-6.29-14.05-14.05v-52.35c0-7.76,6.29-14.05,14.05-14.05h198.1
	c7.76,0,14.05,6.29,14.05,14.05v52.35C632.49,218.15,626.2,224.44,618.44,224.44z"/>
<g>
	<text transform="matrix(1 0 0 1 287.0146 92.7003)" class="st1" style="font-family:'Allisya'; font-size:32.8171px;">money</text>
</g>
<g class="st2">
	<path d="M248.53,3.43v-5.79c1.99-0.69,3.11-1.47,3.11-2.28v-8.1c0-2.97-14.72-4.25-32.87-4.25c-18.15,0-32.87,1.28-32.87,4.25v7.17
		c-1.99,0.57-3.11,1.26-3.11,2.07v8.1c0,0.93,1.45,1.81,4,2.57v5.87c-1.71,0.54-2.67,1.19-2.67,1.94v8.1c0,0.43,0.31,0.84,0.89,1.24
		v6.95c-2.27,0.59-3.55,1.32-3.55,2.2v8.1c0,0.75,0.95,1.47,2.67,2.12v6.84c-0.86,0.42-1.33,0.9-1.33,1.42v8.1
		c0,0.91,1.4,1.78,3.86,2.53v6.54c0,0.05,0.01,0.1,0.02,0.15c-0.88,0.41-1.36,0.88-1.36,1.4v7.7c0,2.82,13.98,5.11,31.23,5.11
		s31.23-2.29,31.23-5.11v-7.7c0-0.02-0.01-0.04-0.01-0.06c0.87-0.47,1.34-0.97,1.34-1.48v-7.7c0-0.36-0.23-0.69-0.66-1
		c0.05-0.12,0.09-0.25,0.09-0.37v-7.73c0.86-0.48,1.33-0.99,1.33-1.51v-8.1c0-0.75-0.95-1.4-2.67-1.94v-6.01
		c2.27-0.73,3.55-1.56,3.55-2.43v-8.1c0-0.43-0.31-0.82-0.89-1.18v-7.09c1.71-0.65,2.67-1.37,2.67-2.12v-8.1
		C252.53,4.81,251.08,4.04,248.53,3.43z M247.28,69.38v-6.23c0.18-0.08,0.34-0.16,0.49-0.24v6.09
		C247.68,69.11,247.51,69.24,247.28,69.38z M195.71,74.75c-0.37-0.06-0.73-0.12-1.08-0.19v6.08c-0.37-0.06-0.73-0.12-1.08-0.19v-6.1
		c-0.51-0.11-1-0.21-1.45-0.32c-0.4-0.09-0.77-0.19-1.13-0.28v6.17c-2.5-0.6-3.94-1.21-4.31-1.68v-6.09
		c0.14,0.07,0.28,0.15,0.44,0.22c0.07,0.03,0.26,0.1,0.57,0.21c0.39,0.15,0.99,0.31,1.74,0.51c0.76,0.19,1.69,0.39,2.76,0.58
		c0.54,0.09,1.11,0.19,1.71,0.27c0.6,0.09,1.24,0.18,1.9,0.26c1.33,0.17,2.77,0.31,4.3,0.45c1.53,0.12,3.15,0.22,4.82,0.32
		c1.67,0.09,3.4,0.16,5.16,0.21c1.76,0.06,3.54,0.09,5.34,0.09c1.79,0.02,3.58,0,5.34-0.02c1.76-0.04,3.49-0.07,5.17-0.15
		c3.35-0.14,6.48-0.32,9.14-0.6c1.33-0.14,2.56-0.28,3.64-0.42c1.08-0.14,2.02-0.3,2.79-0.44c1.54-0.28,2.41-0.51,2.41-0.51
		s-0.21,0.07-0.61,0.2c-0.4,0.13-0.99,0.3-1.76,0.5c-1.53,0.38-3.73,0.85-6.4,1.22c-1.78,0.25-3.76,0.48-5.88,0.67v5.97
		c-0.83,0.06-1.69,0.12-2.58,0.17v-5.94c-0.24,0.02-0.47,0.03-0.71,0.05c-2.31,0.15-4.74,0.23-7.2,0.27v5.87
		c-0.73,0.01-1.46,0.01-2.22,0.01c-7.34,0-13.32-0.38-17.96-0.93v-6.02C197.59,75.04,196.62,74.9,195.71,74.75z M188,68.99v-6.04
		c0.06,0.02,0.12,0.03,0.18,0.05c0.08,0.04,0.17,0.08,0.26,0.12c0.07,0.03,0.26,0.1,0.57,0.21c0.39,0.15,0.99,0.31,1.74,0.51
		c0.76,0.19,1.69,0.39,2.76,0.58c0.54,0.09,1.11,0.19,1.71,0.27c0.6,0.09,1.24,0.18,1.9,0.26c1.33,0.17,2.77,0.31,4.3,0.45
		c1.53,0.12,3.15,0.22,4.82,0.32c1.67,0.09,3.4,0.16,5.16,0.21c1.76,0.06,3.54,0.09,5.34,0.09c1.79,0.02,3.58,0,5.34-0.02
		c1.76-0.04,3.49-0.07,5.17-0.15c3.35-0.14,6.48-0.32,9.14-0.6c1.33-0.14,2.56-0.28,3.64-0.42c1.08-0.14,2.02-0.3,2.79-0.44
		c1.54-0.28,2.41-0.51,2.41-0.51s-0.21,0.07-0.61,0.2c-0.4,0.13-0.99,0.3-1.76,0.5c-1.53,0.38-3.73,0.85-6.4,1.22
		c-1.78,0.25-3.76,0.48-5.88,0.67v5.97c-0.83,0.06-1.69,0.12-2.58,0.17v-5.94c-0.24,0.02-0.47,0.03-0.71,0.05
		c-2.31,0.15-4.74,0.23-7.2,0.27v5.87c-0.73,0.01-1.46,0.01-2.22,0.01c-7.34,0-13.32-0.38-17.96-0.93v-6.02
		c-1.01-0.13-1.97-0.28-2.88-0.43c-0.37-0.06-0.73-0.12-1.08-0.19v6.08c-0.37-0.06-0.73-0.12-1.08-0.19v-6.1
		c-0.51-0.11-1-0.21-1.45-0.32c-0.4-0.09-0.77-0.19-1.13-0.28v6.17C189.8,70.07,188.37,69.46,188,68.99z M184.13,59.94v-6.48
		c0.16,0.09,0.34,0.18,0.54,0.27c0.08,0.03,0.28,0.1,0.6,0.22c0.41,0.16,1.04,0.33,1.83,0.54c0.8,0.21,1.77,0.42,2.9,0.61
		c0.56,0.1,1.17,0.2,1.8,0.28c0.64,0.1,1.3,0.19,2,0.28c1.4,0.18,2.92,0.33,4.53,0.47c1.61,0.13,3.31,0.24,5.07,0.35
		c1.76,0.1,3.58,0.19,5.44,0.24c1.86,0.05,3.73,0.08,5.62,0.08c3.76,0.05,7.53-0.01,11.06-0.18c3.53-0.16,6.82-0.35,9.62-0.65
		c1.4-0.14,2.69-0.3,3.83-0.44c1.14-0.15,2.12-0.32,2.94-0.46c1.62-0.3,2.54-0.54,2.54-0.54s-0.23,0.07-0.65,0.21
		c-0.42,0.14-1.05,0.32-1.85,0.52c-1.61,0.39-3.92,0.89-6.74,1.28c-1.41,0.2-2.93,0.38-4.55,0.55c-0.53,0.05-1.09,0.1-1.63,0.15
		v6.39c-0.87,0.06-1.78,0.12-2.71,0.17v-6.35c-0.25,0.02-0.5,0.04-0.75,0.05c-2.44,0.14-4.99,0.23-7.58,0.28v6.29
		c-0.76,0.01-1.54,0.01-2.33,0.01c-7.73,0-14.03-0.4-18.91-0.98v-6.43c-1.06-0.14-2.07-0.29-3.03-0.45
		c-0.39-0.06-0.77-0.13-1.14-0.19v6.49c-0.39-0.07-0.77-0.13-1.14-0.2v-6.51c-0.53-0.11-1.05-0.22-1.53-0.34
		c-0.42-0.1-0.82-0.2-1.19-0.3v6.58C186.03,61.11,184.49,60.45,184.13,59.94z M182.8,41.46v-6.48c0.16,0.09,0.34,0.18,0.54,0.27
		c0.08,0.03,0.28,0.1,0.6,0.22c0.41,0.16,1.04,0.33,1.83,0.54c0.8,0.21,1.77,0.42,2.9,0.61c0.56,0.1,1.17,0.2,1.8,0.28
		c0.64,0.1,1.3,0.19,2,0.28c1.4,0.18,2.92,0.33,4.53,0.47c1.61,0.13,3.31,0.24,5.07,0.35c1.76,0.1,3.58,0.19,5.44,0.24
		c1.86,0.05,3.73,0.08,5.62,0.08c3.76,0.05,7.53-0.01,11.06-0.18c3.53-0.16,6.82-0.35,9.62-0.65c1.4-0.14,2.69-0.3,3.83-0.44
		c1.14-0.15,2.12-0.32,2.94-0.46c1.62-0.3,2.54-0.54,2.54-0.54s-0.23,0.07-0.65,0.21c-0.42,0.14-1.05,0.32-1.85,0.52
		c-1.61,0.39-3.92,0.89-6.74,1.28c-1.41,0.2-2.93,0.38-4.55,0.55c-0.53,0.05-1.09,0.1-1.63,0.15v6.39
		c-0.87,0.06-1.78,0.12-2.71,0.17v-6.35c-0.25,0.02-0.5,0.04-0.75,0.05c-2.44,0.14-4.99,0.23-7.58,0.28v6.29
		c-0.76,0.01-1.54,0.01-2.33,0.01c-7.73,0-14.03-0.4-18.91-0.98V38.2c-1.06-0.14-2.07-0.29-3.03-0.45
		c-0.39-0.06-0.77-0.13-1.14-0.19v6.49c-0.39-0.07-0.77-0.13-1.14-0.2v-6.51c-0.53-0.11-1.05-0.22-1.53-0.34
		c-0.42-0.1-0.82-0.2-1.19-0.3v6.58C184.69,42.63,183.16,41.96,182.8,41.46z M185.07,32.62c0.72,2.15,9.18,3.96,20.9,4.71
		c-14.13-0.59-21.75-2.61-23.05-3.84C183.24,33.23,183.93,32.93,185.07,32.62z M186.95,14.37c1.14,1.9,8.33,3.51,18.39,4.31
		c-12.02-0.74-18.56-2.54-19.76-3.67C185.82,14.81,186.27,14.6,186.95,14.37z M184.13,4.49v-6.48c0.16,0.09,0.34,0.18,0.54,0.27
		c0.08,0.03,0.28,0.1,0.6,0.22c0.41,0.16,1.04,0.33,1.83,0.54c0.8,0.21,1.77,0.42,2.9,0.61c0.56,0.1,1.17,0.2,1.8,0.28
		c0.64,0.1,1.3,0.19,2,0.28c1.4,0.18,2.92,0.33,4.53,0.47c1.61,0.13,3.31,0.24,5.07,0.35c1.76,0.1,3.58,0.19,5.44,0.24
		c1.86,0.05,3.73,0.08,5.62,0.08c3.76,0.05,7.53-0.01,11.06-0.18c3.53-0.16,6.82-0.35,9.62-0.65c1.4-0.14,2.69-0.3,3.83-0.44
		c1.14-0.15,2.12-0.32,2.94-0.46c1.62-0.3,2.54-0.54,2.54-0.54s-0.23,0.07-0.65,0.21c-0.42,0.14-1.05,0.32-1.85,0.52
		c-1.61,0.39-3.92,0.89-6.74,1.28c-1.41,0.2-2.93,0.38-4.55,0.55c-0.53,0.05-1.09,0.1-1.63,0.15v6.39
		c-0.87,0.06-1.78,0.12-2.71,0.17V2c-0.25,0.02-0.5,0.04-0.75,0.05c-2.44,0.14-4.99,0.23-7.58,0.28v6.29
		c-0.76,0.01-1.54,0.01-2.33,0.01c-7.73,0-14.03-0.4-18.91-0.98V1.23c-1.06-0.14-2.07-0.29-3.03-0.45
		c-0.39-0.06-0.77-0.13-1.14-0.19v6.49c-0.39-0.07-0.77-0.13-1.14-0.2V0.36c-0.53-0.11-1.05-0.22-1.53-0.34
		c-0.42-0.1-0.82-0.2-1.19-0.3v6.58C186.03,5.66,184.49,4.99,184.13,4.49z M186.01-4.23c0.94,2.04,8.83,3.76,19.8,4.53
		c-13.18-0.67-20.31-2.59-21.56-3.78C184.53-3.71,185.1-3.97,186.01-4.23z M231.73-15.41c0.13,0.01,0.25,0.01,0.37,0.02
		c2,0.12,4.16,0.27,6.43,0.49c1.14,0.11,2.3,0.24,3.49,0.4c1.18,0.17,2.4,0.33,3.54,0.65c0.12,0.03,0.25,0.07,0.37,0.12
		c-0.39,0.16-0.88,0.3-1.34,0.42c-1.22,0.3-2.49,0.51-3.78,0.72c-2.58,0.39-5.22,0.66-7.87,0.87c-2.65,0.22-5.3,0.38-7.92,0.47
		c-2.62,0.09-5.19,0.16-7.69,0.16c-4.99,0.01-9.66-0.07-13.65-0.29c-3.99-0.22-7.31-0.47-9.62-0.82c-1.15-0.18-2.05-0.35-2.64-0.55
		c-0.29-0.1-0.51-0.2-0.63-0.31c-0.13-0.1-0.12-0.21-0.12-0.2c0,0-0.02,0.1,0.11,0.22c0.11,0.12,0.33,0.24,0.62,0.36
		c0.58,0.24,1.47,0.5,2.62,0.73c2.3,0.46,5.61,0.97,9.61,1.3c4,0.34,8.67,0.63,13.69,0.7c2.51,0.03,5.1,0.04,7.74-0.05
		c2.64-0.08,5.31-0.22,7.98-0.43c2.67-0.23,5.34-0.52,7.96-0.93c1.31-0.21,2.6-0.45,3.88-0.79c0.65-0.19,1.26-0.34,1.95-0.72
		c0.09-0.06,0.18-0.12,0.29-0.21c0.05-0.05,0.1-0.1,0.16-0.19c0.02-0.03,0.06-0.09,0.1-0.18c0.02-0.04,0.03-0.08,0.04-0.13
		l0.01-0.04l0-0.03c0-0.04,0-0.06,0.01-0.08c1.5,0.36,2.37,0.71,2.74,1.01c-1.54,1.46-11.9,4.01-31.41,4.01s-29.88-2.55-31.41-4.01
		c1.37-1.11,9.29-2.94,31.41-2.94C223.8-15.66,228.08-15.57,231.73-15.41z M247.2,4.49c-0.1,0.14-0.3,0.3-0.59,0.46v-6.64
		c0.16-0.07,0.31-0.14,0.45-0.22c0.05-0.01,0.09-0.03,0.14-0.04V4.49z M249.72-4.29v-6.64c0.21-0.1,0.41-0.2,0.59-0.3v6.48
		C250.2-4.61,250-4.46,249.72-4.29z M187.78-10.96c0.08,0.03,0.28,0.1,0.6,0.22c0.41,0.16,1.04,0.33,1.83,0.54
		c0.8,0.21,1.77,0.42,2.9,0.61c0.56,0.1,1.17,0.2,1.8,0.28c0.64,0.1,1.3,0.19,2,0.28c1.4,0.18,2.92,0.33,4.53,0.47
		c1.61,0.13,3.31,0.24,5.07,0.35c1.76,0.1,3.58,0.19,5.44,0.24c1.86,0.05,3.73,0.08,5.62,0.08c3.76,0.05,7.53-0.01,11.06-0.18
		c3.53-0.16,6.82-0.35,9.62-0.65c1.4-0.14,2.69-0.3,3.83-0.44c1.14-0.15,2.12-0.32,2.94-0.46c1.62-0.3,2.54-0.54,2.54-0.54
		s-0.23,0.07-0.65,0.21c-0.42,0.14-1.05,0.32-1.85,0.52c-1.61,0.39-3.92,0.89-6.74,1.28c-1.41,0.2-2.93,0.38-4.55,0.55
		c-0.53,0.05-1.09,0.1-1.63,0.15v6.39c-0.87,0.06-1.78,0.12-2.71,0.17v-6.35c-0.25,0.02-0.5,0.04-0.75,0.05
		c-2.44,0.14-4.99,0.23-7.58,0.28v6.29c-0.76,0.01-1.54,0.01-2.33,0.01c-7.73,0-14.03-0.4-18.91-0.98v-6.43
		c-1.06-0.14-2.07-0.29-3.03-0.45c-0.39-0.06-0.77-0.13-1.14-0.19v6.49c-0.39-0.07-0.77-0.13-1.14-0.2v-6.51
		c-0.53-0.11-1.05-0.22-1.53-0.34c-0.42-0.1-0.82-0.2-1.19-0.3v6.58c-2.71-0.65-4.24-1.31-4.6-1.82v-6.48
		C187.41-11.14,187.58-11.05,187.78-10.96z M189.63,7.88c0.38,0.12,0.88,0.26,1.47,0.42c0.8,0.21,1.77,0.42,2.9,0.61
		c0.56,0.1,1.17,0.2,1.8,0.28c0.64,0.1,1.3,0.19,2,0.28c1.4,0.18,2.92,0.33,4.53,0.47c1.61,0.13,3.31,0.24,5.07,0.35
		c1.76,0.1,3.58,0.19,5.44,0.24c1.86,0.05,3.73,0.08,5.62,0.08c3.76,0.05,7.53-0.01,11.06-0.18c3.53-0.16,6.82-0.35,9.62-0.65
		c1.4-0.14,2.69-0.3,3.83-0.44c1.14-0.15,2.12-0.32,2.94-0.46c1.62-0.3,2.54-0.54,2.54-0.54s-0.23,0.07-0.65,0.21
		c-0.42,0.14-1.05,0.32-1.85,0.52c-1.61,0.39-3.92,0.89-6.74,1.28c-1.41,0.2-2.93,0.38-4.55,0.55c-0.53,0.05-1.09,0.1-1.63,0.15
		v6.39c-0.87,0.06-1.78,0.12-2.71,0.17v-6.35c-0.25,0.02-0.5,0.04-0.75,0.05c-2.44,0.14-4.99,0.23-7.58,0.28v6.29
		c-0.76,0.01-1.54,0.01-2.33,0.01c-7.73,0-14.03-0.4-18.91-0.98v-6.43c-1.06-0.14-2.07-0.29-3.03-0.45
		c-0.39-0.06-0.77-0.13-1.14-0.19v6.49c-0.39-0.07-0.77-0.13-1.14-0.2V9.61c-0.53-0.11-1.05-0.22-1.53-0.34
		c-0.42-0.1-0.82-0.2-1.19-0.3v6.58c-2.71-0.65-4.24-1.31-4.6-1.82v-6.2C188.6,7.65,189.1,7.77,189.63,7.88z M186,16.77
		c0.08,0.03,0.28,0.1,0.6,0.22c0.41,0.16,1.04,0.33,1.83,0.54c0.8,0.21,1.77,0.42,2.9,0.61c0.56,0.1,1.17,0.2,1.8,0.28
		c0.64,0.1,1.3,0.19,2,0.28c1.4,0.18,2.92,0.33,4.53,0.47c1.61,0.13,3.31,0.24,5.07,0.35c1.76,0.1,3.58,0.19,5.44,0.24
		c1.86,0.05,3.73,0.08,5.62,0.08c3.76,0.05,7.53-0.01,11.06-0.18c3.53-0.16,6.82-0.35,9.62-0.65c1.4-0.14,2.69-0.3,3.83-0.44
		c1.14-0.15,2.12-0.32,2.94-0.46c1.62-0.3,2.54-0.54,2.54-0.54s-0.23,0.07-0.65,0.21c-0.42,0.14-1.05,0.32-1.85,0.52
		c-1.61,0.39-3.92,0.89-6.74,1.28c-1.41,0.2-2.93,0.38-4.55,0.55c-0.53,0.05-1.09,0.1-1.63,0.15v6.39
		c-0.87,0.06-1.78,0.12-2.71,0.17v-6.35c-0.25,0.02-0.5,0.04-0.75,0.05c-2.44,0.14-4.99,0.23-7.58,0.28v6.29
		c-0.76,0.01-1.54,0.01-2.33,0.01c-7.73,0-14.03-0.4-18.91-0.98v-6.43c-1.06-0.14-2.07-0.29-3.03-0.45
		c-0.39-0.06-0.77-0.13-1.14-0.19v6.49c-0.39-0.07-0.77-0.13-1.14-0.2v-6.51c-0.53-0.11-1.05-0.22-1.53-0.34
		c-0.42-0.1-0.82-0.2-1.19-0.3v6.58c-2.71-0.65-4.24-1.31-4.6-1.82V16.5C185.63,16.59,185.81,16.68,186,16.77z M186.89,26.01
		c0.08,0.03,0.28,0.1,0.6,0.22c0.41,0.16,1.04,0.33,1.83,0.54c0.8,0.21,1.77,0.42,2.9,0.61c0.56,0.1,1.17,0.2,1.8,0.28
		c0.64,0.1,1.3,0.19,2,0.28c1.4,0.18,2.92,0.33,4.53,0.47c1.61,0.13,3.31,0.24,5.07,0.35c1.76,0.1,3.58,0.19,5.44,0.24
		c1.86,0.05,3.73,0.08,5.62,0.08c3.76,0.05,7.53-0.01,11.06-0.18c3.53-0.16,6.82-0.35,9.62-0.65c1.4-0.14,2.69-0.3,3.83-0.44
		c1.14-0.15,2.12-0.32,2.94-0.46c1.62-0.3,2.54-0.54,2.54-0.54s-0.23,0.07-0.65,0.21c-0.42,0.14-1.05,0.32-1.85,0.52
		c-1.61,0.39-3.92,0.89-6.74,1.28c-1.41,0.2-2.93,0.38-4.55,0.55c-0.53,0.05-1.09,0.1-1.63,0.15v6.39
		c-0.87,0.06-1.78,0.12-2.71,0.17v-6.35c-0.25,0.02-0.5,0.04-0.75,0.05c-2.44,0.14-4.99,0.23-7.58,0.28v6.29
		c-0.76,0.01-1.54,0.01-2.33,0.01c-7.73,0-14.03-0.4-18.91-0.98v-6.43c-1.06-0.14-2.07-0.29-3.03-0.45
		c-0.39-0.06-0.77-0.13-1.14-0.19v6.49c-0.39-0.07-0.77-0.13-1.14-0.2v-6.51c-0.53-0.11-1.05-0.22-1.53-0.34
		c-0.42-0.1-0.82-0.2-1.19-0.3v6.58c-2.71-0.65-4.24-1.31-4.6-1.82v-6.48C186.52,25.83,186.7,25.92,186.89,26.01z M186.6,44.72
		c0.41,0.16,1.04,0.33,1.83,0.54c0.8,0.21,1.77,0.42,2.9,0.61c0.56,0.1,1.17,0.2,1.8,0.28c0.64,0.1,1.3,0.19,2,0.28
		c1.4,0.18,2.92,0.33,4.53,0.47c1.61,0.13,3.31,0.24,5.07,0.35c1.76,0.1,3.58,0.19,5.44,0.24c1.86,0.05,3.73,0.08,5.62,0.08
		c3.76,0.05,7.53-0.01,11.06-0.18c3.53-0.16,6.82-0.35,9.62-0.65c1.4-0.14,2.69-0.3,3.83-0.44c1.14-0.15,2.12-0.32,2.94-0.46
		c1.62-0.3,2.54-0.54,2.54-0.54s-0.23,0.07-0.65,0.21c-0.42,0.14-1.05,0.32-1.85,0.52c-1.61,0.39-3.92,0.89-6.74,1.28
		c-1.41,0.2-2.93,0.38-4.55,0.55c-0.53,0.05-1.09,0.1-1.63,0.15v6.39c-0.87,0.06-1.78,0.12-2.71,0.17v-6.35
		c-0.25,0.02-0.5,0.04-0.75,0.05c-2.44,0.14-4.99,0.23-7.58,0.28v6.29c-0.76,0.01-1.54,0.01-2.33,0.01c-7.73,0-14.03-0.4-18.91-0.98
		v-6.43c-1.06-0.14-2.07-0.29-3.03-0.45c-0.39-0.06-0.77-0.13-1.14-0.19v6.49c-0.39-0.07-0.77-0.13-1.14-0.2v-6.51
		c-0.53-0.11-1.05-0.22-1.53-0.34c-0.42-0.1-0.82-0.2-1.19-0.3v6.58c-2.71-0.65-4.24-1.31-4.6-1.82v-6.48
		c0.16,0.09,0.34,0.18,0.54,0.27C186.08,44.53,186.28,44.6,186.6,44.72z M184.63,51.74c1.18,1.11,4.43,2.1,9.08,2.86
		c-5.52-0.83-8.67-1.88-9.46-2.63C184.34,51.9,184.47,51.82,184.63,51.74z M187.54,70.33c3.32,2.24,15.64,3.9,30.34,3.9
		c7.63,0,14.61-0.45,20.03-1.19c-4.96,0.78-12.07,1.4-21.37,1.4c-18.22,0-28.08-2.36-29.73-3.74
		C186.98,70.58,187.22,70.45,187.54,70.33z M245.95,78.62v-6.23c0.18-0.08,0.34-0.16,0.49-0.24v6.09
		C246.35,78.35,246.18,78.48,245.95,78.62z M247.62,61.45c-0.81,0.68-3.59,1.59-8.36,2.34c3.93-0.66,6.82-1.49,8.26-2.41
		C247.55,61.41,247.59,61.43,247.62,61.45z M246.61,60.4v-6.64c0.21-0.1,0.41-0.2,0.59-0.3v6.48
		C247.09,60.09,246.9,60.24,246.61,60.4z M247.94,51.16v-6.64c0.21-0.1,0.41-0.2,0.59-0.3v6.48C248.43,50.84,248.23,51,247.94,51.16
		z M248.41,42.73c-1.2,1.13-7.73,2.93-19.76,3.67c10.05-0.8,17.25-2.41,18.39-4.31C247.72,42.32,248.17,42.54,248.41,42.73z
		 M245.86,41.46c-0.1,0.14-0.3,0.3-0.59,0.46V35.3c0.2-0.05,0.4-0.1,0.59-0.15V41.46z M248.83,32.68v-6.64
		c0.21-0.1,0.41-0.2,0.59-0.3v6.48C249.31,32.36,249.12,32.51,248.83,32.68z M249.3,24.25c-0.48,0.45-1.81,1.01-4,1.57
		c1.81-0.5,3.15-1.05,3.89-1.64C249.23,24.2,249.27,24.22,249.3,24.25z M248.53,22.97c-0.1,0.14-0.3,0.3-0.59,0.46V16.8
		c0.21-0.1,0.41-0.2,0.59-0.3V22.97z M250.61,14.19V7.55c0.21-0.1,0.41-0.2,0.59-0.3v6.48C251.09,13.87,250.89,14.03,250.61,14.19z
		 M251.08,5.76c-1.33,1.27-9.32,3.36-24.15,3.89c12.26-0.73,21.1-2.62,21.58-4.86C249.9,5.13,250.72,5.47,251.08,5.76z"/>
</g>
<path class="st4" d="M851.24,224.46h-198.1c-7.76,0-14.05-6.29-14.05-14.05v-52.35c0-7.76,6.29-14.05,14.05-14.05h198.1
	c7.76,0,14.05,6.29,14.05,14.05v52.35C865.29,218.16,859,224.46,851.24,224.46z"/>
<g>
	<g>
		<g>
			<path class="st1" d="M-53.91,205.05c-5.03-0.3-9.7-2.71-14.56-3.85c-4.58-1.08-9.5-1.48-14.03,0.04
				c-7.78,2.6-13.12,9.87-14.82,17.7c-2.05,9.43,0.48,18.97,4.18,27.65c1.92,4.5,4,9.05,6.59,13.2c2.23,3.56,5.1,6.94,8.91,8.86
				c3.84,1.93,8.39,2.42,12.54,1.25c2.2-0.62,4.22-1.71,6.24-2.75c1.86-0.96,4.57-2.73,6.74-2.02c1.08,0.35,2.01,1.25,2.93,1.89
				c0.95,0.65,1.93,1.27,2.95,1.82c1.95,1.06,4.06,1.92,6.26,2.25c4.51,0.68,8.27-1.16,11.71-3.92c3.43-2.74,6.9-5.69,9.6-9.18
				c2.89-3.74,4.33-8.25,5.81-12.68c1.58-4.73,3.11-9.55,4.19-14.42c0.53-2.41,0.9-4.91,0.66-7.37c-0.22-2.29-0.67-4.64-1.23-6.87
				c-1.07-4.25-3.62-8.25-6.41-11.59c-2.71-3.24-6.35-4.08-10.39-4.49c-2.44-0.25-4.92-0.5-7.38-0.25
				c-2.22,0.23-4.32,0.85-6.39,1.66c-4.01,1.58-7.95,3.8-12.38,3.78c-1.98-0.01-3.96-0.49-5.5-1.79c-1.23-1.03-3,0.73-1.77,1.77
				c2.9,2.43,6.59,2.85,10.22,2.25c4.13-0.68,7.78-2.87,11.7-4.21c4.22-1.44,8.59-1.16,12.94-0.56c1.81,0.25,3.7,0.65,5.24,1.69
				c1.68,1.13,2.92,3.07,4.01,4.73c1.16,1.76,2.33,3.62,3.07,5.6c0.75,2.03,1.09,4.19,1.46,6.31c0.83,4.85-0.33,9.3-1.65,13.95
				c-1.29,4.57-2.72,9.1-4.35,13.56c-1.54,4.23-3.73,7.7-6.97,10.83c-1.5,1.45-3.09,2.81-4.68,4.17c-1.57,1.34-3.19,2.67-5.05,3.6
				c-4.02,2.01-8.34,0.79-12.04-1.33c-1.82-1.04-3.45-2.61-5.37-3.43c-1.96-0.84-4.04-0.29-5.92,0.49
				c-4.02,1.67-7.61,4.37-12.1,4.59c-4.22,0.21-8.22-1.34-11.28-4.23c-3.14-2.97-5.24-6.83-7.14-10.65c-4.09-8.23-8-17.01-8.2-26.36
				c-0.17-8.02,2.7-16.42,9.6-21.05c7.97-5.35,17.01-2.12,25.31,0.49c2.2,0.69,4.42,1.22,6.73,1.35
				C-52.3,207.65-52.31,205.15-53.91,205.05L-53.91,205.05z"/>
		</g>
	</g>
	<g>
		<g>
			<path class="st1" d="M-53.94,205.66c0.2-4.84-0.96-9.7-3.37-13.91c-2.17-3.8-6.3-8.05-11.12-6.1c-0.63,0.25-1.06,0.83-0.87,1.54
				c0.16,0.6,0.91,1.12,1.54,0.87c4.08-1.64,7.14,2.7,8.76,5.8c1.89,3.63,2.74,7.72,2.57,11.8
				C-56.51,207.27-54.01,207.26-53.94,205.66L-53.94,205.66z"/>
		</g>
	</g>
	<g>
		<g>
			<path class="st1" d="M-51.86,205.58c0.58-3.23,1.35-6.43,2.35-9.56c0.95-2.98,1.98-6.08,3.97-8.55
				c3.36-4.19,8.57-6.47,13.48-8.26c-0.53-0.4-1.05-0.8-1.58-1.21c0.6,5.35,1.28,10.89-2.19,15.46
				c-4.18,5.48-11.01,8.73-17.01,11.77c-1.44,0.73-0.17,2.89,1.26,2.16c6.41-3.25,13.52-6.77,17.92-12.68
				c3.69-4.97,3.17-10.89,2.52-16.7c-0.08-0.73-0.74-1.51-1.58-1.21c-5.33,1.94-10.91,4.41-14.58,8.91
				c-2.1,2.57-3.29,5.65-4.32,8.76c-1.13,3.42-2,6.91-2.64,10.45C-54.55,206.49-52.14,207.16-51.86,205.58L-51.86,205.58z"/>
		</g>
	</g>
</g>
<g>
	<text transform="matrix(1 0 0 1 720.1889 193.4313)" class="st1" style="font-family:'Allisya'; font-size:32.8171px;">food</text>
</g>
<g class="st2">
	<g>
		<g>
			<path d="M-103.02,56.07c0.43-1.15,1.29-5.9,1.29-5.9c-3.55-6.49-8.9-10.94-8.9-10.94l-2.41,8.04l-2.52-0.76
				c0.87-3.25,2.63-10.58,2.63-10.58c-5.38,4.72-13.08,7.17-13.64,7.86c-0.56,0.69-1.83,3.68-1.89,4.51
				c-0.06,0.83,1.61,4.07,1.49,6.14c-0.11,2.07,0.56,15.67,1.17,19.86c0.61,4.19-3.45,11.12-3.45,11.12l-1.55-0.41l1.59-12.99
				c0,0,0.42-15.13-0.08-17.08c-0.49-1.95-2.37-7.02-2.37-7.02c1.12-2.99,2.53-5.42,3.32-6.68c0.38-0.6,0.62-0.94,0.62-0.94
				c9.75-3,15.21-9.16,15.21-9.16c0.74-5.26,0.74-10.47,0.7-12.83c-0.02-1.01,0.32-2,0.97-2.78c0.99-1.2,2.09-1.87,3.03-2.21
				c1.32-0.47,2.33-0.27,2.35,0.07c0.04,0.55-0.95,3.22-1.34,4.24c-0.09,0.25-0.15,0.51-0.15,0.78c-0.07,3.58-1.24,10.86-1.24,10.86
				c8.9,2.5,14.32-2.99,14.32-2.99l1,1.5c-0.21,0.25-0.42,0.5-0.62,0.73c-7.24,8.09-15.13,4.53-15.13,4.53l-0.16,0.98l-0.41,2.45
				c7.74,6.4,10.49,13.34,10.49,13.34l-1.59,6.74L-103.02,56.07z"/>
		</g>
		<g class="st5">
			<path d="M-111.13,32.38c-6,5.64-16.6,8.97-16.6,8.97s-0.23-0.05-0.59-0.13c0.38-0.6,0.62-0.94,0.62-0.94
				c9.75-3,15.21-9.16,15.21-9.16c0.74-5.26,0.74-10.47,0.7-12.83c-0.02-1.01,0.32-2,0.97-2.78c0.99-1.2,2.09-1.87,3.03-2.21
				c0.25,0.23,0.34,0.45,0.09,0.6c-0.81,0.49-2.25,1.83-2.13,4.38c0.09,2.12-0.41,10.03-0.58,12.63
				C-110.47,31.48-110.72,32-111.13,32.38z"/>
		</g>
		<g class="st6">
			<path d="M-93.49,28.52c-7.24,8.09-15.13,4.53-15.13,4.53l-0.16,0.98l-0.82-0.51l0.29-1.58c0.1-0.56,0.69-0.89,1.22-0.69
				c1.81,0.69,5.99,1.55,11.97-1.64C-95.02,29-94.15,28.66-93.49,28.52z"/>
		</g>
		<g>
			<path d="M-129.25,86.32c-0.08,0-0.16-0.01-0.24-0.03l-1.55-0.41c-0.44-0.12-0.72-0.54-0.67-0.99l1.58-12.94
				c0.16-5.8,0.29-15.46-0.05-16.78c-0.48-1.88-2.32-6.88-2.34-6.93c-0.08-0.2-0.08-0.43,0-0.63c1.68-4.47,3.96-7.69,4.06-7.83
				c0.12-0.16,0.28-0.28,0.47-0.34c8.44-2.6,13.6-7.65,14.61-8.7c0.67-5.01,0.7-9.91,0.65-12.41c-0.02-1.24,0.39-2.44,1.18-3.38
				c2.11-2.53,4.81-3.09,6.06-2.68c0.56,0.18,0.9,0.59,0.93,1.08c0.01,0.24,0.05,0.8-1.4,4.62c-0.06,0.16-0.09,0.32-0.1,0.47
				c-0.06,2.93-0.82,8.14-1.13,10.16c7.83,1.81,12.61-2.9,12.65-2.95c0.19-0.19,0.47-0.29,0.73-0.27c0.27,0.03,0.52,0.17,0.67,0.4
				l1,1.5c0.22,0.33,0.2,0.77-0.05,1.08c-6.16,7.52-13.1,6.59-15.73,5.88l-0.31,1.87c7.53,6.37,10.25,13.08,10.36,13.37
				c0.07,0.17,0.08,0.36,0.04,0.54l-1.6,6.74c-0.11,0.47-0.57,0.77-1.04,0.69l-2.72-0.48c-0.27-0.05-0.5-0.21-0.63-0.45
				c-0.13-0.24-0.16-0.52-0.06-0.77c0.31-0.81,0.91-3.94,1.19-5.43c-2.48-4.42-5.82-7.87-7.49-9.46l-1.99,6.66
				c-0.07,0.23-0.23,0.43-0.44,0.54c-0.21,0.11-0.46,0.14-0.69,0.07l-2.52-0.76c-0.47-0.14-0.74-0.63-0.62-1.11
				c0.53-1.99,1.41-5.56,2-7.99c-3.4,2.45-7.15,4.13-9.55,5.21c-0.82,0.37-1.67,0.75-1.91,0.91c-0.48,0.65-1.61,3.33-1.65,3.95
				c0.01,0.19,0.27,0.95,0.47,1.51c0.49,1.42,1.11,3.18,1.03,4.62c-0.11,1.95,0.55,15.47,1.17,19.68
				c0.65,4.46-3.39,11.42-3.57,11.71C-128.63,86.16-128.93,86.32-129.25,86.32z M-129.79,84.32l0.1,0.03c0.93-1.73,3.46-6.78,3-9.92
				c-0.61-4.16-1.31-17.74-1.18-20.04c0.06-1.08-0.51-2.72-0.93-3.92c-0.39-1.13-0.6-1.75-0.56-2.24c0.08-1.06,1.46-4.24,2.09-5.01
				c0.29-0.36,0.84-0.62,2.54-1.38c2.83-1.27,7.55-3.39,11.2-6.59c0.3-0.26,0.73-0.3,1.07-0.1c0.34,0.2,0.51,0.61,0.41,0.99
				c-0.02,0.07-1.5,6.25-2.41,9.75l0.81,0.24l2.14-7.16c0.09-0.29,0.32-0.52,0.61-0.61c0.29-0.09,0.61-0.02,0.84,0.17
				c0.22,0.19,5.52,4.64,9.11,11.2c0.1,0.18,0.13,0.39,0.1,0.6c-0.07,0.4-0.59,3.28-1.03,5.02l0.88,0.15l1.33-5.62
				c-0.58-1.29-3.49-7.24-10.12-12.72c-0.25-0.21-0.37-0.53-0.32-0.85l0.58-3.42c0.05-0.28,0.22-0.52,0.47-0.65
				c0.25-0.13,0.55-0.14,0.8-0.03c0.31,0.14,7.52,3.22,14.24-4.49l-0.05-0.07c-1.91,1.49-7.01,4.57-14.38,2.5
				c-0.45-0.12-0.73-0.56-0.65-1.02c0.01-0.07,1.16-7.25,1.23-10.73c0.01-0.36,0.08-0.73,0.21-1.08c0.6-1.58,0.98-2.72,1.16-3.36
				c-0.77,0.05-2.28,0.5-3.65,2.15c-0.5,0.6-0.77,1.38-0.76,2.18c0.05,2.6,0.03,7.74-0.7,12.98c-0.02,0.18-0.1,0.34-0.22,0.48
				c-0.23,0.26-5.62,6.26-15.31,9.33c-0.53,0.8-2.23,3.44-3.55,6.85c0.42,1.16,1.85,5.09,2.28,6.79c0.51,2.02,0.15,15.77,0.1,17.33
				c0,0.03,0,0.06-0.01,0.08L-129.79,84.32z M-125.93,44.42L-125.93,44.42L-125.93,44.42z"/>
		</g>
	</g>
	<g>
		<g>
			<g>
				<circle cx="-102.79" cy="64.94" r="10.15"/>
			</g>
			<g>
				<path d="M-94.26,65.59c-1.45,5.41-7.02,8.63-12.43,7.18c-2.13-0.57-3.91-1.77-5.21-3.35c-0.7-1.41-1.07-2.99-1.05-4.62
					c1.23,1.84,3.09,3.26,5.39,3.88c5.04,1.35,10.22-1.64,11.57-6.68c0.41-1.53,0.41-3.07,0.09-4.51c0.33,0.31,0.65,0.64,0.93,0.99
					c0.01,0.01,0.01,0.01,0.01,0.01C-93.91,60.62-93.6,63.12-94.26,65.59z"/>
			</g>
			<g class="st5">
				<path d="M-105.56,61.62c-1.66,1.1-2.81,2.78-3.76,2.65c-0.97-0.04-1.17-3.36,1.73-5.47c2.92-2.08,6.01-0.83,5.74,0.1
					C-102.03,59.84-103.99,60.4-105.56,61.62z"/>
			</g>
			<g>
				<path d="M-102.8,76.12c-0.96,0-1.93-0.12-2.89-0.38c-5.95-1.6-9.5-7.74-7.9-13.69c0.77-2.88,2.62-5.29,5.21-6.79
					c2.59-1.49,5.6-1.89,8.48-1.12c2.88,0.77,5.29,2.62,6.79,5.21c1.49,2.59,1.89,5.6,1.12,8.48l0,0
					C-93.33,72.82-97.86,76.12-102.8,76.12z M-102.81,55.8c-1.58,0-3.14,0.41-4.55,1.23c-2.11,1.22-3.62,3.19-4.25,5.55
					c-1.3,4.86,1.59,9.88,6.46,11.18c4.86,1.3,9.88-1.59,11.18-6.46l0,0c0.63-2.36,0.31-4.82-0.91-6.93
					c-1.22-2.11-3.19-3.62-5.55-4.25C-101.22,55.91-102.01,55.8-102.81,55.8z"/>
			</g>
		</g>
		<g>
			<g>
				<ellipse transform="matrix(0.0266 -0.9996 0.9996 0.0266 -216.149 -50.6372)" cx="-134.08" cy="85.67" rx="7.73" ry="7.73"/>
			</g>
			<g>
				<path d="M-127.58,86.17c-1.1,4.12-5.34,6.57-9.46,5.46c-1.62-0.43-2.97-1.35-3.96-2.55c-0.53-1.07-0.81-2.27-0.8-3.51
					c0.93,1.4,2.35,2.48,4.1,2.95c3.84,1.03,7.78-1.25,8.8-5.08c0.31-1.16,0.31-2.34,0.07-3.43c0.25,0.24,0.49,0.49,0.71,0.75
					c0.01,0.01,0.01,0.01,0,0.01C-127.32,82.39-127.08,84.29-127.58,86.17z"/>
			</g>
			<g class="st5">
				<path d="M-136.18,83.14c-1.26,0.84-2.13,2.12-2.86,2.02c-0.74-0.03-0.89-2.56,1.31-4.16c2.22-1.58,4.57-0.63,4.36,0.08
					C-133.5,81.79-134.99,82.22-136.18,83.14z"/>
			</g>
			<g>
				<path d="M-134.06,94.42c-0.76,0-1.52-0.1-2.28-0.3c-2.26-0.6-4.14-2.05-5.31-4.08c-1.17-2.02-1.48-4.38-0.87-6.64
					c1.25-4.66,6.06-7.43,10.72-6.19c2.26,0.6,4.14,2.05,5.31,4.08c1.17,2.02,1.48,4.38,0.87,6.64l0,0
					c-0.6,2.26-2.05,4.14-4.08,5.31C-131.05,94.03-132.55,94.42-134.06,94.42z M-134.07,78.97c-2.96,0-5.68,1.98-6.48,4.97
					c-0.96,3.57,1.17,7.25,4.74,8.21c1.73,0.46,3.54,0.23,5.09-0.67c1.55-0.9,2.66-2.34,3.12-4.07l0,0
					c0.46-1.73,0.23-3.54-0.67-5.09c-0.9-1.55-2.34-2.66-4.07-3.12C-132.92,79.04-133.5,78.97-134.07,78.97z"/>
			</g>
		</g>
		<g>
			<g>
				<ellipse transform="matrix(0.9644 -0.2645 0.2645 0.9644 -30.8124 -30.7703)" cx="-129.65" cy="99.02" rx="7.73" ry="7.73"/>
			</g>
			<g>
				<path d="M-123.16,99.52c-1.1,4.12-5.34,6.57-9.46,5.46c-1.62-0.43-2.97-1.35-3.96-2.55c-0.53-1.07-0.81-2.27-0.8-3.51
					c0.93,1.4,2.35,2.48,4.1,2.95c3.84,1.03,7.78-1.25,8.8-5.08c0.31-1.16,0.31-2.34,0.07-3.43c0.25,0.24,0.49,0.49,0.71,0.75
					c0.01,0.01,0.01,0.01,0,0.01C-122.89,95.73-122.66,97.64-123.16,99.52z"/>
			</g>
			<g class="st5">
				<path d="M-131.76,96.49c-1.26,0.84-2.13,2.12-2.86,2.02c-0.74-0.03-0.89-2.56,1.31-4.16c2.22-1.58,4.57-0.63,4.36,0.08
					C-129.07,95.14-130.57,95.56-131.76,96.49z"/>
			</g>
			<g>
				<path d="M-129.64,107.77c-0.76,0-1.52-0.1-2.28-0.3c-2.26-0.6-4.14-2.05-5.31-4.08s-1.48-4.38-0.87-6.64
					c0.6-2.26,2.05-4.14,4.08-5.31c2.02-1.17,4.38-1.48,6.64-0.87c4.66,1.25,7.43,6.06,6.19,10.72l0,0
					c-0.6,2.26-2.05,4.14-4.08,5.31C-126.63,107.37-128.12,107.77-129.64,107.77z M-129.65,92.32c-2.96,0-5.67,1.98-6.48,4.97
					c-0.46,1.73-0.23,3.54,0.67,5.09c0.9,1.55,2.34,2.66,4.07,3.12c1.73,0.46,3.54,0.23,5.09-0.67c1.55-0.9,2.66-2.34,3.12-4.07l0,0
					c0.96-3.57-1.17-7.25-4.74-8.21C-128.5,92.39-129.08,92.32-129.65,92.32z M-122.19,101.02L-122.19,101.02L-122.19,101.02z"/>
			</g>
		</g>
		<g>
			<g>
				<ellipse transform="matrix(0.6375 -0.7704 0.7704 0.6375 -101.5269 -53.322)" cx="-107.43" cy="81.23" rx="8.29" ry="8.29"/>
			</g>
			<g>
				<path d="M-100.47,81.76c-1.18,4.42-5.73,7.04-10.15,5.86c-1.73-0.46-3.19-1.45-4.25-2.73c-0.57-1.15-0.87-2.44-0.85-3.77
					c1,1.5,2.52,2.66,4.4,3.17c4.11,1.1,8.34-1.34,9.44-5.45c0.33-1.25,0.34-2.51,0.07-3.68c0.27,0.25,0.53,0.52,0.76,0.81
					c0.01,0.01,0.01,0.01,0.01,0.01C-100.18,77.71-99.93,79.75-100.47,81.76z"/>
			</g>
			<g class="st5">
				<path d="M-109.69,78.52c-1.35,0.9-2.29,2.27-3.06,2.16c-0.79-0.03-0.96-2.74,1.41-4.46c2.38-1.69,4.9-0.68,4.68,0.08
					C-106.81,77.07-108.41,77.52-109.69,78.52z"/>
			</g>
			<g>
				<path d="M-107.43,90.62c-0.8,0-1.62-0.1-2.43-0.32c-2.42-0.65-4.44-2.2-5.7-4.37c-1.25-2.17-1.59-4.7-0.94-7.12
					c1.34-5,6.5-7.97,11.49-6.64c5,1.34,7.97,6.5,6.64,11.49c0,0,0,0,0,0C-99.49,87.85-103.29,90.62-107.43,90.62z M-107.44,74.04
					c-1.25,0-2.48,0.33-3.58,0.97c-1.66,0.96-2.85,2.51-3.35,4.37c-0.5,1.86-0.24,3.79,0.72,5.46c0.96,1.66,2.51,2.85,4.37,3.35
					c3.83,1.03,7.78-1.26,8.81-5.08l0,0c1.03-3.83-1.25-7.78-5.08-8.81C-106.19,74.12-106.82,74.04-107.44,74.04z M-99.42,83.38
					L-99.42,83.38L-99.42,83.38z"/>
			</g>
		</g>
		<g>
			<g>
				<circle cx="-117.68" cy="69.03" r="10.82"/>
			</g>
			<g>
				<path d="M-108.59,69.73c-1.55,5.77-7.48,9.19-13.24,7.65c-2.26-0.61-4.16-1.89-5.55-3.57c-0.74-1.5-1.14-3.18-1.11-4.92
					c1.31,1.96,3.3,3.48,5.75,4.13c5.37,1.44,10.89-1.75,12.33-7.12c0.44-1.63,0.44-3.27,0.09-4.81c0.35,0.33,0.69,0.68,0.99,1.05
					c0.01,0.01,0.01,0.01,0.01,0.01C-108.21,64.43-107.88,67.1-108.59,69.73z"/>
			</g>
			<g class="st5">
				<path d="M-120.62,65.49c-1.77,1.17-2.99,2.96-4,2.82c-1.04-0.04-1.25-3.58,1.84-5.83c3.11-2.21,6.4-0.89,6.11,0.11
					C-116.86,63.6-118.95,64.19-120.62,65.49z"/>
			</g>
			<g>
				<path d="M-117.68,80.87c-1.01,0-2.04-0.13-3.06-0.4c-6.31-1.69-10.06-8.2-8.37-14.5c1.69-6.31,8.2-10.06,14.5-8.37
					c3.05,0.82,5.61,2.78,7.19,5.52c1.58,2.74,2,5.93,1.18,8.98C-107.66,77.38-112.45,80.87-117.68,80.87z M-117.67,59.24
					c-4.32,0-8.29,2.89-9.46,7.26c-1.4,5.22,1.71,10.6,6.93,12c5.22,1.4,10.6-1.71,12-6.93l0,0c0.68-2.53,0.33-5.17-0.98-7.43
					c-1.31-2.27-3.42-3.89-5.95-4.56C-115.99,59.34-116.84,59.24-117.67,59.24z"/>
			</g>
		</g>
		<g>
			<g>
				<ellipse transform="matrix(0.7437 -0.6685 0.6685 0.7437 -80.3885 -71.5681)" cx="-133.54" cy="69.06" rx="10.15" ry="10.15"/>
			</g>
			<g>
				<path d="M-125,69.71c-1.45,5.41-7.02,8.63-12.43,7.18c-2.13-0.57-3.91-1.77-5.21-3.35c-0.7-1.41-1.07-2.99-1.05-4.62
					c1.23,1.84,3.09,3.26,5.39,3.88c5.04,1.35,10.22-1.64,11.57-6.68c0.41-1.53,0.41-3.07,0.09-4.51c0.33,0.31,0.65,0.64,0.93,0.99
					c0.01,0.01,0.01,0.01,0.01,0.01C-124.65,64.74-124.34,67.24-125,69.71z"/>
			</g>
			<g class="st5">
				<path d="M-136.3,65.74c-1.66,1.1-2.81,2.78-3.76,2.65c-0.97-0.04-1.17-3.36,1.73-5.47c2.92-2.08,6.01-0.83,5.74,0.1
					C-132.77,63.96-134.73,64.52-136.3,65.74z"/>
			</g>
			<g>
				<path d="M-133.54,80.24c-0.96,0-1.93-0.12-2.89-0.38c-2.88-0.77-5.29-2.62-6.79-5.21c-1.49-2.59-1.89-5.6-1.12-8.48
					c0.77-2.88,2.62-5.29,5.21-6.79c2.59-1.49,5.6-1.89,8.48-1.12c5.95,1.6,9.5,7.74,7.9,13.69l0,0
					C-124.07,76.94-128.6,80.24-133.54,80.24z M-133.55,59.92c-1.58,0-3.14,0.42-4.55,1.23c-2.11,1.22-3.62,3.19-4.25,5.55
					c-0.63,2.36-0.31,4.82,0.91,6.93c1.22,2.11,3.19,3.62,5.55,4.25c2.35,0.63,4.82,0.31,6.93-0.91c2.11-1.22,3.62-3.19,4.25-5.55
					c1.3-4.86-1.59-9.88-6.46-11.18C-131.96,60.03-132.76,59.92-133.55,59.92z M-123.73,71.69L-123.73,71.69L-123.73,71.69z"/>
			</g>
		</g>
		<g>
			<g>
				<circle cx="-137.44" cy="52.75" r="10.15"/>
			</g>
			<g>
				<path d="M-128.91,53.4c-1.45,5.41-7.02,8.63-12.43,7.18c-2.13-0.57-3.91-1.77-5.21-3.35c-0.7-1.41-1.07-2.99-1.05-4.62
					c1.23,1.84,3.09,3.26,5.39,3.88c5.04,1.35,10.22-1.64,11.57-6.68c0.41-1.53,0.41-3.07,0.09-4.51c0.33,0.31,0.65,0.64,0.93,0.99
					c0.01,0.01,0.01,0.01,0.01,0.01C-128.56,48.43-128.25,50.93-128.91,53.4z"/>
			</g>
			<g class="st5">
				<path d="M-140.21,49.43c-1.66,1.1-2.81,2.78-3.76,2.65c-0.97-0.04-1.17-3.36,1.73-5.47c2.92-2.08,6.01-0.83,5.74,0.1
					C-136.68,47.65-138.64,48.2-140.21,49.43z"/>
			</g>
			<g>
				<path d="M-137.44,63.93c-0.96,0-1.93-0.12-2.89-0.38c-5.95-1.6-9.5-7.74-7.9-13.69c1.6-5.95,7.74-9.5,13.69-7.9
					c2.88,0.77,5.29,2.62,6.79,5.21c1.49,2.59,1.89,5.6,1.12,8.48C-127.98,60.63-132.51,63.93-137.44,63.93z M-137.44,43.61
					c-4.03,0-7.73,2.69-8.82,6.77c-1.3,4.86,1.59,9.88,6.46,11.18c4.87,1.3,9.88-1.59,11.18-6.46l0,0c0.63-2.36,0.31-4.82-0.91-6.93
					c-1.22-2.11-3.19-3.62-5.55-4.25C-135.87,43.72-136.66,43.61-137.44,43.61z"/>
			</g>
		</g>
		<g>
			<g>
				<ellipse transform="matrix(0.6375 -0.7704 0.7704 0.6375 -111.3593 -60.6071)" cx="-120.09" cy="88.04" rx="8.29" ry="8.29"/>
			</g>
			<g>
				<path d="M-113.12,88.57c-1.18,4.42-5.73,7.04-10.15,5.86c-1.73-0.46-3.19-1.45-4.25-2.73c-0.57-1.15-0.87-2.44-0.85-3.77
					c1,1.5,2.52,2.66,4.4,3.17c4.11,1.1,8.34-1.34,9.44-5.45c0.33-1.25,0.34-2.51,0.07-3.68c0.27,0.25,0.53,0.52,0.76,0.81
					c0.01,0.01,0.01,0.01,0.01,0.01C-112.84,84.52-112.58,86.56-113.12,88.57z"/>
			</g>
			<g class="st5">
				<path d="M-122.34,85.33c-1.35,0.9-2.29,2.27-3.06,2.16c-0.79-0.03-0.96-2.74,1.41-4.46c2.38-1.69,4.9-0.68,4.68,0.08
					C-119.46,83.88-121.06,84.33-122.34,85.33z"/>
			</g>
			<g>
				<path d="M-120.07,97.43c-0.82,0-1.64-0.11-2.44-0.32c-5-1.34-7.97-6.49-6.64-11.49c0.65-2.42,2.2-4.44,4.37-5.7
					c2.17-1.25,4.7-1.59,7.12-0.94c2.42,0.65,4.44,2.2,5.7,4.37c1.25,2.17,1.59,4.7,0.94,7.12c0,0,0,0,0,0
					c-0.65,2.42-2.2,4.44-4.37,5.7C-116.84,97-118.45,97.43-120.07,97.43z M-120.1,80.85c-1.25,0-2.48,0.33-3.58,0.97
					c-1.66,0.96-2.85,2.51-3.35,4.37c-0.5,1.85-0.24,3.79,0.72,5.46c0.96,1.66,2.51,2.85,4.37,3.35c1.85,0.5,3.79,0.24,5.46-0.72
					c1.66-0.96,2.85-2.51,3.35-4.37c0.5-1.85,0.24-3.79-0.72-5.46c-0.96-1.66-2.51-2.85-4.37-3.35
					C-118.85,80.93-119.47,80.85-120.1,80.85z M-112.08,90.18L-112.08,90.18L-112.08,90.18z"/>
			</g>
		</g>
		<g>
			<g>
				<ellipse transform="matrix(0.8538 -0.5207 0.5207 0.8538 -43.4645 -53.4369)" cx="-116.86" cy="50.66" rx="10.15" ry="10.15"/>
			</g>
			<g>
				<path d="M-108.67,53.13c-2.58,4.98-8.71,6.92-13.69,4.34c-1.95-1.01-3.44-2.57-4.37-4.39c-0.38-1.53-0.4-3.15-0.03-4.73
					c0.8,2.06,2.32,3.85,4.44,4.95c4.63,2.4,10.34,0.59,12.74-4.04c0.73-1.4,1.06-2.91,1.06-4.39c0.26,0.37,0.5,0.76,0.7,1.17
					c0.01,0.01,0.01,0.01,0,0.01C-107.26,48.35-107.49,50.86-108.67,53.13z"/>
			</g>
			<g class="st5">
				<path d="M-118.85,46.82c-1.85,0.72-3.34,2.11-4.24,1.78c-0.94-0.25-0.42-3.54,2.86-4.97c3.3-1.4,6.05,0.48,5.58,1.33
					C-115.02,45.84-117.05,45.96-118.85,46.82z"/>
			</g>
			<g>
				<path d="M-116.88,61.83c-1.73,0-3.49-0.4-5.13-1.25c-5.47-2.84-7.62-9.6-4.78-15.07c1.37-2.65,3.7-4.61,6.54-5.51
					c2.85-0.9,5.87-0.64,8.52,0.73c5.47,2.84,7.62,9.6,4.78,15.07l0,0C-108.92,59.63-112.83,61.83-116.88,61.83z M-116.85,41.52
					c-0.93,0-1.86,0.14-2.77,0.43c-2.32,0.74-4.22,2.34-5.35,4.5c-2.32,4.47-0.57,9.99,3.9,12.31c4.47,2.32,9.99,0.57,12.31-3.9l0,0
					c2.32-4.47,0.57-9.99-3.9-12.31C-113.98,41.87-115.41,41.52-116.85,41.52z M-107.85,55.33L-107.85,55.33L-107.85,55.33z"/>
			</g>
		</g>
	</g>
	<g>
		<g>
			<path d="M-74.2,29.97c-2.45,1.63-5.42,1.78-5.42,1.78s0.77,1.31-1.27,1.41c-2.05,0.1-5.15-0.42-5.15-0.42s0.11,0.11,0.3,0.29
				c0,0,0,0,0.01,0c0.76,0.74,2.73,2.75,3.96,4.78c1.56,2.55,0.14,2.42-0.66,1.99c0,0,1.28,2.89,1.22,4.91
				c-0.01,0.11-0.01,0.22-0.03,0.32c-0.21,1.67-1.64,1.32-1.64,1.32s-0.77,1.26-3.3-0.79c-2.54-2.05-3.15-2.95-3.15-2.95
				s-0.38,1.66-2.42-1.14c-1.18-1.63-1.66-2.7-1.86-3.31c-0.14-0.44-0.13-0.64-0.13-0.64s-1.03,3.47-1.72,1.94
				c0,0-0.72,1.06-1.5,1.92c-0.63,0.69-1.3,1.26-1.68,1.06c-0.85-0.45-0.63-1.06-0.63-1.06s-1.14,0.54-1.11-0.72
				c0.02-1.27,0.57-2.99,0.57-2.99s-1.3,0.36-0.69-1.76c0.61-2.12,3.27-6.18,3.27-6.18s-0.09-0.04-0.24-0.12
				c-1.35-0.68-7.73-4.03-6.12-5.42c0,0-2.2-2.76-2.02-3.16c0.19-0.39,0.81-0.42,0.81-0.42s-0.26-1.49,0.91-1.48
				c1.17,0.01,3.46,1.38,3.46,1.38s-0.16-0.95,0.58-0.76c0.71,0.17,1.92,1.79,1.99,1.89c-0.02-0.12-0.73-3.94-0.4-5.55
				c0.34-1.63,0.91-2.17,1.42-1.17c0,0,1.48-5.46,2.64-6.55c1.16-1.09,1.58,0.11,1.58,0.11s0.71-0.96,1.52-0.12
				c0.81,0.84,1.44,3.11,1.63,5.15c0,0,0.71-1.19,1.36-0.3c0.65,0.89-0.39,5.7-1.06,8.64c0,0,3.96-3.28,5.1-3.41
				c1.14-0.13,0.84,0.9,0.84,0.9s4.06-1.52,6.07-1.37c2,0.15,2.05,0.98,1.21,1.92c0,0,4.05,0.15,6.83,1.8
				c0.15,0.09,0.3,0.18,0.44,0.28c0,0-0.85,3.31-4.92,5.73C-73.62,27.71-71.74,28.34-74.2,29.97z"/>
		</g>
		<g class="st7">
			<path d="M-86.37,23.53c1.25-1.08,3.81-2.7,7.75-2.38c0.43,0.03,0.52,0.63,0.12,0.78c-1.75,0.67-4.83,1.77-7.53,2.3
				C-86.44,24.31-86.68,23.8-86.37,23.53z"/>
		</g>
		<g class="st7">
			<path d="M-94.51,16.15c-0.22-1.06-0.33-3.05,1.12-5.21c0.16-0.23,0.53-0.1,0.49,0.18c-0.17,1.22-0.53,3.34-1.09,5.06
				C-94.08,16.44-94.45,16.41-94.51,16.15z"/>
		</g>
		<g class="st6">
			<path d="M-104.82,19.97c0,0,1.7,3.08,3.32,3.7c1.62,0.62,1.18,2.8,3.16,3.55c1.98,0.75,3.28-1.11,3.28-1.11l-1.66,3.58
				l-5.39-2.85c0,0-1.54-1.07-1.48-1.41c0.06-0.33-0.37-2.37-0.37-2.37l-1.24-1.66L-104.82,19.97z"/>
		</g>
		<g class="st6">
			<path d="M-97.84,34.61c-0.64,1.4,0.49,1.25-0.05,2.95c-0.53,1.67-1.4,4.49,0.92,3.82c-0.63,0.69-1.3,1.26-1.68,1.06
				c-0.85-0.45-0.63-1.06-0.63-1.06s-1.14,0.54-1.11-0.72c0.02-1.27,0.57-2.99,0.57-2.99s-1.3,0.36-0.69-1.76
				c0.61-2.12,3.27-6.18,3.27-6.18s-0.09-0.04-0.24-0.12l12.5-3.1c-0.23,0.08-7.74,2.81-8.35,3.25c-0.62,0.45,2.71,3.6,3.94,6.03
				c0,0-4.88-4.41-5.69-4.31C-95.89,31.56-97.2,33.22-97.84,34.61z"/>
		</g>
		<g class="st6">
			<path d="M-82.88,46.36c0,0-0.77,1.26-3.3-0.79c-2.54-2.05-3.15-2.95-3.15-2.95s-0.38,1.66-2.42-1.14
				c-1.18-1.63-1.66-2.7-1.86-3.31c0.01-0.3,0.04-0.57,0.1-0.8c0,0,0.26-1.55,0.92-1.64c0.67-0.08,1.44,2.8,2.55,3.72
				c1.11,0.91,0.75-0.58,1.96,0.24c1.2,0.83,2.2,6.49,6.66,5.39c0.06-0.02,0.12-0.03,0.18-0.05C-81.45,46.7-82.88,46.36-82.88,46.36
				z"/>
		</g>
		<g class="st6">
			<path d="M-74.2,29.97c-2.45,1.63-5.42,1.78-5.42,1.78s0.77,1.31-1.27,1.41c-2.05,0.1-5.15-0.42-5.15-0.42s0.11,0.11,0.3,0.29
				c-0.27-0.11-1.51-0.66-1.98-2.02c-0.16-0.47,0.22-0.96,0.72-0.91c1.48,0.14,4.32,0.39,4.68,0.29c0.5-0.14-0.88-1.25,0.4-1.18
				c1.28,0.08,5.58,0.45,5.27-0.89c-0.31-1.35-0.66-1.4,1.44-2.09c1.8-0.6,4.84-2.52,6.06-4.54c0.15,0.09,0.3,0.18,0.44,0.28
				c0,0-0.85,3.31-4.92,5.73C-73.62,27.71-71.74,28.34-74.2,29.97z"/>
		</g>
		<g>
			<g>
				<path d="M-97.36,29.29l17.51-4.18c0.05-0.01,0.08,0.07,0.02,0.09c0,0-17.3,4.97-17.3,4.97C-97.71,30.33-97.95,29.44-97.36,29.29
					L-97.36,29.29z"/>
			</g>
			<g>
				<path d="M-86.43,26.73c1.79,0.7,3.74,1.2,5.63,1.49c-1.95-0.15-3.88-0.55-5.76-1.14C-86.8,27-86.66,26.63-86.43,26.73
					L-86.43,26.73z"/>
			</g>
			<g>
				<path d="M-92.81,28.44c0.6-1.53,1.56-3.14,2.72-4.16c-1.04,1.25-1.85,2.74-2.29,4.29C-92.45,28.88-92.92,28.74-92.81,28.44
					L-92.81,28.44z"/>
			</g>
			<g>
				<path d="M-96.98,29.48c2.65-3.8,3.95-8.43,4.23-13.02c0-0.03,0.05-0.03,0.05,0c0.1,4.68-1.26,9.43-3.92,13.3
					C-96.79,30-97.17,29.71-96.98,29.48L-96.98,29.48z"/>
			</g>
			<g>
				<path d="M-93.88,23.06c1.04-1.1,1.9-2.41,2.56-3.78c-0.56,1.45-1.32,2.8-2.3,4.02C-93.78,23.49-94.06,23.23-93.88,23.06
					L-93.88,23.06z"/>
			</g>
			<g>
				<path d="M-95.52,27.17c0.1-1.47-0.37-3.07-0.84-4.38c0.68,1.37,1.15,2.85,1.19,4.4c0,0.1-0.08,0.18-0.17,0.18
					C-95.45,27.37-95.53,27.27-95.52,27.17L-95.52,27.17z"/>
			</g>
			<g>
				<path d="M-96.44,29.53c4.13,2.23,7.5,5.84,9.55,10.05c0.01,0.02-0.03,0.05-0.04,0.02c-2.35-3.96-5.62-7.49-9.71-9.66
					C-96.91,29.82-96.71,29.39-96.44,29.53L-96.44,29.53z"/>
			</g>
			<g>
				<path d="M-90.83,33.91c1.43,0.64,2.72,1.5,3.88,2.53c-0.61-0.47-1.25-0.89-1.93-1.26c-0.67-0.37-1.37-0.7-2.08-0.95
					C-91.18,34.16-91.05,33.81-90.83,33.91L-90.83,33.91z"/>
			</g>
			<g>
				<path d="M-93.98,31.15c0.65,1.37,0.99,3.03,0.92,4.46c-0.12-1.48-0.49-3-1.23-4.28C-94.42,31.13-94.08,30.93-93.98,31.15
					L-93.98,31.15z"/>
			</g>
		</g>
		<g>
			<path d="M-83.75,47.65c-0.87,0-1.88-0.46-3.01-1.37c-1.31-1.06-2.14-1.83-2.64-2.35c-0.06,0.02-0.13,0.04-0.2,0.06
				c-1.13,0.23-2.14-0.94-2.9-1.98c-0.58-0.8-1.01-1.48-1.32-2.06c-0.52,0.76-0.98,0.79-1.17,0.8c-0.07,0.01-0.16,0-0.27-0.01
				c-2.4,3.25-3.45,2.69-3.81,2.5c-0.46-0.24-0.75-0.54-0.92-0.85c-0.2-0.03-0.41-0.09-0.61-0.22c-0.33-0.21-0.71-0.65-0.7-1.53
				c0.01-0.77,0.19-1.67,0.36-2.33c-0.06-0.04-0.12-0.09-0.17-0.15c-0.77-0.78-0.4-2.08-0.28-2.5c0.47-1.63,2-4.23,2.84-5.57
				c-2.3-1.19-5.98-3.37-6.21-5.16c-0.03-0.23-0.01-0.46,0.05-0.67c-2.14-2.76-1.94-3.19-1.74-3.61c0.17-0.36,0.44-0.58,0.72-0.72
				c0.04-0.36,0.16-0.77,0.45-1.11c0.23-0.28,0.68-0.62,1.38-0.6c0.87,0.01,2.08,0.53,2.94,0.97c0.01-0.01,0.03-0.03,0.04-0.04
				c0.19-0.18,0.61-0.45,1.26-0.29c0.16,0.04,0.32,0.11,0.49,0.21c-0.12-1.13-0.17-2.35,0-3.16c0.2-0.96,0.58-2.25,1.61-2.39
				c0.05-0.01,0.1-0.01,0.16-0.01c0.54-1.8,1.57-4.87,2.56-5.8c0.78-0.73,1.44-0.76,1.87-0.66c0.18,0.04,0.34,0.12,0.48,0.21
				c0.17-0.07,0.36-0.13,0.57-0.14c0.37-0.02,0.93,0.06,1.47,0.62c0.84,0.87,1.39,2.62,1.68,4.24c0.02,0,0.04,0,0.06,0
				c0.3-0.01,0.86,0.06,1.33,0.7c0.59,0.81,0.51,2.64-0.37,6.9c1.31-0.97,2.78-1.94,3.57-2.03c0.84-0.1,1.3,0.22,1.54,0.51
				c0.03,0.03,0.05,0.06,0.07,0.09c1.39-0.46,3.89-1.19,5.46-1.07c0.5,0.04,2.01,0.15,2.46,1.25c0.08,0.21,0.14,0.47,0.09,0.79
				c1.63,0.21,4.38,0.74,6.38,2.12c0.31,0.22,0.46,0.61,0.36,0.97c-0.04,0.14-0.84,3.15-4.35,5.64c0.06,0.13,0.1,0.28,0.13,0.44
				c0.16,1.24-1.21,2.15-1.66,2.45c-1.76,1.17-3.74,1.63-4.89,1.82c-0.03,0.17-0.08,0.34-0.17,0.51c-0.34,0.63-1.04,0.97-2.09,1.02
				c-0.84,0.04-1.82-0.01-2.72-0.1c0.85,0.94,1.83,2.14,2.58,3.36c0.37,0.61,1.36,2.23,0.46,3.19c-0.15,0.16-0.33,0.27-0.52,0.34
				c0.37,1.09,0.78,2.61,0.74,3.88c-0.04,1.19-0.53,1.81-0.93,2.11c-0.45,0.34-0.95,0.43-1.32,0.43c-0.21,0.15-0.48,0.27-0.8,0.32
				C-83.48,47.64-83.61,47.65-83.75,47.65z M-83.65,45.88C-83.66,45.88-83.66,45.88-83.65,45.88
				C-83.66,45.88-83.66,45.88-83.65,45.88z M-83.65,45.88C-83.65,45.88-83.65,45.88-83.65,45.88
				C-83.65,45.88-83.65,45.88-83.65,45.88z M-83.65,45.88C-83.65,45.88-83.65,45.88-83.65,45.88
				C-83.65,45.88-83.65,45.88-83.65,45.88z M-88.58,42.11c0,0,0.63,0.87,2.97,2.75c1.27,1.02,1.89,1.01,2.01,0.94
				c0.22-0.29,0.58-0.42,0.94-0.33c0.03,0.01,0.23,0.02,0.33-0.06c0.12-0.1,0.2-0.37,0.21-0.72c0.06-1.79-1.13-4.49-1.14-4.52
				c-0.16-0.35-0.07-0.77,0.21-1.03c0.23-0.22,0.56-0.29,0.86-0.21c-0.08-0.17-0.19-0.38-0.35-0.63c-1.47-2.41-4.09-4.85-4.12-4.88
				c-0.29-0.27-0.38-0.71-0.2-1.07c0.18-0.36,0.57-0.56,0.97-0.49c0.03,0,3.02,0.5,4.95,0.41c0.27-0.01,0.43-0.05,0.52-0.08
				c-0.13-0.27-0.13-0.61,0.02-0.87c0.15-0.27,0.43-0.45,0.73-0.47c0.03,0,2.76-0.16,4.96-1.63c0.46-0.3,0.67-0.52,0.78-0.65
				c0,0,0,0,0,0c-0.33-0.12-0.56-0.43-0.59-0.77c-0.03-0.35,0.13-0.69,0.43-0.86c2.69-1.6,3.85-3.58,4.28-4.56
				c-2.53-1.39-6.16-1.55-6.2-1.56c-0.35-0.01-0.66-0.23-0.8-0.55c-0.14-0.32-0.08-0.7,0.16-0.96c0.1-0.11,0.17-0.2,0.21-0.27
				c-0.14-0.05-0.39-0.11-0.81-0.14c-1.47-0.1-4.6,0.91-5.68,1.31c-0.32,0.12-0.69,0.05-0.94-0.19c-0.17-0.16-0.27-0.38-0.29-0.6
				c-0.77,0.32-2.82,1.81-4.45,3.15c-0.3,0.25-0.72,0.28-1.06,0.07c-0.33-0.2-0.5-0.6-0.41-0.97c1.05-4.64,1.29-6.68,1.25-7.53
				c-0.22,0.23-0.55,0.34-0.87,0.27c-0.38-0.09-0.66-0.41-0.7-0.8c-0.2-2.2-0.86-4.07-1.38-4.6c-0.02-0.02-0.04-0.04-0.05-0.05
				c-0.04,0.03-0.08,0.07-0.08,0.07c-0.2,0.27-0.53,0.41-0.87,0.36c-0.29-0.04-0.54-0.23-0.68-0.48c-0.04,0.03-0.09,0.07-0.15,0.13
				c-0.6,0.57-1.71,3.62-2.39,6.13c-0.1,0.36-0.41,0.63-0.78,0.67c-0.17,0.02-0.34-0.01-0.49-0.09c-0.04,0.14-0.09,0.32-0.13,0.54
				c-0.25,1.19,0.21,4.16,0.4,5.2c0.08,0.42-0.14,0.83-0.53,1c-0.39,0.17-0.84,0.05-1.1-0.3c-0.33-0.45-0.74-0.91-1.06-1.22
				c-0.07,0.12-0.16,0.22-0.28,0.3c-0.29,0.19-0.67,0.21-0.97,0.03c-0.86-0.51-2.36-1.24-3-1.25c-0.03,0.11-0.03,0.31-0.01,0.41
				c0.05,0.26-0.02,0.52-0.19,0.73c-0.1,0.12-0.22,0.21-0.36,0.27c0.36,0.57,1,1.45,1.58,2.17c0.28,0.35,0.26,0.85-0.03,1.17
				c0.35,0.79,3.09,2.66,6.08,4.12c0.23,0.11,0.41,0.32,0.48,0.58c0.07,0.25,0.03,0.52-0.12,0.74c-0.03,0.04-2.59,3.97-3.15,5.93
				c-0.08,0.28-0.11,0.47-0.12,0.6c0.22,0.01,0.43,0.11,0.59,0.27c0.23,0.24,0.31,0.59,0.21,0.9c0,0.02-0.45,1.45-0.52,2.56
				c0.29-0.06,0.6,0.02,0.82,0.23c0.2,0.19,0.31,0.47,0.29,0.74c0.49-0.36,1.4-1.42,2.14-2.51c0.18-0.27,0.5-0.42,0.83-0.4
				c0.09,0.01,0.17,0.03,0.25,0.06c0.18-0.36,0.38-0.87,0.52-1.35c0.13-0.44,0.57-0.71,1.02-0.64c0.45,0.08,0.78,0.48,0.76,0.93
				c0,0,0,0,0,0c0,0,0.11,1.04,1.82,3.38c0.46,0.63,0.78,0.95,0.97,1.11c0.13-0.17,0.32-0.29,0.54-0.33
				C-89.15,41.66-88.78,41.81-88.58,42.11L-88.58,42.11z M-83.59,45.8L-83.59,45.8L-83.59,45.8z M-90.22,42.41
				C-90.22,42.41-90.22,42.42-90.22,42.41C-90.22,42.42-90.22,42.41-90.22,42.41z M-98.42,41.7C-98.42,41.7-98.42,41.7-98.42,41.7
				C-98.42,41.7-98.42,41.7-98.42,41.7z M-99.75,36.98L-99.75,36.98L-99.75,36.98z"/>
		</g>
	</g>
</g>
<path class="st3" d="M851.46,224.37h-198.1c-7.76,0-14.05-6.29-14.05-14.05v-52.35c0-7.76,6.29-14.05,14.05-14.05h198.1
	c7.76,0,14.05,6.29,14.05,14.05v52.35C865.51,218.08,859.22,224.37,851.46,224.37z"/>
<path class="st8" d="M1087.15,224.46h-198.1c-7.76,0-14.05-6.29-14.05-14.05v-52.35c0-7.76,6.29-14.05,14.05-14.05h198.1
	c7.76,0,14.05,6.29,14.05,14.05v52.35C1101.2,218.16,1094.91,224.46,1087.15,224.46z"/>
<g>
	<text transform="matrix(1 0 0 1 944.3691 192.9781)" class="st1" style="font-family:'Allisya'; font-size:32.8171px;">water</text>
</g>
<g class="st2">
	<g>
		<path class="st9" d="M202.55,180.91l3.28,27.05c0,0,30.22,1.7,54.12-1.76l1.01-26.62L202.55,180.91z"/>
		<path class="st9" d="M199.36,180.39l-1-6.93c0,0,31.2-9.5,66.98-3.02l-1.46,8.68C263.88,179.12,227.14,185.44,199.36,180.39z"/>
		<path class="st9" d="M198.36,173.46c0,0,33.49,4.11,66.98-3.02C265.33,170.44,237.18,163.27,198.36,173.46z"/>
		<path class="st9" d="M204.58,172.8c0,0,28.38,1.81,55.37-2.83C259.95,169.97,232.72,166.14,204.58,172.8z"/>
		<g>
			<g>
				<polygon points="231.91,182.21 231.78,182.21 232.37,174.42 232.2,172.8 232.33,172.79 232.49,174.42 				"/>
			</g>
			<g>
				<polygon points="242.66,181.6 242.14,173.84 239.71,172.43 239.78,172.32 242.25,173.77 242.26,173.8 242.79,181.59 				"/>
			</g>
			<g>
				<polygon points="248.11,181.13 247.99,181.13 248.38,173.18 245.96,171.81 246.02,171.7 248.51,173.11 248.51,173.14 				"/>
			</g>
			<g>
				<polygon points="259.5,179.78 258.39,171.81 253.1,171.07 253.12,170.95 258.5,171.7 259.62,179.76 				"/>
			</g>
			<g>
				<polygon points="262.49,179.36 262.37,179.34 263.14,170.94 256.33,170.61 256.34,170.49 263.27,170.82 263.27,170.88 				"/>
			</g>
			<g>
				<polygon points="220.17,182.31 219.17,174.56 219.21,174.55 222.33,173.09 222.39,173.2 219.31,174.64 220.29,182.29 				"/>
			</g>
			<g>
				<polygon points="213.88,182.22 212.36,174.42 215.42,173.08 215.47,173.2 212.5,174.5 214,182.2 				"/>
			</g>
			<g>
				<polygon points="204.15,181.13 204.03,181.13 204.1,173.94 204.15,173.93 210.86,172.98 210.88,173.11 204.22,174.05 				"/>
			</g>
			<g>
				<polygon points="200.69,180.54 200.57,180.52 201.67,173.79 201.71,173.78 206.75,172.84 206.78,172.97 201.78,173.89 				"/>
			</g>
			<g>
				<rect x="232.08" y="168.19" transform="matrix(0.9953 -0.0969 0.0969 0.9953 -15.2489 23.2895)" width="0.12" height="0.88"/>
			</g>
			<g>
				<rect x="237.59" y="168.37" transform="matrix(0.6906 -0.7233 0.7233 0.6906 -48.1121 224.4071)" width="1.22" height="0.12"/>
			</g>
			<g>
				<polygon points="246.95,169.1 246.85,169.03 247.41,168.15 247.52,168.21 				"/>
			</g>
			<g>
				<rect x="226.77" y="168.47" transform="matrix(0.7905 -0.6125 0.6125 0.7905 -55.9684 174.3455)" width="0.12" height="1.02"/>
			</g>
			<g>
				<polygon points="221.63,169.89 221.56,169.07 221.69,169.06 221.75,169.88 				"/>
			</g>
			<g>
				<polygon points="218.81,170.28 217.5,169.65 217.55,169.54 218.86,170.17 				"/>
			</g>
			<g>
				<polygon points="253.12,169.44 253.1,169.32 256.32,168.68 256.35,168.8 				"/>
			</g>
		</g>
		<g class="st10">
			<path class="st9" d="M203.47,188.48c0,0,0.99-2.14,2.09-2.18c1.09-0.04,3.78,5.52,4.44,10.13s-4.78,6.47-4.78,6.47L203.47,188.48
				z"/>
			<path class="st11" d="M208.59,202.9c-1.01-1.45,1.67-3.42,2.28-3.52c0.61-0.1,3.07,2.34,3.22,3.52
				C214.25,204.08,208.93,203.39,208.59,202.9z"/>
			<path class="st9" d="M210.87,196.97c-0.31-0.6-2.67-10.05-2-11.53c0.66-1.48,11.27-3.04,14.15-1.67s2.61,13.18,0.35,15.01
				C221.11,200.61,212.1,199.36,210.87,196.97z"/>
			<path class="st9" d="M212.43,207.96c0,0,1.9-6.69,9.93-6.49c8.03,0.2,12.23,6.75,12.23,6.75S223.33,208.31,212.43,207.96z"/>
			<path class="st9" d="M222.54,200.18c0.34-0.87,2.55-2.18,3.33-2.06c0.78,0.12,2.38,2.72,1.72,3.35
				C226.92,202.09,222.34,200.7,222.54,200.18z"/>
			<path class="st9" d="M223.51,182.34c0,0,1.42,3.8,8.75,6.14c7.33,2.34,14.63-7.24,14.63-7.24S228.87,182.44,223.51,182.34z"/>
			<path class="st9" d="M203.47,181.13c0,0,0.59,2.54,2.31,3.43c1.72,0.88,8.89-2.46,8.89-2.46S204.15,181.34,203.47,181.13z"/>
			<path class="st11" d="M260.75,185.04c0,0-3.19-0.53-4.86,0c-1.67,0.53-6.12,5.78-5.72,11.08c0.41,5.3,9.85,7.8,9.85,7.8
				L260.75,185.04z"/>
			<path class="st9" d="M260.89,181.42c0,0-2.93-0.19-3.67,0.58c-0.74,0.77,3.56,2.43,3.56,2.43L260.89,181.42z"/>
			<path class="st9" d="M251.39,180.79c0,0,2.57,0.86,4.73,0.81c2.16-0.05,4.63-1.99,4.63-1.99S253.19,180.6,251.39,180.79z"/>
			<path class="st11" d="M253.45,183.88c0.13-2.08-14.65,3.86-16.27,6.23s6.5,9.08,8.13,8.66c1.64-0.42,3.77-3.31,3.98-4.18
				C249.5,193.73,253.4,184.69,253.45,183.88z"/>
			<path class="st9" d="M236.97,208.13c0,0,1.77-8.71,3.74-9.6c1.97-0.89,9.15,3.27,11.39,4.8c2.24,1.53,2.29,3.57,2.29,3.57
				S241.13,208.04,236.97,208.13z"/>
			<path class="st9" d="M246.9,199.38c-0.16-0.63,1.72-2.03,2.38-1.97c0.66,0.06,1.52,2.4,1.19,3.1
				C250.14,201.21,247.14,200.27,246.9,199.38z"/>
			<path class="st9" d="M240.71,196.9c0.3,0.5-0.83,1.99-1.27,2.18c-0.44,0.19-3.54-0.44-3.95-1.32c-0.42-0.88,0.29-3.7,0.73-3.79
				C236.66,193.89,240.37,196.33,240.71,196.9z"/>
			<path class="st11" d="M235.7,190.04c-0.14-0.45-7.12-2.6-8.76-1.98c-1.64,0.62-1.56,7.9-1.2,9.02c0.36,1.12,4.52,2.93,6.02,2.78
				C233.25,199.71,236.94,194.04,235.7,190.04z"/>
			<path class="st9" d="M231.3,204.29c2.31,1.72,5.06,2.34,5.67,1.79c0.61-0.54,1.74-5.65,1.64-6.22c-0.1-0.57-3.38-0.97-4.24-0.78
				C233.51,199.27,228.99,202.57,231.3,204.29z"/>
			<path class="st9" d="M228.4,199.38c-0.4-0.01,0.28,2.2,1.15,2.48c0.88,0.27,1.38-1.05,1.36-1.24
				C230.9,200.43,228.89,199.4,228.4,199.38z"/>
			<path class="st9" d="M218.18,200.76c-0.05-0.26-4.71-1.54-5.3-1.38c-0.58,0.16,1.54,3.43,2.03,3.52c0.49,0.09,2.4-0.54,2.77-1
				C218.05,201.43,218.29,201.35,218.18,200.76z"/>
			<path class="st9" d="M211.23,208.18c0,0,0.98-3.54-2.48-4.1c-3.46-0.56-2.92,3.88-2.92,3.88L211.23,208.18z"/>
		</g>
		<path class="st12" d="M232.43,174.42c0,0,7.03-0.37,9.77-0.62l0.53,7.79l-10.86,0.33L232.43,174.42z"/>
		<polygon class="st12" points="258.44,171.75 263.2,170.88 262.46,178.99 259.56,179.57 		"/>
		<polygon class="st12" points="209.42,191.12 224.83,195.05 225.12,190.52 209.23,189.76 		"/>
		<polygon class="st12" points="242.56,186.78 251.26,189.63 251.39,189.3 243.1,186.54 		"/>
		<path class="st12" d="M227.74,202.64l-9.33,5.49l6.71,0.05l5.39-4C230.51,204.18,228.5,203.01,227.74,202.64z"/>
		<polygon class="st12" points="219.24,174.95 212.43,174.46 214.2,182.06 220.2,182.06 		"/>
		<path class="st13" d="M260.75,182.34c0,0-31.76,1.3-43.23,4.89c-11.46,3.59-12.48,14.22-12.48,14.22l-2.49-20.55
			c0,0,32.57,3.07,58.2-1.31V182.34z"/>
		<polygon class="st12" points="252.58,172.8 250.55,180.88 253.45,180.54 255.45,172.38 		"/>
	</g>
	<path class="st14" d="M253.24,168.87l-4.34,0.19l-6.18,3.08c0,0-8.69,1.19-31.41,0.91l0.04,0.76l-1.3,0.1l-2.58,0.32l-2.56,7.02
		l-5.56-0.85l-1-6.93C198.36,173.46,230,164.88,253.24,168.87z"/>
	<polygon class="st9" points="250.17,168.74 250.55,133.66 254.39,135.59 252.58,168.87 	"/>
	<polygon class="st9" points="254.28,137.49 255.85,136.94 253.24,168.87 252.58,168.87 	"/>
	<g>
		<polygon class="st9" points="188.99,140.22 253.96,135.17 259.56,115.23 204.17,116.89 		"/>
		<polygon class="st9" points="204.21,114.07 222.61,140.2 252.55,138.09 252.12,136.94 276.25,135.17 259.22,114.25 		"/>
		<polygon class="st9" points="222.61,140.2 220.52,142.78 204.17,116.89 188.99,140.22 187.94,139.7 204.21,114.07 		"/>
		<polygon class="st9" points="220.52,142.78 252.12,139.18 252.55,138.09 222.61,140.2 		"/>
		<polygon class="st9" points="276.25,135.17 274.78,136.94 252.37,137.6 252.12,136.94 		"/>
		<polygon class="st9" points="191.17,138.92 192.49,141.1 205.28,121.35 218.18,141.1 218.91,140.12 205,118.21 		"/>
		<polygon class="st9" points="192.49,141.1 193.87,140.43 206.11,122.62 205.28,121.35 		"/>
		<polygon class="st9" points="218.18,141.1 219.47,141.1 218.91,140.12 		"/>
		<g>
			<g>
				<rect x="223.49" y="111.86" transform="matrix(0.8536 -0.521 0.521 0.8536 -33.3961 135.0798)" width="0.21" height="30.18"/>
			</g>
			<g>
				<polygon points="239.13,139.09 218.46,114.13 218.62,114 239.29,138.96 				"/>
			</g>
			<g>
				<rect x="227.33" y="125.38" transform="matrix(0.0163 -0.9999 0.9999 0.0163 95.3587 353.6742)" width="0.21" height="5.99"/>
			</g>
			<g>
				<polygon points="252.03,137 237.94,114.23 238.12,114.12 252.2,136.89 				"/>
			</g>
			<g>
				<rect x="254.98" y="110.91" transform="matrix(0.7685 -0.6398 0.6398 0.7685 -21.0173 192.1625)" width="0.21" height="28.44"/>
			</g>
			<g>
				<polygon points="269.15,135.76 250.09,114.28 250.25,114.15 269.3,135.62 				"/>
			</g>
			<g>
				<rect x="255.89" y="120.4" transform="matrix(0.9992 -0.039 0.039 0.9992 -4.4986 10.2253)" width="8.29" height="0.21"/>
			</g>
			<g>
				<rect x="239.42" y="113.01" transform="matrix(0.9103 -0.4139 0.4139 0.9103 -30.8436 110.4834)" width="0.21" height="26.8"/>
			</g>
		</g>
		<polygon class="st12" points="204.21,114.07 222.61,140.2 231.46,139.83 215.73,114.07 		"/>
		<polygon class="st12" points="255.9,120.67 269.35,135.69 276.25,135.17 264.18,120.34 		"/>
		<polygon class="st12" points="239.21,139.03 230.42,128.42 224.43,128.32 231.31,139.59 		"/>
		<polygon class="st12" points="264.18,136.06 245.99,114.2 238.03,114.18 252.12,136.94 		"/>
		<polygon class="st9" points="253.45,136.74 243.86,123.59 252.37,137.6 		"/>
		<polygon class="st9" points="232.97,114.22 240.39,128.32 233.98,114.22 		"/>
		<polygon class="st15" points="257.03,127.47 250.17,132.24 250.76,133.05 258.6,129.36 		"/>
		<polygon class="st16" points="223.6,120.51 236.28,120.51 237.9,123.59 226.42,123.59 		"/>
		<polygon class="st16" points="229.2,126.95 239.94,127.47 240.12,127.72 229.56,127.34 		"/>
	</g>
	<path class="st9" d="M209.07,151.01c0,0,5.99,6.59,1.61,12.44l40.39-3.02c0,0,3.19-6.87-1.84-9.51L209.07,151.01z"/>
	<path class="st9" d="M209.07,151.01c0,0-5.88,6.58,1.61,12.44C210.68,163.45,217.54,156.61,209.07,151.01z"/>
	<polygon class="st9" points="207,173.9 210.06,173.9 207.48,124.72 205.73,122.05 202.03,127.34 	"/>
	<polygon class="st9" points="207.48,124.72 208.93,126.95 211.35,173.8 210.06,173.9 	"/>
	<polygon class="st9" points="211.88,161.21 215.73,161.21 211.48,162.09 	"/>
	<path class="st12" d="M212.89,155.3l20.08,0.39c0,0,0.78,0.86,0.62,2.81l-19.89,0.42C213.7,158.92,213.71,155.96,212.89,155.3z"/>
	<path class="st12" d="M251.11,152.55l-34.79,1.52v1.23h35.72C252.04,155.3,252.06,153.34,251.11,152.55z"/>
	<polygon class="st9" points="251.95,157.36 249.81,156.7 252.06,156.56 	"/>
	<path class="st9" d="M206.57,156.34l-5.94,0.77l-1.33,12.77c0,0,0.19,0.69,1.64,0.29l0.52-12.11h5.41
		C206.88,158.06,207.35,156.91,206.57,156.34z"/>
	<path class="st9" d="M199.3,168.18l-7.41,0.25c0,0-1.46,1.49,0,3.95l9.22-1.06C201.11,171.32,202.72,168.44,199.3,168.18z"/>
	<path class="st9" d="M191.89,168.43c0,0,2.07,1.98,0,3.95C191.89,172.38,190.17,170.79,191.89,168.43z"/>
	<path class="st9" d="M225.13,150.92c0,0,1.49,0.78,2.69,3.75c1.2,2.96-1.68,7.63-1.68,7.63l0.75-0.06c0,0,1.56-2.52,1.99-5.01
		c0,0,0.52,2.74,0.04,4.86l12.78-0.96c0,0,2.49-6.37,0-10.12c0,0,3.94,3.21,3.37,9.87l0.91-0.07c0,0,1.14-6.89-2.47-9.89H225.13z"/>
	<path class="st9" d="M232.18,150.92c0,0,2.76,6.12-0.72,10.98C231.46,161.9,234.04,157.8,232.18,150.92z"/>
	<path class="st9" d="M238.62,150.94c0,0,3.59,2.07,2.06,10.26C240.68,161.21,241.88,154.35,238.62,150.94z"/>
	<path class="st9" d="M226.14,162.29c0,0,2.1-3.99,1.58-6.7c-0.52-2.72-2.59-4.67-2.59-4.67s2.91,1.16,3.13,4.5
		C228.48,158.76,226.14,162.29,226.14,162.29z"/>
	<g>
		<path class="st9" d="M232.29,211.37l-1.39-18.72c0,0,9.32-2.26,19.61-0.5l-1.54,18.9C248.98,211.06,241.42,213.18,232.29,211.37z"
			/>
		<path class="st9" d="M230.91,192.66c0,0,8.28,1.01,19.61-0.5C250.52,192.16,242.59,189.57,230.91,192.66z"/>
		<path class="st9" d="M233.38,192.41c0,0,9.31-1.8,15.06-0.34C248.44,192.06,240.01,193.21,233.38,192.41z"/>
		<g>
			<polygon points="235.9,211.86 234.14,192.86 235.64,192.52 235.67,192.62 234.25,192.94 236,211.85 			"/>
		</g>
		<g>
			<polygon points="239.61,212.1 239.5,212.1 239.74,193 239.51,192.73 239.6,192.66 239.84,192.97 239.84,192.99 			"/>
		</g>
		<g>
			<polygon points="244.77,211.81 244.49,192.8 243.86,192.62 243.89,192.52 244.59,192.72 244.59,192.76 244.87,211.81 			"/>
		</g>
		<g>
			<polygon points="245.73,211.7 245.63,211.69 247.09,192.57 246.6,192.32 246.65,192.23 247.2,192.51 247.2,192.55 			"/>
		</g>
		<g>
			<polygon points="248.33,211.24 248.23,211.23 250.1,192.25 248.44,192.12 248.45,192.01 250.21,192.16 250.2,192.21 			"/>
		</g>
		<path class="st12" d="M239.79,192.99l-0.23,18.71c0,0,3.3,0.39,5.26-0.2l-0.27-18.74C244.54,192.76,240.89,193.28,239.79,192.99z"
			/>
		<polygon class="st12" points="247.15,192.54 250.15,192.2 248.28,210.68 245.73,210.95 		"/>
		<polygon class="st9" points="234.63,192.92 235.09,202.64 234.19,192.9 		"/>
		<polygon class="st9" points="246.22,192.31 246.89,192.57 246.48,201.28 247.32,192.54 246.98,192.24 		"/>
		<path class="st9" d="M231.5,200.64c0,0,9.52,1.94,18.32,0.12l-0.4,4.95c0,0-8.05,1.61-17.57-0.87L231.5,200.64z"/>
		<path class="st9" d="M231.5,200.64c0,0,11.73,2.72,18.32,0.12C249.82,200.76,243.13,202.65,231.5,200.64z"/>
		<polygon class="st9" points="242.19,206.19 243.49,201.86 246.65,201.58 246.65,206.06 		"/>
		<polygon class="st13" points="233.61,205.26 232.97,200.93 232.06,200.76 232.57,205.02 		"/>
		<polygon class="st9" points="234.69,194.12 236.97,194.27 236.97,197.24 234.84,197.24 		"/>
		<path class="st9" d="M235.51,195.68c0,0,0.68-17.11,5.73-17.42c5.05-0.32,6.23,13.25,6.23,13.25l-0.57-0.37
			c0,0-0.4-11.68-5.41-11.79c-5.01-0.11-5.17,15.44-5.17,15.44S236.27,196.03,235.51,195.68z"/>
	</g>
	<path class="st9" d="M235.36,150.95c0,0,1.52-0.7,2.84-0.65c1.32,0.05,4.81,6.28,4.36,12c-0.45,5.71-9.09,8.26-8.95,9.61
		c0.14,1.34,9.45,0.16,10.74,0.9c1.29,0.73,1.81,15.29-0.47,16.34c-2.07,0.96-2.39-9.79-2.39-9.79s0.27-0.78-0.25-1.09
		c0,0,0.41-0.54,0.93-0.4c0.52,0.14,0.23,1.71,0.23,1.71s0.08,8.25,1.35,8.22c1.27-0.04,0.59-12.37-0.64-13.89
		c-0.96-1.18-5.36,0-9.81-1.11c-4.44-1.11,8.39-5.68,8.88-10.5c0.54-5.18-4.13-11.28-4.13-11.28L235.36,150.95z"/>
	<polygon class="st17" points="209.82,144.09 208.5,144.09 204.58,151.27 202.03,127.34 205.73,122.05 208.93,126.95 	"/>
	<polygon class="st17" points="255.45,141.81 254.03,142.21 250.38,148.87 250.49,139.36 252.12,139.18 252.55,138.09 252.37,137.6 
		255.9,137.39 	"/>
	<polygon class="st9" points="221.79,139.03 226,140.06 221.79,141.22 	"/>
	<polygon class="st9" points="252.95,136.06 255.9,136.66 252.81,137.25 	"/>
	<polygon class="st9" points="246.41,127.72 246.87,127.72 242.42,121.27 	"/>
</g>
<path class="st3" d="M1087.35,224.46h-198.1c-7.76,0-14.05-6.29-14.05-14.05v-52.35c0-7.76,6.29-14.05,14.05-14.05h198.1
	c7.76,0,14.05,6.29,14.05,14.05v52.35C1101.41,218.16,1095.12,224.46,1087.35,224.46z"/>
<path class="st18" d="M1322.3,224.45h-198.1c-7.76,0-14.05-6.29-14.05-14.05v-52.35c0-7.76,6.29-14.05,14.05-14.05h198.1
	c7.76,0,14.05,6.29,14.05,14.05v52.35C1336.36,218.16,1330.07,224.45,1322.3,224.45z"/>
<g>
	<text transform="matrix(1 0 0 1 1193.4141 192.8927)" class="st1" style="font-family:'Allisya'; font-size:32.8171px;">energy</text>
</g>
<g>
	<g>
		<path class="st1" d="M1143.33,170.09c-12.18,3.04-16.2,16.98-8.52,26.59c7.2,9,24.4,12.15,33.62,4.44
			c9.82-8.21,4.07-23.17-4.43-29.83c-8.81-6.9-23.8-8.23-28.7,3.85c-0.58,1.43,1.74,2.05,2.31,0.64c4.7-11.6,19.8-7.77,26.87-0.89
			c6.75,6.57,10.56,20.14,0.36,25.76c-8.14,4.49-20.89,2.32-27.19-4.32c-7.65-8.06-4.99-21.12,6.3-23.93
			C1145.47,172.03,1144.83,169.72,1143.33,170.09L1143.33,170.09z"/>
	</g>
</g>
<g>
	<g>
		<g>
			<path class="st1" d="M1167.07,162.23c-1.64,1.58-3.13,3.28-4.51,5.09c-0.49,0.65-0.1,1.68,0.54,2.05
				c0.77,0.45,1.56,0.11,2.05-0.54c1.22-1.6,2.58-3.09,4.04-4.49C1170.59,163.01,1168.46,160.9,1167.07,162.23L1167.07,162.23z"/>
		</g>
	</g>
	<g>
		<g>
			<path class="st1" d="M1172.67,180.12c3.74-0.58,7.48-1.17,11.22-1.75c1.9-0.3,1.09-3.19-0.8-2.89
				c-3.74,0.58-7.48,1.17-11.22,1.75C1169.97,177.53,1170.77,180.42,1172.67,180.12L1172.67,180.12z"/>
		</g>
	</g>
	<g>
		<g>
			<path class="st1" d="M1171.92,199.5c1.93,2.24,4.14,4.2,6.61,5.83c1.61,1.07,3.12-1.53,1.51-2.59c-2.26-1.5-4.23-3.31-6-5.36
				C1172.78,195.91,1170.67,198.04,1171.92,199.5L1171.92,199.5z"/>
		</g>
	</g>
	<g>
		<g>
			<path class="st1" d="M1155.49,206.27c0.11,1.66,0.21,3.31,0.32,4.97c0.12,1.92,3.12,1.93,3,0c-0.11-1.66-0.21-3.31-0.32-4.97
				C1158.37,204.35,1155.37,204.34,1155.49,206.27L1155.49,206.27z"/>
		</g>
	</g>
	<g>
		<g>
			<path class="st1" d="M1140.43,203.69c-1.56,1.04-2.99,2.25-4.22,3.66c-1.27,1.45,0.84,3.58,2.12,2.12
				c1.07-1.22,2.26-2.29,3.61-3.19C1143.55,205.22,1142.05,202.62,1140.43,203.69L1140.43,203.69z"/>
		</g>
	</g>
	<g>
		<g>
			<path class="st1" d="M1127.73,188.41c-1.4,1-2.96,1.67-4.68,1.85c-1.9,0.2-1.92,3.2,0,3c2.25-0.24,4.34-0.95,6.19-2.26
				C1130.81,189.89,1129.31,187.29,1127.73,188.41L1127.73,188.41z"/>
		</g>
	</g>
	<g>
		<g>
			<path class="st1" d="M1146.56,163.78c-0.37-2.08-0.74-4.17-1.11-6.25c-0.34-1.9-3.23-1.09-2.89,0.8
				c0.37,2.08,0.74,4.17,1.11,6.25C1144.01,166.48,1146.9,165.67,1146.56,163.78L1146.56,163.78z"/>
		</g>
	</g>
	<g>
		<g>
			<path class="st1" d="M1132.16,171.65c-1.93-0.6-3.87-1.2-5.8-1.79c-1.85-0.57-2.64,2.32-0.8,2.89c1.93,0.6,3.87,1.2,5.8,1.79
				C1133.21,175.12,1134,172.22,1132.16,171.65L1132.16,171.65z"/>
		</g>
	</g>
</g>
<g>
	<g>
		<path class="st1" d="M35.39,27.24c-12.51,2.87-20.89,15.19-18.13,27.9C20.44,69.78,34.7,77.87,48.7,79.06
			c13.63,1.16,28.76-3.78,31.25-18.92c2.2-13.4-6.04-26.48-17.05-33.49c-12.78-8.14-32.94-8.55-39.22,7.82
			c-0.55,1.44,1.77,2.07,2.31,0.64c7.13-18.58,31.63-11.98,42.36-0.96c10.19,10.46,15.13,31.33-0.64,39.49
			C54.66,80.4,34.79,76.9,25.23,65.7c-10.79-12.65-6.12-32.26,10.8-36.14C37.53,29.21,36.9,26.9,35.39,27.24L35.39,27.24z"/>
	</g>
</g>
<g>
	<g>
		<g>
			<path class="st1" d="M71.7,15.3c-2.44,2.34-4.66,4.86-6.7,7.55c-1.17,1.54,1.44,3.03,2.59,1.51c1.89-2.48,3.98-4.79,6.23-6.95
				C75.22,16.08,73.09,13.96,71.7,15.3L71.7,15.3z"/>
		</g>
	</g>
	<g>
		<g>
			<path class="st1" d="M79.42,41.09c5.66-0.88,11.32-1.76,16.98-2.65c1.9-0.3,1.09-3.19-0.8-2.89c-5.66,0.88-11.32,1.76-16.98,2.65
				C76.72,38.49,77.53,41.38,79.42,41.09L79.42,41.09z"/>
		</g>
	</g>
	<g>
		<g>
			<path class="st1" d="M79.05,70.61c2.88,3.35,6.16,6.27,9.85,8.71c1.61,1.07,3.12-1.53,1.51-2.59c-3.48-2.3-6.52-5.08-9.24-8.24
				C79.9,67.03,77.79,69.16,79.05,70.61L79.05,70.61z"/>
		</g>
	</g>
	<g>
		<g>
			<path class="st1" d="M54.4,81.4c0.16,2.51,0.32,5.02,0.48,7.52c0.12,1.92,3.12,1.93,3,0c-0.16-2.51-0.32-5.02-0.48-7.52
				C57.28,79.49,54.28,79.47,54.4,81.4L54.4,81.4z"/>
		</g>
	</g>
	<g>
		<g>
			<path class="st1" d="M31.23,78.16c-2.31,1.53-4.4,3.33-6.23,5.41c-1.27,1.45,0.84,3.58,2.12,2.12c1.66-1.89,3.53-3.55,5.63-4.94
				C34.35,79.69,32.84,77.09,31.23,78.16L31.23,78.16z"/>
		</g>
	</g>
	<g>
		<g>
			<path class="st1" d="M12.01,55.04c-2.24,1.59-4.73,2.62-7.47,2.91c-1.9,0.2-1.92,3.2,0,3c3.27-0.35,6.29-1.41,8.98-3.32
				C15.08,56.52,13.58,53.91,12.01,55.04L12.01,55.04z"/>
		</g>
	</g>
	<g>
		<g>
			<path class="st1" d="M39.38,17.31c-0.56-3.15-1.12-6.31-1.67-9.46c-0.34-1.9-3.23-1.09-2.89,0.8c0.56,3.15,1.12,6.31,1.67,9.46
				C36.82,20,39.71,19.2,39.38,17.31L39.38,17.31z"/>
		</g>
	</g>
	<g>
		<g>
			<path class="st1" d="M18.11,29.76c-2.93-0.9-5.85-1.81-8.78-2.71c-1.85-0.57-2.64,2.32-0.8,2.89c2.93,0.9,5.85,1.81,8.78,2.71
				C19.16,33.22,19.96,30.33,18.11,29.76L18.11,29.76z"/>
		</g>
	</g>
</g>
<g>
	<defs>
		<path id="SVGID_1_" d="M1322.3,224.46h-198.1c-7.76,0-14.05-6.29-14.05-14.05v-52.35c0-7.76,6.29-14.05,14.05-14.05h198.1
			c7.76,0,14.05,6.29,14.05,14.05v52.35C1336.35,218.16,1330.06,224.46,1322.3,224.46z"/>
	</defs>
	<clipPath id="SVGID_00000120517980027940659890000011940439563778661565_">
		<use xlink:href="#SVGID_1_"  style="overflow:visible;"/>
	</clipPath>
	<g style="opacity:0.1;clip-path:url(#SVGID_00000120517980027940659890000011940439563778661565_);">
		<path d="M1356.68,182.09c3.2-14.89-8.19-29.01-23.48-29.01c-15.06,0-26.66,13.81-23.48,29.01c2.87,13.79,16.7,22.21,16.7,26.77
			l0,5.08h13.56v-5.08C1339.98,204.3,1353.81,195.89,1356.68,182.09z"/>
		<path d="M1352.97,177.93c-0.47,0-0.85-0.38-0.85-0.85c0-10.43-8.49-18.92-18.92-18.92c-0.47,0-0.85-0.38-0.85-0.85
			c0-0.47,0.38-0.85,0.85-0.85c11.37,0,20.62,9.25,20.62,20.62C1353.82,177.55,1353.44,177.93,1352.97,177.93z"/>
		<path d="M1339.98,223.21c0,0.94-0.76,1.69-1.69,1.69h-10.17c-0.94,0-1.69-0.76-1.69-1.69v-7.86h13.56V223.21z"/>
		<path d="M1337.38,226.46c-0.22,0.71-0.88,1.2-1.62,1.2h-5.12c-0.74,0-1.4-0.49-1.62-1.2l-0.48-1.56h9.32L1337.38,226.46z"/>
		<g>
			<rect x="1326.42" y="222.39" width="13.56" height="0.72"/>
			<rect x="1326.42" y="220.23" width="13.56" height="0.72"/>
			<rect x="1326.42" y="218.07" width="13.56" height="0.72"/>
		</g>
		<rect x="1327.01" y="208.86" width="12.3" height="4.02"/>
		<rect x="1325.79" y="212.88" width="14.83" height="3.39"/>
	</g>
</g>
</svg>
