<?xml version="1.0" encoding="utf-8"?>
<!-- Generator: Adobe Illustrator 26.1.0, SVG Export Plug-In . SVG Version: 6.00 Build 0)  -->
<svg version="1.1" id="Layer_1" xmlns="http://www.w3.org/2000/svg" xmlns:xlink="http://www.w3.org/1999/xlink" x="0px" y="0px"
	 viewBox="0 0 100 100" style="enable-background:new 0 0 100 100;" xml:space="preserve">
<style type="text/css">
	.st0{fill:#384EA0;}
	.st1{fill:#FFFFFF;}
	.st2{opacity:0.1;clip-path:url(#SVGID_00000025436415924722825500000009620075979953427126_);}
	.st3{opacity:0.1;}
	.st4{fill:#70BE44;}
	.st5{opacity:0.1;clip-path:url(#SVGID_00000168812055375926271570000002744004136973114789_);}
	.st6{opacity:0.6;}
	.st7{opacity:0.15;}
	.st8{opacity:0.7;}
	.st9{fill:#2FA0DA;}
	.st10{opacity:0.1;clip-path:url(#SVGID_00000088127584654251913970000009177629263259174835_);}
	.st11{fill-rule:evenodd;clip-rule:evenodd;}
	.st12{opacity:0.45;}
	.st13{opacity:0.53;fill-rule:evenodd;clip-rule:evenodd;}
	.st14{opacity:0.2;fill-rule:evenodd;clip-rule:evenodd;}
	.st15{opacity:0.5;fill-rule:evenodd;clip-rule:evenodd;}
	.st16{opacity:0.7;fill-rule:evenodd;clip-rule:evenodd;}
	.st17{opacity:0.2;}
	.st18{opacity:0.5;}
	.st19{opacity:0.79;fill-rule:evenodd;clip-rule:evenodd;}
	.st20{fill:#F4EA30;}
	.st21{opacity:0.1;clip-path:url(#SVGID_00000008833942761973331780000002476792919423091089_);}
</style>
<path class="st0" d="M618.24,224.46h-198.1c-7.76,0-14.05-6.29-14.05-14.05v-52.35c0-7.76,6.29-14.05,14.05-14.05h198.1
	c7.76,0,14.05,6.29,14.05,14.05v52.35C632.3,218.16,626,224.46,618.24,224.46z"/>
<g>
	<g>
		<path class="st1" d="M6.39,36.02c-1.81,4.88-1.4,10.07-0.68,15.12c0.78,5.43,1.61,10.64,1.07,16.15c-0.28,2.87-0.56,5.71-0.46,8.6
			c0.1,2.89,0.45,5.76,0.87,8.61c0.21,1.46,0.44,2.91,0.68,4.36c0.19,1.11,0.4,2.25,1,3.22c1.09,1.78,3.08,2.65,5.06,3
			c2.49,0.44,5.06,0.43,7.57,0.58c2.92,0.17,5.85,0.35,8.77,0.49c5.98,0.29,11.89,0.14,17.86-0.32c5.77-0.45,11.61-1.27,17.4-0.72
			c2.8,0.27,5.59,0.75,8.4,0.8c2.75,0.05,5.49-0.35,8.18-0.87c1.23-0.24,2.46-0.56,3.7-0.72c1.2-0.15,2.41-0.21,3.61-0.41
			c1.92-0.34,3.65-1.21,4.82-2.8c2.04-2.77,1.98-6.63,1.6-9.89c-0.4-3.44-1.29-6.77-1.94-10.16c-1.1-5.69-1.02-11.45-1.39-17.22
			c-0.19-2.9-0.39-5.8-0.57-8.7c-0.15-2.46-0.11-4.89-1.14-7.18c-0.93-2.07-2.5-3.77-3.99-5.45c-1.83-2.07-3.67-4.12-5.59-6.1
			c-7.8-8.06-17.36-13.67-26.82-19.53c-2.44-1.51-4.83-3.2-7.37-4.54C44.58,1,42.57,2.7,40.47,3.95c-4.75,2.82-9.77,5.41-14.21,8.7
			c-4.32,3.19-7.5,7.59-11.24,11.39c-3.6,3.65-7.32,7.32-9.31,12.14c-0.96,2.32-1.45,4.8-1.25,7.32c0.13,1.59,2.63,1.61,2.5,0
			c-0.4-5.09,2.31-9.58,5.57-13.26c1.6-1.81,3.34-3.49,5.02-5.22c1.73-1.77,3.33-3.65,4.98-5.5c1.73-1.94,3.57-3.74,5.7-5.23
			c2.1-1.47,4.34-2.74,6.55-4.05c2.32-1.38,4.63-2.75,6.95-4.13c0.91-0.54,2.2-1.68,3.26-1.81c1.03-0.13,2.51,1.23,3.36,1.75
			c4.64,2.88,9.31,5.73,13.93,8.64c4.3,2.7,8.54,5.53,12.38,8.87c3.93,3.43,7.41,7.32,10.86,11.22c1.35,1.53,2.76,3.13,3.39,5.12
			c0.73,2.31,0.53,5,0.69,7.4c0.36,5.49,0.73,10.97,0.89,16.46c0.12,4.12,1.04,8.16,1.91,12.17c0.72,3.28,1.43,6.72,1.06,10.09
			c-0.15,1.35-0.52,2.78-1.41,3.84c-1.3,1.53-3.39,1.66-5.25,1.84c-2.42,0.23-4.77,0.85-7.17,1.24c-2.67,0.44-5.34,0.56-8.04,0.31
			c-2.56-0.23-5.1-0.63-7.67-0.79c-2.71-0.18-5.42,0.04-8.13,0.24c-5.51,0.41-11.01,0.99-16.54,1.11
			c-5.52,0.12-11.04-0.28-16.54-0.6c-2.45-0.14-4.93-0.18-7.37-0.46c-2.07-0.24-4.13-0.85-4.75-3.06c-0.69-2.47-0.91-5.19-1.24-7.73
			c-0.35-2.75-0.58-5.52-0.55-8.29c0.04-2.62,0.41-5.2,0.61-7.8c0.2-2.55,0.12-5.07-0.17-7.6c-0.55-4.87-1.71-9.69-1.67-14.61
			c0.02-2.4,0.39-4.72,1.23-6.98C9.36,35.18,6.95,34.52,6.39,36.02L6.39,36.02z"/>
	</g>
</g>
<g>
	<text transform="matrix(1 0 0 1 479.4975 193.0201)" class="st1" style="font-family:'Allisya'; font-size:32.8171px;">shelter</text>
</g>
<g>
	<defs>
		<path id="SVGID_1_" d="M618.44,224.44h-198.1c-7.76,0-14.05-6.29-14.05-14.05v-52.35c0-7.76,6.29-14.05,14.05-14.05h198.1
			c7.76,0,14.05,6.29,14.05,14.05v52.35C632.49,218.15,626.2,224.44,618.44,224.44z"/>
	</defs>
	<clipPath id="SVGID_00000163031086548335372810000005905338507918102430_">
		<use xlink:href="#SVGID_1_"  style="overflow:visible;"/>
	</clipPath>
	<g style="opacity:0.1;clip-path:url(#SVGID_00000163031086548335372810000005905338507918102430_);">
		<rect x="589.57" y="173.57" width="59.28" height="44.35"/>
		<polygon points="589.58,173.57 648.75,173.57 618.55,153.53 		"/>
		<g>
			<path d="M625.84,163.32c-1.64,1.2-3.12,2.51-4.48,3.88c-2.48,2.51-4.84,5.15-6.45,8.01c-2.38,4.24-3.7,9.01-2.7,13.58
				c1,4.6,4.23,8.86,9.46,11.63c5.36,2.84,11.56,3.83,18.11,3.87c3.18,0.02,6.18-0.31,8.97-1.36v-26.46h-0.08l-21.49-14.26
				C626.67,162.61,626.22,163.04,625.84,163.32z"/>
			<path d="M641.22,209.87c-7.49,0.41-15.49-0.26-22.26-2.72c-6.89-2.5-12.46-6.59-15.55-11.73c-3.06-5.07-3.44-10.85-2.05-16.25
				c1.47-5.73,4.81-10.92,9.25-15.75c2.44-2.66,5.17-5.02,8.08-7.41c0.48-0.4,1.03-0.87,1.64-1.31l-1.77-1.17l-28.97,20.04h-0.01
				v44.35h59.28v-9.55C646.49,209.18,643.95,209.72,641.22,209.87z"/>
		</g>
		<rect x="589.57" y="213.58" width="59.28" height="4.35"/>
		<polygon points="648.85,173.25 619.13,153.53 589.73,173.87 589.73,180.9 619.13,160.56 648.85,180.28 		"/>
		<g>
			<polygon points="619.13,157.2 653.72,180.14 660.79,177.8 619.13,150.17 579.17,177.8 585.95,180.14 			"/>
			<polygon points="582.66,178.92 619.05,153.75 656.98,178.92 660.64,177.71 619.13,150.17 579.26,177.74 			"/>
		</g>
		<g>
			<path d="M644.37,183.26h-18.36v34.66h18.36V183.26z M627.57,215.61v-30.03h15.24v30.03H627.57z"/>
			<g>
				<path d="M644.37,183.26h-18.36v34.66h18.36V183.26z M626.63,216.47v-31.76h16.82v31.76H626.63z"/>
				<rect x="627.57" y="185.58" width="15.24" height="30.03"/>
			</g>
			<path d="M630.44,203.26c0.46-4.44,1.77-9.44,4.59-12.24c1.55-1.53,3.41-2.51,5.32-2.93c0.81-0.18,1.63-0.33,2.45-0.37v-2.14
				h-15.24v30.03h4.74C630.42,212.08,630,207.46,630.44,203.26z"/>
			<path d="M641.74,200.66c0,0.82-0.62,1.48-1.39,1.48c-0.77,0-1.39-0.66-1.39-1.48c0-0.82,0.62-1.48,1.39-1.48
				C641.12,199.19,641.74,199.85,641.74,200.66z"/>
		</g>
		<g>
			<rect x="593.47" y="181.78" width="24.77" height="24.63"/>
			<rect x="595.33" y="183.63" width="21.04" height="20.92"/>
			<rect x="596.5" y="184.98" width="8.58" height="8.54"/>
			<rect x="606.63" y="184.98" width="8.58" height="8.54"/>
			<rect x="596.49" y="194.67" width="8.58" height="8.54"/>
			<rect x="606.62" y="194.67" width="8.58" height="8.54"/>
			<g>
				<polygon points="596.5,185.59 605.08,189.24 605.08,189.59 596.5,185.99 				"/>
				<polygon points="605.08,189.91 605.08,190.27 596.49,186.79 596.49,186.37 				"/>
				<polygon points="596.49,187.1 605.08,190.62 605.08,190.97 596.5,187.5 				"/>
			</g>
			<g>
				<polygon points="596.5,196.6 605.08,200.25 605.08,200.6 596.5,197 				"/>
				<polygon points="605.08,200.91 605.08,201.28 596.49,197.8 596.49,197.38 				"/>
				<polygon points="596.49,198.11 605.08,201.63 605.08,201.98 596.5,198.51 				"/>
			</g>
			<g>
				<polygon points="606.63,196.25 615.21,199.91 615.21,200.25 606.63,196.65 				"/>
				<polygon points="615.21,200.57 615.21,200.93 606.62,197.45 606.62,197.04 				"/>
				<polygon points="606.62,197.76 615.21,201.29 615.21,201.63 606.63,198.16 				"/>
			</g>
			<g>
				<polygon points="606.63,186.9 615.21,190.55 615.21,190.9 606.63,187.3 				"/>
				<polygon points="615.21,191.22 615.21,191.58 606.62,188.1 606.62,187.68 				"/>
				<polygon points="606.62,188.41 615.21,191.93 615.21,192.28 606.63,188.81 				"/>
			</g>
		</g>
		<g>
			<path d="M577.99,219.22c0.08,0.24,0.72,1.76,3.45,1.76c0,0,0,0,0,0c0.36,0,0.76-0.03,1.16-0.08c0.06-0.01,0.12-0.01,0.17-0.01
				h22.64c0.82,0,1.97-0.42,2.78-1.02c1.08-0.8,1.14-2.24,0.73-3.31c-0.48-1.24-1.57-2.14-2.59-2.14c-0.28,0-0.56,0.07-0.84,0.2
				c-0.08,0.04-0.16,0.09-0.26,0.17c-0.47,0.51-0.93,0.86-1.25,1.07c-0.1,0.07-0.23,0.15-0.35,0.21c-0.01,0.01-0.02,0.01-0.03,0.01
				c-0.65,0.32-1.44,0.07-1.77-0.58c-0.33-0.65-0.08-1.44,0.56-1.78c0.01-0.01,0.06-0.03,0.13-0.08c0.13-0.09,0.3-0.25,0.48-0.42
				c0.12-0.11,0.24-0.23,0.38-0.35c1.06-1.24,1.08-2.81,0.07-4.67l0,0c0,0-1.23-2.09-3.09-2.09c-0.41,0-0.83,0.1-1.27,0.29
				c-0.38,0.17-0.82,0.15-1.19-0.05c-0.36-0.2-0.61-0.57-0.66-0.98c-0.06-0.4-0.65-3.93-4.17-3.93c-0.03,0-0.06,0-0.09,0
				c-0.01,0-0.05,0-0.11,0c-1.39,0-4.61,0.47-4.66,4.78c0,0.43-0.22,0.83-0.57,1.07c-0.35,0.24-0.8,0.3-1.2,0.16l0,0
				c0,0-0.6-0.2-1.4-0.2c-1.51,0-2.69,0.68-3.53,2.03c-0.18,0.33-0.91,2.05,1.37,3.76c0.46,0.35,0.64,0.95,0.45,1.5
				c-0.19,0.54-0.71,0.9-1.29,0.88l-0.07,0c-1.07,0-3.08,0.28-3.85,1.32c-0.42,0.57-0.47,1.38-0.14,2.46
				C577.99,219.2,577.99,219.2,577.99,219.22C577.99,219.21,577.99,219.21,577.99,219.22C577.99,219.22,577.99,219.21,577.99,219.22
				z"/>
			<g>
				<path d="M608.52,219.39h-18.56c-0.05,0-0.1,0-0.14,0.01c-0.33,0.04-0.65,0.07-0.95,0.07h0c-2.24,0-2.76-1.25-2.83-1.45
					c0-0.01,0,0,0,0c0,0,0,0,0,0c0,0,0,0,0-0.01c-0.27-0.89-0.23-1.55,0.12-2.02c0.64-0.85,2.28-1.08,3.16-1.08h0.05
					c0.48,0.02,0.9-0.28,1.06-0.72c0.16-0.45,0.01-0.94-0.37-1.23c-1.87-1.4-1.27-2.81-1.12-3.08c0.68-1.1,1.66-1.66,2.89-1.66
					c0.66,0,1.15,0.16,1.15,0.16c0.33,0.12,0.7,0.07,0.99-0.13c0.29-0.2,0.46-0.53,0.47-0.88c0.03-2.32,1.17-3.27,2.28-3.66
					c-0.54-1.07-1.6-2.25-3.63-2.25c-0.03,0-0.06,0-0.09,0c-0.01,0-0.05,0-0.11,0c-1.39,0-4.61,0.47-4.66,4.78
					c0,0.43-0.22,0.83-0.57,1.07c-0.35,0.24-0.8,0.3-1.2,0.16c0,0-0.6-0.2-1.4-0.2c-1.51,0-2.69,0.68-3.53,2.03
					c-0.18,0.33-0.91,2.05,1.37,3.76c0.46,0.35,0.64,0.95,0.45,1.5c-0.19,0.54-0.71,0.9-1.29,0.88l-0.07,0
					c-1.07,0-3.08,0.28-3.85,1.32c-0.42,0.57-0.47,1.38-0.14,2.46c0,0,0,0.01,0,0.01c0,0,0,0,0,0c0,0,0,0,0,0.01
					c0.08,0.24,0.72,1.76,3.45,1.76c0,0,0,0,0,0c0.36,0,0.76-0.03,1.16-0.08c0.06-0.01,0.12-0.01,0.17-0.01h22.64
					c0.82,0,1.97-0.42,2.78-1.02c0.19-0.14,0.34-0.31,0.47-0.49C608.62,219.38,608.57,219.39,608.52,219.39z"/>
			</g>
			<path d="M597.91,206.36c0,0-0.21,0.29-0.53,0.72c-0.07,0.11-0.15,0.22-0.23,0.34c-0.08,0.12-0.16,0.25-0.23,0.38
				c-0.08,0.13-0.14,0.27-0.22,0.41c-0.05,0.15-0.13,0.28-0.17,0.43l-0.07,0.22l-0.05,0.22c-0.04,0.15-0.05,0.29-0.06,0.44
				c-0.03,0.15,0,0.29-0.01,0.43c-0.01,0.14,0.02,0.27,0.03,0.4c0.02,0.12,0.01,0.25,0.04,0.35c0.03,0.1,0.04,0.2,0.06,0.27
				c0.03,0.16,0.04,0.26,0.04,0.26s-0.07-0.06-0.19-0.18c-0.06-0.06-0.13-0.13-0.2-0.22c-0.08-0.08-0.14-0.2-0.21-0.33
				c-0.07-0.13-0.15-0.26-0.19-0.43c-0.04-0.16-0.11-0.33-0.12-0.52c-0.02-0.19-0.04-0.38,0-0.58c0.01-0.1,0.02-0.2,0.04-0.3
				l0.09-0.29c0.05-0.2,0.16-0.37,0.24-0.54c0.11-0.16,0.21-0.33,0.33-0.46c0.12-0.14,0.24-0.26,0.37-0.37
				c0.12-0.11,0.25-0.19,0.37-0.27C597.52,206.42,597.91,206.36,597.91,206.36z"/>
			<path d="M601.67,214.05c0,0-0.36,0-0.9,0c-0.13,0.01-0.27,0.01-0.41,0.02c-0.14,0-0.29,0.02-0.44,0.04
				c-0.15,0.01-0.3,0.05-0.46,0.07c-0.15,0.05-0.31,0.06-0.44,0.12l-0.22,0.07l-0.2,0.09c-0.14,0.05-0.26,0.14-0.39,0.21
				c-0.13,0.06-0.23,0.17-0.35,0.25c-0.12,0.08-0.21,0.17-0.3,0.26c-0.09,0.09-0.19,0.16-0.25,0.24c-0.07,0.08-0.13,0.15-0.19,0.21
				c-0.11,0.12-0.18,0.18-0.18,0.18s0.01-0.09,0.03-0.25c0.01-0.08,0.03-0.18,0.06-0.29c0.02-0.12,0.08-0.23,0.14-0.36
				c0.06-0.13,0.12-0.28,0.23-0.41c0.11-0.13,0.2-0.29,0.35-0.4c0.14-0.12,0.29-0.26,0.47-0.34c0.09-0.05,0.17-0.1,0.27-0.14
				l0.28-0.1c0.19-0.07,0.39-0.09,0.58-0.12c0.19-0.01,0.38-0.03,0.56,0c0.18,0.01,0.35,0.04,0.51,0.08
				c0.16,0.03,0.3,0.09,0.44,0.14C601.4,213.78,601.67,214.05,601.67,214.05z"/>
		</g>
		<g>
			<path d="M636.83,219.22c0.08,0.24,0.72,1.76,3.45,1.76c0,0,0,0,0,0c0.36,0,0.76-0.03,1.16-0.08c0.06-0.01,0.12-0.01,0.18-0.01
				h22.64c0.82,0,1.97-0.42,2.78-1.02c1.08-0.8,1.14-2.24,0.73-3.31c-0.48-1.24-1.57-2.14-2.59-2.14c-0.28,0-0.56,0.07-0.84,0.2
				c-0.08,0.04-0.16,0.09-0.26,0.17c-0.47,0.51-0.93,0.86-1.25,1.07c-0.1,0.07-0.23,0.15-0.35,0.21c-0.01,0.01-0.02,0.01-0.03,0.01
				c-0.65,0.32-1.44,0.07-1.77-0.58c-0.33-0.65-0.08-1.44,0.56-1.78c0.01-0.01,0.06-0.03,0.13-0.08c0.13-0.09,0.3-0.25,0.48-0.42
				c0.12-0.11,0.24-0.23,0.38-0.35c1.06-1.24,1.08-2.81,0.07-4.67l0,0c0,0-1.23-2.09-3.09-2.09c-0.41,0-0.83,0.1-1.27,0.29
				c-0.38,0.17-0.82,0.15-1.19-0.05c-0.36-0.2-0.61-0.57-0.66-0.98c-0.06-0.4-0.65-3.93-4.17-3.93c-0.03,0-0.06,0-0.09,0
				c-0.01,0-0.04,0-0.11,0c-1.39,0-4.61,0.47-4.66,4.78c0,0.43-0.22,0.83-0.57,1.07c-0.35,0.24-0.8,0.3-1.2,0.16l0,0
				c0,0-0.6-0.2-1.4-0.2c-1.51,0-2.69,0.68-3.53,2.03c-0.18,0.33-0.91,2.05,1.37,3.76c0.46,0.35,0.65,0.95,0.45,1.5
				c-0.19,0.54-0.71,0.9-1.29,0.88l-0.07,0c-1.07,0-3.08,0.28-3.85,1.32c-0.42,0.57-0.47,1.38-0.14,2.46
				C636.82,219.2,636.82,219.2,636.83,219.22C636.82,219.21,636.82,219.21,636.83,219.22C636.83,219.22,636.82,219.21,636.83,219.22
				z"/>
			<g>
				<path d="M667.36,219.39H648.8c-0.05,0-0.1,0-0.14,0.01c-0.33,0.04-0.65,0.07-0.95,0.07h0c-2.24,0-2.76-1.25-2.83-1.45
					c0-0.01,0,0,0,0c0,0,0,0,0,0c0,0,0,0,0-0.01c-0.27-0.89-0.23-1.55,0.12-2.02c0.64-0.85,2.28-1.08,3.16-1.08h0.06
					c0.48,0.02,0.9-0.28,1.06-0.72c0.16-0.45,0.01-0.94-0.37-1.23c-1.87-1.4-1.27-2.81-1.12-3.08c0.68-1.1,1.66-1.66,2.89-1.66
					c0.66,0,1.15,0.16,1.15,0.16c0.33,0.12,0.7,0.07,0.99-0.13c0.29-0.2,0.46-0.53,0.47-0.88c0.03-2.32,1.17-3.27,2.28-3.66
					c-0.54-1.07-1.6-2.25-3.63-2.25c-0.03,0-0.06,0-0.09,0c-0.01,0-0.04,0-0.11,0c-1.39,0-4.61,0.47-4.66,4.78
					c0,0.43-0.22,0.83-0.57,1.07c-0.35,0.24-0.8,0.3-1.2,0.16c0,0-0.6-0.2-1.4-0.2c-1.51,0-2.69,0.68-3.53,2.03
					c-0.18,0.33-0.91,2.05,1.37,3.76c0.46,0.35,0.65,0.95,0.45,1.5c-0.19,0.54-0.71,0.9-1.29,0.88l-0.07,0
					c-1.07,0-3.08,0.28-3.85,1.32c-0.42,0.57-0.47,1.38-0.14,2.46c0,0,0,0.01,0,0.01c0,0,0,0,0,0c0,0,0,0,0,0.01
					c0.08,0.24,0.72,1.76,3.45,1.76c0,0,0,0,0,0c0.36,0,0.76-0.03,1.16-0.08c0.06-0.01,0.12-0.01,0.18-0.01h22.64
					c0.82,0,1.97-0.42,2.78-1.02c0.19-0.14,0.34-0.31,0.47-0.49C667.45,219.38,667.41,219.39,667.36,219.39z"/>
			</g>
			<path d="M656.74,206.36c0,0-0.21,0.29-0.53,0.72c-0.07,0.11-0.15,0.22-0.23,0.34c-0.08,0.12-0.16,0.25-0.23,0.38
				c-0.08,0.13-0.14,0.27-0.22,0.41c-0.05,0.15-0.13,0.28-0.17,0.43l-0.07,0.22l-0.05,0.22c-0.04,0.15-0.05,0.29-0.06,0.44
				c-0.03,0.15,0,0.29-0.01,0.43c-0.01,0.14,0.02,0.27,0.03,0.4c0.02,0.12,0.01,0.25,0.05,0.35c0.03,0.1,0.04,0.2,0.05,0.27
				c0.03,0.16,0.04,0.26,0.04,0.26s-0.07-0.06-0.19-0.18c-0.06-0.06-0.13-0.13-0.2-0.22c-0.08-0.08-0.14-0.2-0.21-0.33
				c-0.07-0.13-0.15-0.26-0.19-0.43c-0.04-0.16-0.11-0.33-0.12-0.52c-0.02-0.19-0.04-0.38,0-0.58c0.01-0.1,0.02-0.2,0.04-0.3
				l0.09-0.29c0.05-0.2,0.16-0.37,0.24-0.54c0.11-0.16,0.21-0.33,0.33-0.46c0.12-0.14,0.24-0.26,0.37-0.37
				c0.12-0.11,0.25-0.19,0.37-0.27C656.36,206.42,656.74,206.36,656.74,206.36z"/>
			<path d="M660.51,214.05c0,0-0.36,0-0.89,0c-0.13,0.01-0.27,0.01-0.41,0.02c-0.14,0-0.29,0.02-0.44,0.04
				c-0.15,0.01-0.3,0.05-0.46,0.07c-0.15,0.05-0.31,0.06-0.44,0.12l-0.22,0.07l-0.2,0.09c-0.14,0.05-0.26,0.14-0.39,0.21
				c-0.13,0.06-0.23,0.17-0.35,0.25c-0.12,0.08-0.21,0.17-0.3,0.26c-0.09,0.09-0.19,0.16-0.25,0.24c-0.07,0.08-0.13,0.15-0.19,0.21
				c-0.11,0.12-0.18,0.18-0.18,0.18s0.01-0.09,0.03-0.25c0.01-0.08,0.03-0.18,0.06-0.29c0.02-0.12,0.08-0.23,0.14-0.36
				c0.06-0.13,0.12-0.28,0.23-0.41c0.1-0.13,0.2-0.29,0.35-0.4c0.14-0.12,0.29-0.26,0.47-0.34c0.09-0.05,0.17-0.1,0.27-0.14
				l0.28-0.1c0.19-0.07,0.39-0.09,0.58-0.12c0.19-0.01,0.38-0.03,0.56,0c0.18,0.01,0.35,0.04,0.51,0.08
				c0.16,0.03,0.3,0.09,0.44,0.14C660.23,213.78,660.51,214.05,660.51,214.05z"/>
		</g>
	</g>
</g>
<g>
	<text transform="matrix(1 0 0 1 287.0146 92.7003)" class="st1" style="font-family:'Allisya'; font-size:32.8171px;">money</text>
</g>
<g class="st3">
	<path d="M248.53,3.43v-5.79c1.99-0.69,3.11-1.47,3.11-2.28v-8.1c0-2.97-14.72-4.25-32.87-4.25c-18.15,0-32.87,1.28-32.87,4.25v7.17
		c-1.99,0.57-3.11,1.26-3.11,2.07v8.1c0,0.93,1.45,1.81,4,2.57v5.87c-1.71,0.54-2.67,1.19-2.67,1.94v8.1c0,0.43,0.31,0.84,0.89,1.24
		v6.95c-2.27,0.59-3.55,1.32-3.55,2.2v8.1c0,0.75,0.95,1.47,2.67,2.12v6.84c-0.86,0.42-1.33,0.9-1.33,1.42v8.1
		c0,0.91,1.4,1.78,3.86,2.53v6.54c0,0.05,0.01,0.1,0.02,0.15c-0.88,0.41-1.36,0.88-1.36,1.4v7.7c0,2.82,13.98,5.11,31.23,5.11
		s31.23-2.29,31.23-5.11v-7.7c0-0.02-0.01-0.04-0.01-0.06c0.87-0.47,1.34-0.97,1.34-1.48v-7.7c0-0.36-0.23-0.69-0.66-1
		c0.05-0.12,0.09-0.25,0.09-0.37v-7.73c0.86-0.48,1.33-0.99,1.33-1.51v-8.1c0-0.75-0.95-1.4-2.67-1.94v-6.01
		c2.27-0.73,3.55-1.56,3.55-2.43v-8.1c0-0.43-0.31-0.82-0.89-1.18v-7.09c1.71-0.65,2.67-1.37,2.67-2.12v-8.1
		C252.53,4.81,251.08,4.04,248.53,3.43z M247.28,69.38v-6.23c0.18-0.08,0.34-0.16,0.49-0.24v6.09
		C247.68,69.11,247.51,69.24,247.28,69.38z M195.71,74.75c-0.37-0.06-0.73-0.12-1.08-0.19v6.08c-0.37-0.06-0.73-0.12-1.08-0.19v-6.1
		c-0.51-0.11-1-0.21-1.45-0.32c-0.4-0.09-0.77-0.19-1.13-0.28v6.17c-2.5-0.6-3.94-1.21-4.31-1.68v-6.09
		c0.14,0.07,0.28,0.15,0.44,0.22c0.07,0.03,0.26,0.1,0.57,0.21c0.39,0.15,0.99,0.31,1.74,0.51c0.76,0.19,1.69,0.39,2.76,0.58
		c0.54,0.09,1.11,0.19,1.71,0.27c0.6,0.09,1.24,0.18,1.9,0.26c1.33,0.17,2.77,0.31,4.3,0.45c1.53,0.12,3.15,0.22,4.82,0.32
		c1.67,0.09,3.4,0.16,5.16,0.21c1.76,0.06,3.54,0.09,5.34,0.09c1.79,0.02,3.58,0,5.34-0.02c1.76-0.04,3.49-0.07,5.17-0.15
		c3.35-0.14,6.48-0.32,9.14-0.6c1.33-0.14,2.56-0.28,3.64-0.42c1.08-0.14,2.02-0.3,2.79-0.44c1.54-0.28,2.41-0.51,2.41-0.51
		s-0.21,0.07-0.61,0.2c-0.4,0.13-0.99,0.3-1.76,0.5c-1.53,0.38-3.73,0.85-6.4,1.22c-1.78,0.25-3.76,0.48-5.88,0.67v5.97
		c-0.83,0.06-1.69,0.12-2.58,0.17v-5.94c-0.24,0.02-0.47,0.03-0.71,0.05c-2.31,0.15-4.74,0.23-7.2,0.27v5.87
		c-0.73,0.01-1.46,0.01-2.22,0.01c-7.34,0-13.32-0.38-17.96-0.93v-6.02C197.59,75.04,196.62,74.9,195.71,74.75z M188,68.99v-6.04
		c0.06,0.02,0.12,0.03,0.18,0.05c0.08,0.04,0.17,0.08,0.26,0.12c0.07,0.03,0.26,0.1,0.57,0.21c0.39,0.15,0.99,0.31,1.74,0.51
		c0.76,0.19,1.69,0.39,2.76,0.58c0.54,0.09,1.11,0.19,1.71,0.27c0.6,0.09,1.24,0.18,1.9,0.26c1.33,0.17,2.77,0.31,4.3,0.45
		c1.53,0.12,3.15,0.22,4.82,0.32c1.67,0.09,3.4,0.16,5.16,0.21c1.76,0.06,3.54,0.09,5.34,0.09c1.79,0.02,3.58,0,5.34-0.02
		c1.76-0.04,3.49-0.07,5.17-0.15c3.35-0.14,6.48-0.32,9.14-0.6c1.33-0.14,2.56-0.28,3.64-0.42c1.08-0.14,2.02-0.3,2.79-0.44
		c1.54-0.28,2.41-0.51,2.41-0.51s-0.21,0.07-0.61,0.2c-0.4,0.13-0.99,0.3-1.76,0.5c-1.53,0.38-3.73,0.85-6.4,1.22
		c-1.78,0.25-3.76,0.48-5.88,0.67v5.97c-0.83,0.06-1.69,0.12-2.58,0.17v-5.94c-0.24,0.02-0.47,0.03-0.71,0.05
		c-2.31,0.15-4.74,0.23-7.2,0.27v5.87c-0.73,0.01-1.46,0.01-2.22,0.01c-7.34,0-13.32-0.38-17.96-0.93v-6.02
		c-1.01-0.13-1.97-0.28-2.88-0.43c-0.37-0.06-0.73-0.12-1.08-0.19v6.08c-0.37-0.06-0.73-0.12-1.08-0.19v-6.1
		c-0.51-0.11-1-0.21-1.45-0.32c-0.4-0.09-0.77-0.19-1.13-0.28v6.17C189.8,70.07,188.37,69.46,188,68.99z M184.13,59.94v-6.48
		c0.16,0.09,0.34,0.18,0.54,0.27c0.08,0.03,0.28,0.1,0.6,0.22c0.41,0.16,1.04,0.33,1.83,0.54c0.8,0.21,1.77,0.42,2.9,0.61
		c0.56,0.1,1.17,0.2,1.8,0.28c0.64,0.1,1.3,0.19,2,0.28c1.4,0.18,2.92,0.33,4.53,0.47c1.61,0.13,3.31,0.24,5.07,0.35
		c1.76,0.1,3.58,0.19,5.44,0.24c1.86,0.05,3.73,0.08,5.62,0.08c3.76,0.05,7.53-0.01,11.06-0.18c3.53-0.16,6.82-0.35,9.62-0.65
		c1.4-0.14,2.69-0.3,3.83-0.44c1.14-0.15,2.12-0.32,2.94-0.46c1.62-0.3,2.54-0.54,2.54-0.54s-0.23,0.07-0.65,0.21
		c-0.42,0.14-1.05,0.32-1.85,0.52c-1.61,0.39-3.92,0.89-6.74,1.28c-1.41,0.2-2.93,0.38-4.55,0.55c-0.53,0.05-1.09,0.1-1.63,0.15
		v6.39c-0.87,0.06-1.78,0.12-2.71,0.17v-6.35c-0.25,0.02-0.5,0.04-0.75,0.05c-2.44,0.14-4.99,0.23-7.58,0.28v6.29
		c-0.76,0.01-1.54,0.01-2.33,0.01c-7.73,0-14.03-0.4-18.91-0.98v-6.43c-1.06-0.14-2.07-0.29-3.03-0.45
		c-0.39-0.06-0.77-0.13-1.14-0.19v6.49c-0.39-0.07-0.77-0.13-1.14-0.2v-6.51c-0.53-0.11-1.05-0.22-1.53-0.34
		c-0.42-0.1-0.82-0.2-1.19-0.3v6.58C186.03,61.11,184.49,60.45,184.13,59.94z M182.8,41.46v-6.48c0.16,0.09,0.34,0.18,0.54,0.27
		c0.08,0.03,0.28,0.1,0.6,0.22c0.41,0.16,1.04,0.33,1.83,0.54c0.8,0.21,1.77,0.42,2.9,0.61c0.56,0.1,1.17,0.2,1.8,0.28
		c0.64,0.1,1.3,0.19,2,0.28c1.4,0.18,2.92,0.33,4.53,0.47c1.61,0.13,3.31,0.24,5.07,0.35c1.76,0.1,3.58,0.19,5.44,0.24
		c1.86,0.05,3.73,0.08,5.62,0.08c3.76,0.05,7.53-0.01,11.06-0.18c3.53-0.16,6.82-0.35,9.62-0.65c1.4-0.14,2.69-0.3,3.83-0.44
		c1.14-0.15,2.12-0.32,2.94-0.46c1.62-0.3,2.54-0.54,2.54-0.54s-0.23,0.07-0.65,0.21c-0.42,0.14-1.05,0.32-1.85,0.52
		c-1.61,0.39-3.92,0.89-6.74,1.28c-1.41,0.2-2.93,0.38-4.55,0.55c-0.53,0.05-1.09,0.1-1.63,0.15v6.39
		c-0.87,0.06-1.78,0.12-2.71,0.17v-6.35c-0.25,0.02-0.5,0.04-0.75,0.05c-2.44,0.14-4.99,0.23-7.58,0.28v6.29
		c-0.76,0.01-1.54,0.01-2.33,0.01c-7.73,0-14.03-0.4-18.91-0.98V38.2c-1.06-0.14-2.07-0.29-3.03-0.45
		c-0.39-0.06-0.77-0.13-1.14-0.19v6.49c-0.39-0.07-0.77-0.13-1.14-0.2v-6.51c-0.53-0.11-1.05-0.22-1.53-0.34
		c-0.42-0.1-0.82-0.2-1.19-0.3v6.58C184.69,42.63,183.16,41.96,182.8,41.46z M185.07,32.62c0.72,2.15,9.18,3.96,20.9,4.71
		c-14.13-0.59-21.75-2.61-23.05-3.84C183.24,33.23,183.93,32.93,185.07,32.62z M186.95,14.37c1.14,1.9,8.33,3.51,18.39,4.31
		c-12.02-0.74-18.56-2.54-19.76-3.67C185.82,14.81,186.27,14.6,186.95,14.37z M184.13,4.49v-6.48c0.16,0.09,0.34,0.18,0.54,0.27
		c0.08,0.03,0.28,0.1,0.6,0.22c0.41,0.16,1.04,0.33,1.83,0.54c0.8,0.21,1.77,0.42,2.9,0.61c0.56,0.1,1.17,0.2,1.8,0.28
		c0.64,0.1,1.3,0.19,2,0.28c1.4,0.18,2.92,0.33,4.53,0.47c1.61,0.13,3.31,0.24,5.07,0.35c1.76,0.1,3.58,0.19,5.44,0.24
		c1.86,0.05,3.73,0.08,5.62,0.08c3.76,0.05,7.53-0.01,11.06-0.18c3.53-0.16,6.82-0.35,9.62-0.65c1.4-0.14,2.69-0.3,3.83-0.44
		c1.14-0.15,2.12-0.32,2.94-0.46c1.62-0.3,2.54-0.54,2.54-0.54s-0.23,0.07-0.65,0.21c-0.42,0.14-1.05,0.32-1.85,0.52
		c-1.61,0.39-3.92,0.89-6.74,1.28c-1.41,0.2-2.93,0.38-4.55,0.55c-0.53,0.05-1.09,0.1-1.63,0.15v6.39
		c-0.87,0.06-1.78,0.12-2.71,0.17V2c-0.25,0.02-0.5,0.04-0.75,0.05c-2.44,0.14-4.99,0.23-7.58,0.28v6.29
		c-0.76,0.01-1.54,0.01-2.33,0.01c-7.73,0-14.03-0.4-18.91-0.98V1.23c-1.06-0.14-2.07-0.29-3.03-0.45
		c-0.39-0.06-0.77-0.13-1.14-0.19v6.49c-0.39-0.07-0.77-0.13-1.14-0.2V0.36c-0.53-0.11-1.05-0.22-1.53-0.34
		c-0.42-0.1-0.82-0.2-1.19-0.3v6.58C186.03,5.66,184.49,4.99,184.13,4.49z M186.01-4.23c0.94,2.04,8.83,3.76,19.8,4.53
		c-13.18-0.67-20.31-2.59-21.56-3.78C184.53-3.71,185.1-3.97,186.01-4.23z M231.73-15.41c0.13,0.01,0.25,0.01,0.37,0.02
		c2,0.12,4.16,0.27,6.43,0.49c1.14,0.11,2.3,0.24,3.49,0.4c1.18,0.17,2.4,0.33,3.54,0.65c0.12,0.03,0.25,0.07,0.37,0.12
		c-0.39,0.16-0.88,0.3-1.34,0.42c-1.22,0.3-2.49,0.51-3.78,0.72c-2.58,0.39-5.22,0.66-7.87,0.87c-2.65,0.22-5.3,0.38-7.92,0.47
		c-2.62,0.09-5.19,0.16-7.69,0.16c-4.99,0.01-9.66-0.07-13.65-0.29c-3.99-0.22-7.31-0.47-9.62-0.82c-1.15-0.18-2.05-0.35-2.64-0.55
		c-0.29-0.1-0.51-0.2-0.63-0.31c-0.13-0.1-0.12-0.21-0.12-0.2c0,0-0.02,0.1,0.11,0.22c0.11,0.12,0.33,0.24,0.62,0.36
		c0.58,0.24,1.47,0.5,2.62,0.73c2.3,0.46,5.61,0.97,9.61,1.3c4,0.34,8.67,0.63,13.69,0.7c2.51,0.03,5.1,0.04,7.74-0.05
		c2.64-0.08,5.31-0.22,7.98-0.43c2.67-0.23,5.34-0.52,7.96-0.93c1.31-0.21,2.6-0.45,3.88-0.79c0.65-0.19,1.26-0.34,1.95-0.72
		c0.09-0.06,0.18-0.12,0.29-0.21c0.05-0.05,0.1-0.1,0.16-0.19c0.02-0.03,0.06-0.09,0.1-0.18c0.02-0.04,0.03-0.08,0.04-0.13
		l0.01-0.04l0-0.03c0-0.04,0-0.06,0.01-0.08c1.5,0.36,2.37,0.71,2.74,1.01c-1.54,1.46-11.9,4.01-31.41,4.01s-29.88-2.55-31.41-4.01
		c1.37-1.11,9.29-2.94,31.41-2.94C223.8-15.66,228.08-15.57,231.73-15.41z M247.2,4.49c-0.1,0.14-0.3,0.3-0.59,0.46v-6.64
		c0.16-0.07,0.31-0.14,0.45-0.22c0.05-0.01,0.09-0.03,0.14-0.04V4.49z M249.72-4.29v-6.64c0.21-0.1,0.41-0.2,0.59-0.3v6.48
		C250.2-4.61,250-4.46,249.72-4.29z M187.78-10.96c0.08,0.03,0.28,0.1,0.6,0.22c0.41,0.16,1.04,0.33,1.83,0.54
		c0.8,0.21,1.77,0.42,2.9,0.61c0.56,0.1,1.17,0.2,1.8,0.28c0.64,0.1,1.3,0.19,2,0.28c1.4,0.18,2.92,0.33,4.53,0.47
		c1.61,0.13,3.31,0.24,5.07,0.35c1.76,0.1,3.58,0.19,5.44,0.24c1.86,0.05,3.73,0.08,5.62,0.08c3.76,0.05,7.53-0.01,11.06-0.18
		c3.53-0.16,6.82-0.35,9.62-0.65c1.4-0.14,2.69-0.3,3.83-0.44c1.14-0.15,2.12-0.32,2.94-0.46c1.62-0.3,2.54-0.54,2.54-0.54
		s-0.23,0.07-0.65,0.21c-0.42,0.14-1.05,0.32-1.85,0.52c-1.61,0.39-3.92,0.89-6.74,1.28c-1.41,0.2-2.93,0.38-4.55,0.55
		c-0.53,0.05-1.09,0.1-1.63,0.15v6.39c-0.87,0.06-1.78,0.12-2.71,0.17v-6.35c-0.25,0.02-0.5,0.04-0.75,0.05
		c-2.44,0.14-4.99,0.23-7.58,0.28v6.29c-0.76,0.01-1.54,0.01-2.33,0.01c-7.73,0-14.03-0.4-18.91-0.98v-6.43
		c-1.06-0.14-2.07-0.29-3.03-0.45c-0.39-0.06-0.77-0.13-1.14-0.19v6.49c-0.39-0.07-0.77-0.13-1.14-0.2v-6.51
		c-0.53-0.11-1.05-0.22-1.53-0.34c-0.42-0.1-0.82-0.2-1.19-0.3v6.58c-2.71-0.65-4.24-1.31-4.6-1.82v-6.48
		C187.41-11.14,187.58-11.05,187.78-10.96z M189.63,7.88c0.38,0.12,0.88,0.26,1.47,0.42c0.8,0.21,1.77,0.42,2.9,0.61
		c0.56,0.1,1.17,0.2,1.8,0.28c0.64,0.1,1.3,0.19,2,0.28c1.4,0.18,2.92,0.33,4.53,0.47c1.61,0.13,3.31,0.24,5.07,0.35
		c1.76,0.1,3.58,0.19,5.44,0.24c1.86,0.05,3.73,0.08,5.62,0.08c3.76,0.05,7.53-0.01,11.06-0.18c3.53-0.16,6.82-0.35,9.62-0.65
		c1.4-0.14,2.69-0.3,3.83-0.44c1.14-0.15,2.12-0.32,2.94-0.46c1.62-0.3,2.54-0.54,2.54-0.54s-0.23,0.07-0.65,0.21
		c-0.42,0.14-1.05,0.32-1.85,0.52c-1.61,0.39-3.92,0.89-6.74,1.28c-1.41,0.2-2.93,0.38-4.55,0.55c-0.53,0.05-1.09,0.1-1.63,0.15
		v6.39c-0.87,0.06-1.78,0.12-2.71,0.17v-6.35c-0.25,0.02-0.5,0.04-0.75,0.05c-2.44,0.14-4.99,0.23-7.58,0.28v6.29
		c-0.76,0.01-1.54,0.01-2.33,0.01c-7.73,0-14.03-0.4-18.91-0.98v-6.43c-1.06-0.14-2.07-0.29-3.03-0.45
		c-0.39-0.06-0.77-0.13-1.14-0.19v6.49c-0.39-0.07-0.77-0.13-1.14-0.2V9.61c-0.53-0.11-1.05-0.22-1.53-0.34
		c-0.42-0.1-0.82-0.2-1.19-0.3v6.58c-2.71-0.65-4.24-1.31-4.6-1.82v-6.2C188.6,7.65,189.1,7.77,189.63,7.88z M186,16.77
		c0.08,0.03,0.28,0.1,0.6,0.22c0.41,0.16,1.04,0.33,1.83,0.54c0.8,0.21,1.77,0.42,2.9,0.61c0.56,0.1,1.17,0.2,1.8,0.28
		c0.64,0.1,1.3,0.19,2,0.28c1.4,0.18,2.92,0.33,4.53,0.47c1.61,0.13,3.31,0.24,5.07,0.35c1.76,0.1,3.58,0.19,5.44,0.24
		c1.86,0.05,3.73,0.08,5.62,0.08c3.76,0.05,7.53-0.01,11.06-0.18c3.53-0.16,6.82-0.35,9.62-0.65c1.4-0.14,2.69-0.3,3.83-0.44
		c1.14-0.15,2.12-0.32,2.94-0.46c1.62-0.3,2.54-0.54,2.54-0.54s-0.23,0.07-0.65,0.21c-0.42,0.14-1.05,0.32-1.85,0.52
		c-1.61,0.39-3.92,0.89-6.74,1.28c-1.41,0.2-2.93,0.38-4.55,0.55c-0.53,0.05-1.09,0.1-1.63,0.15v6.39
		c-0.87,0.06-1.78,0.12-2.71,0.17v-6.35c-0.25,0.02-0.5,0.04-0.75,0.05c-2.44,0.14-4.99,0.23-7.58,0.28v6.29
		c-0.76,0.01-1.54,0.01-2.33,0.01c-7.73,0-14.03-0.4-18.91-0.98v-6.43c-1.06-0.14-2.07-0.29-3.03-0.45
		c-0.39-0.06-0.77-0.13-1.14-0.19v6.49c-0.39-0.07-0.77-0.13-1.14-0.2v-6.51c-0.53-0.11-1.05-0.22-1.53-0.34
		c-0.42-0.1-0.82-0.2-1.19-0.3v6.58c-2.71-0.65-4.24-1.31-4.6-1.82V16.5C185.63,16.59,185.81,16.68,186,16.77z M186.89,26.01
		c0.08,0.03,0.28,0.1,0.6,0.22c0.41,0.16,1.04,0.33,1.83,0.54c0.8,0.21,1.77,0.42,2.9,0.61c0.56,0.1,1.17,0.2,1.8,0.28
		c0.64,0.1,1.3,0.19,2,0.28c1.4,0.18,2.92,0.33,4.53,0.47c1.61,0.13,3.31,0.24,5.07,0.35c1.76,0.1,3.58,0.19,5.44,0.24
		c1.86,0.05,3.73,0.08,5.62,0.08c3.76,0.05,7.53-0.01,11.06-0.18c3.53-0.16,6.82-0.35,9.62-0.65c1.4-0.14,2.69-0.3,3.83-0.44
		c1.14-0.15,2.12-0.32,2.94-0.46c1.62-0.3,2.54-0.54,2.54-0.54s-0.23,0.07-0.65,0.21c-0.42,0.14-1.05,0.32-1.85,0.52
		c-1.61,0.39-3.92,0.89-6.74,1.28c-1.41,0.2-2.93,0.38-4.55,0.55c-0.53,0.05-1.09,0.1-1.63,0.15v6.39
		c-0.87,0.06-1.78,0.12-2.71,0.17v-6.35c-0.25,0.02-0.5,0.04-0.75,0.05c-2.44,0.14-4.99,0.23-7.58,0.28v6.29
		c-0.76,0.01-1.54,0.01-2.33,0.01c-7.73,0-14.03-0.4-18.91-0.98v-6.43c-1.06-0.14-2.07-0.29-3.03-0.45
		c-0.39-0.06-0.77-0.13-1.14-0.19v6.49c-0.39-0.07-0.77-0.13-1.14-0.2v-6.51c-0.53-0.11-1.05-0.22-1.53-0.34
		c-0.42-0.1-0.82-0.2-1.19-0.3v6.58c-2.71-0.65-4.24-1.31-4.6-1.82v-6.48C186.52,25.83,186.7,25.92,186.89,26.01z M186.6,44.72
		c0.41,0.16,1.04,0.33,1.83,0.54c0.8,0.21,1.77,0.42,2.9,0.61c0.56,0.1,1.17,0.2,1.8,0.28c0.64,0.1,1.3,0.19,2,0.28
		c1.4,0.18,2.92,0.33,4.53,0.47c1.61,0.13,3.31,0.24,5.07,0.35c1.76,0.1,3.58,0.19,5.44,0.24c1.86,0.05,3.73,0.08,5.62,0.08
		c3.76,0.05,7.53-0.01,11.06-0.18c3.53-0.16,6.82-0.35,9.62-0.65c1.4-0.14,2.69-0.3,3.83-0.44c1.14-0.15,2.12-0.32,2.94-0.46
		c1.62-0.3,2.54-0.54,2.54-0.54s-0.23,0.07-0.65,0.21c-0.42,0.14-1.05,0.32-1.85,0.52c-1.61,0.39-3.92,0.89-6.74,1.28
		c-1.41,0.2-2.93,0.38-4.55,0.55c-0.53,0.05-1.09,0.1-1.63,0.15v6.39c-0.87,0.06-1.78,0.12-2.71,0.17v-6.35
		c-0.25,0.02-0.5,0.04-0.75,0.05c-2.44,0.14-4.99,0.23-7.58,0.28v6.29c-0.76,0.01-1.54,0.01-2.33,0.01c-7.73,0-14.03-0.4-18.91-0.98
		v-6.43c-1.06-0.14-2.07-0.29-3.03-0.45c-0.39-0.06-0.77-0.13-1.14-0.19v6.49c-0.39-0.07-0.77-0.13-1.14-0.2v-6.51
		c-0.53-0.11-1.05-0.22-1.53-0.34c-0.42-0.1-0.82-0.2-1.19-0.3v6.58c-2.71-0.65-4.24-1.31-4.6-1.82v-6.48
		c0.16,0.09,0.34,0.18,0.54,0.27C186.08,44.53,186.28,44.6,186.6,44.72z M184.63,51.74c1.18,1.11,4.43,2.1,9.08,2.86
		c-5.52-0.83-8.67-1.88-9.46-2.63C184.34,51.9,184.47,51.82,184.63,51.74z M187.54,70.33c3.32,2.24,15.64,3.9,30.34,3.9
		c7.63,0,14.61-0.45,20.03-1.19c-4.96,0.78-12.07,1.4-21.37,1.4c-18.22,0-28.08-2.36-29.73-3.74
		C186.98,70.58,187.22,70.45,187.54,70.33z M245.95,78.62v-6.23c0.18-0.08,0.34-0.16,0.49-0.24v6.09
		C246.35,78.35,246.18,78.48,245.95,78.62z M247.62,61.45c-0.81,0.68-3.59,1.59-8.36,2.34c3.93-0.66,6.82-1.49,8.26-2.41
		C247.55,61.41,247.59,61.43,247.62,61.45z M246.61,60.4v-6.64c0.21-0.1,0.41-0.2,0.59-0.3v6.48
		C247.09,60.09,246.9,60.24,246.61,60.4z M247.94,51.16v-6.64c0.21-0.1,0.41-0.2,0.59-0.3v6.48C248.43,50.84,248.23,51,247.94,51.16
		z M248.41,42.73c-1.2,1.13-7.73,2.93-19.76,3.67c10.05-0.8,17.25-2.41,18.39-4.31C247.72,42.32,248.17,42.54,248.41,42.73z
		 M245.86,41.46c-0.1,0.14-0.3,0.3-0.59,0.46V35.3c0.2-0.05,0.4-0.1,0.59-0.15V41.46z M248.83,32.68v-6.64
		c0.21-0.1,0.41-0.2,0.59-0.3v6.48C249.31,32.36,249.12,32.51,248.83,32.68z M249.3,24.25c-0.48,0.45-1.81,1.01-4,1.57
		c1.81-0.5,3.15-1.05,3.89-1.64C249.23,24.2,249.27,24.22,249.3,24.25z M248.53,22.97c-0.1,0.14-0.3,0.3-0.59,0.46V16.8
		c0.21-0.1,0.41-0.2,0.59-0.3V22.97z M250.61,14.19V7.55c0.21-0.1,0.41-0.2,0.59-0.3v6.48C251.09,13.87,250.89,14.03,250.61,14.19z
		 M251.08,5.76c-1.33,1.27-9.32,3.36-24.15,3.89c12.26-0.73,21.1-2.62,21.58-4.86C249.9,5.13,250.72,5.47,251.08,5.76z"/>
</g>
<g>
	<path class="st4" d="M851.24,224.46h-198.1c-7.76,0-14.05-6.29-14.05-14.05v-52.35c0-7.76,6.29-14.05,14.05-14.05h198.1
		c7.76,0,14.05,6.29,14.05,14.05v52.35C865.29,218.16,859,224.46,851.24,224.46z"/>
	<g>
		<g>
			<g>
				<path class="st1" d="M683.43,169.35c-2.67-0.19-5.15-1.49-7.74-2.05c-2.46-0.53-5.09-0.68-7.48,0.22
					c-4.03,1.52-6.81,5.22-7.74,9.35c-1.11,4.91,0.13,9.92,2.04,14.46c1.77,4.21,3.87,9.47,8.08,11.81
					c1.96,1.09,4.25,1.43,6.46,1.04c1.15-0.21,2.22-0.68,3.26-1.2c1.08-0.54,2.74-1.81,4-1.39c0.5,0.17,0.98,0.67,1.41,0.97
					c0.47,0.32,0.95,0.61,1.45,0.88c1.07,0.57,2.21,1.02,3.42,1.2c2.34,0.35,4.37-0.52,6.19-1.93c1.86-1.44,3.73-3.03,5.19-4.87
					c1.51-1.91,2.31-4.15,3.08-6.43c0.88-2.6,1.74-5.26,2.33-7.94c0.54-2.46,0.36-4.72-0.17-7.16c-0.54-2.5-1.93-4.79-3.56-6.74
					c-1.58-1.9-3.74-2.32-6.09-2.55c-2.95-0.29-5.38,0.08-8.09,1.23c-2.17,0.92-5.36,2.47-7.54,0.73c-1.24-1-3.02,0.76-1.77,1.77
					c3.41,2.73,7.31,0.98,10.85-0.45c2.26-0.91,4.32-1,6.72-0.76c0.85,0.09,1.74,0.19,2.54,0.52c1.01,0.41,1.66,1.29,2.26,2.16
					c1.21,1.74,2.04,3.47,2.42,5.57c0.46,2.49,0.17,4.6-0.5,7.03c-1.16,4.25-2.22,9.26-5.36,12.52c-1.43,1.49-3.1,3.08-4.88,4.14
					c-2.06,1.23-4.18,0.74-6.16-0.39c-1.9-1.08-3.24-2.55-5.58-1.84c-2.13,0.64-3.9,2.2-6.13,2.55c-4.74,0.74-7.58-3.23-9.46-6.95
					c-2.09-4.13-4.12-8.58-4.32-13.27c-0.19-4.45,1.47-9.18,5.64-11.32c5.07-2.6,10.18,1.25,15.24,1.62
					C685.04,171.96,685.03,169.46,683.43,169.35L683.43,169.35z"/>
			</g>
		</g>
		<g>
			<g>
				<path class="st1" d="M684.02,170.27c0.11-2.6-0.53-5.22-1.82-7.48c-1.25-2.18-3.68-4.54-6.42-3.43
					c-0.63,0.25-1.07,0.83-0.87,1.54c0.16,0.59,0.91,1.13,1.54,0.87c0.75-0.3,1.48-0.13,2.14,0.4c0.75,0.61,1.26,1.47,1.7,2.32
					c0.93,1.79,1.33,3.78,1.24,5.78c-0.03,0.68,0.59,1.25,1.25,1.25C683.47,171.52,683.99,170.94,684.02,170.27L684.02,170.27z"/>
			</g>
		</g>
		<g>
			<g>
				<path class="st1" d="M685.07,170.38c0.3-1.66,0.69-3.3,1.2-4.91c0.46-1.44,0.95-2.95,1.89-4.16c1.64-2.1,4.27-3.23,6.7-4.12
					c-0.53-0.4-1.05-0.8-1.58-1.21c0.29,2.62,0.69,5.38-1.01,7.62c-2.09,2.76-5.59,4.38-8.6,5.91c-1.44,0.73-0.17,2.89,1.26,2.16
					c3.42-1.73,7.13-3.61,9.47-6.76c1.97-2.65,1.73-5.82,1.38-8.92c-0.08-0.73-0.74-1.51-1.58-1.21c-2.88,1.05-5.9,2.39-7.86,4.84
					c-1.08,1.34-1.71,2.91-2.26,4.53c-0.61,1.82-1.08,3.68-1.42,5.56c-0.12,0.66,0.18,1.35,0.87,1.54
					C684.14,171.42,684.95,171.05,685.07,170.38L685.07,170.38z"/>
			</g>
		</g>
	</g>
	<g>
		<text transform="matrix(1 0 0 1 720.1889 193.4313)" class="st1" style="font-family:'Allisya'; font-size:32.8171px;">food</text>
	</g>
	<g>
		<defs>
			<path id="SVGID_00000098205969181062557560000002605945281135872427_" d="M851.46,224.37h-198.1c-7.76,0-14.05-6.29-14.05-14.05
				v-52.35c0-7.76,6.29-14.05,14.05-14.05h198.1c7.76,0,14.05,6.29,14.05,14.05v52.35C865.51,218.08,859.22,224.37,851.46,224.37z"
				/>
		</defs>
		<clipPath id="SVGID_00000162337941325261317740000001811732706021897379_">
			<use xlink:href="#SVGID_00000098205969181062557560000002605945281135872427_"  style="overflow:visible;"/>
		</clipPath>
		<g style="opacity:0.1;clip-path:url(#SVGID_00000162337941325261317740000001811732706021897379_);">
			<g>
				<g>
					<path d="M855.69,188.92c0.35-0.93,1.04-4.78,1.04-4.78c-2.87-5.25-7.2-8.86-7.2-8.86l-1.95,6.51l-2.04-0.62
						c0.7-2.63,2.13-8.56,2.13-8.56c-4.35,3.82-10.59,5.8-11.04,6.36c-0.45,0.56-1.48,2.98-1.53,3.65c-0.05,0.67,1.3,3.29,1.21,4.97
						s0.45,12.69,0.95,16.08c0.5,3.39-2.79,9-2.79,9l-1.25-0.34l1.29-10.51c0,0,0.34-12.25-0.06-13.82
						c-0.4-1.58-1.92-5.68-1.92-5.68c0.91-2.42,2.05-4.39,2.69-5.41c0.31-0.49,0.5-0.76,0.5-0.76c7.89-2.43,12.31-7.42,12.31-7.42
						c0.6-4.26,0.6-8.48,0.57-10.39c-0.02-0.82,0.26-1.62,0.78-2.25c0.8-0.97,1.69-1.51,2.45-1.79c1.07-0.38,1.89-0.22,1.9,0.06
						c0.03,0.45-0.77,2.61-1.08,3.43c-0.07,0.2-0.12,0.41-0.12,0.63c-0.06,2.9-1.01,8.79-1.01,8.79c7.2,2.02,11.59-2.42,11.59-2.42
						l0.81,1.22c-0.17,0.21-0.34,0.4-0.51,0.59c-5.86,6.55-12.25,3.66-12.25,3.66l-0.13,0.79l-0.33,1.98
						c6.27,5.18,8.49,10.8,8.49,10.8l-1.29,5.46L855.69,188.92z"/>
				</g>
				<g class="st6">
					<path d="M849.13,169.75c-4.86,4.57-13.44,7.26-13.44,7.26s-0.18-0.04-0.48-0.1c0.31-0.49,0.5-0.76,0.5-0.76
						c7.89-2.43,12.31-7.42,12.31-7.42c0.6-4.26,0.6-8.48,0.57-10.39c-0.02-0.82,0.26-1.62,0.78-2.25c0.8-0.97,1.69-1.51,2.45-1.79
						c0.2,0.18,0.28,0.36,0.07,0.49c-0.65,0.4-1.82,1.48-1.73,3.54c0.08,1.72-0.33,8.12-0.47,10.22
						C849.66,169.02,849.46,169.44,849.13,169.75z"/>
				</g>
				<g class="st7">
					<path d="M863.41,166.62c-5.86,6.55-12.25,3.66-12.25,3.66l-0.13,0.79l-0.67-0.41l0.24-1.28c0.08-0.45,0.56-0.72,0.99-0.55
						c1.46,0.56,4.85,1.25,9.69-1.33C862.17,167.01,862.87,166.74,863.41,166.62z"/>
				</g>
				<g>
					<path d="M834.46,213.41c-0.06,0-0.13-0.01-0.19-0.03l-1.25-0.34c-0.35-0.09-0.58-0.44-0.54-0.8l1.28-10.48
						c0.13-4.7,0.23-12.51-0.04-13.59c-0.39-1.52-1.88-5.57-1.9-5.61c-0.06-0.17-0.06-0.35,0-0.51c1.36-3.62,3.21-6.23,3.28-6.34
						c0.09-0.13,0.23-0.23,0.38-0.28c6.83-2.1,11.01-6.19,11.83-7.04c0.55-4.06,0.56-8.02,0.52-10.04c-0.02-1,0.32-1.97,0.95-2.73
						c1.7-2.05,3.89-2.5,4.9-2.17c0.45,0.15,0.73,0.47,0.76,0.88c0.01,0.19,0.04,0.65-1.13,3.74c-0.05,0.13-0.07,0.26-0.08,0.38
						c-0.05,2.37-0.66,6.59-0.91,8.23c6.34,1.47,10.2-2.35,10.24-2.39c0.16-0.16,0.38-0.23,0.59-0.21c0.22,0.02,0.42,0.14,0.54,0.32
						l0.81,1.21c0.18,0.27,0.16,0.62-0.04,0.87c-4.98,6.09-10.6,5.34-12.74,4.76l-0.25,1.51c6.09,5.16,8.29,10.59,8.39,10.82
						c0.06,0.14,0.07,0.29,0.03,0.44l-1.29,5.46c-0.09,0.38-0.46,0.63-0.84,0.56l-2.2-0.39c-0.22-0.04-0.4-0.17-0.51-0.36
						c-0.11-0.19-0.13-0.42-0.05-0.62c0.25-0.66,0.74-3.19,0.96-4.39c-2.01-3.58-4.71-6.37-6.06-7.65l-1.61,5.39
						c-0.06,0.19-0.18,0.34-0.36,0.44c-0.17,0.09-0.37,0.11-0.56,0.06l-2.04-0.62c-0.38-0.11-0.6-0.51-0.5-0.9
						c0.43-1.61,1.14-4.5,1.62-6.47c-2.75,1.99-5.78,3.35-7.73,4.22c-0.67,0.3-1.36,0.61-1.55,0.74c-0.39,0.53-1.3,2.7-1.34,3.2
						c0.01,0.15,0.22,0.77,0.38,1.22c0.4,1.15,0.89,2.58,0.83,3.74c-0.09,1.58,0.44,12.52,0.94,15.93c0.53,3.61-2.75,9.24-2.89,9.48
						C834.96,213.27,834.72,213.41,834.46,213.41z M834.02,211.79l0.08,0.02c0.76-1.4,2.8-5.49,2.43-8.03
						c-0.49-3.36-1.06-14.36-0.96-16.22c0.05-0.87-0.42-2.2-0.75-3.18c-0.32-0.92-0.48-1.42-0.46-1.81
						c0.06-0.86,1.18-3.43,1.69-4.06c0.24-0.29,0.68-0.5,2.06-1.12c2.29-1.02,6.12-2.74,9.07-5.33c0.24-0.21,0.59-0.24,0.87-0.08
						c0.27,0.17,0.41,0.49,0.34,0.8c-0.01,0.05-1.21,5.06-1.95,7.89l0.66,0.2l1.74-5.8c0.07-0.24,0.26-0.42,0.49-0.49
						c0.24-0.07,0.49-0.02,0.68,0.14c0.18,0.15,4.47,3.76,7.38,9.07c0.08,0.15,0.11,0.32,0.08,0.48c-0.06,0.32-0.48,2.65-0.83,4.07
						l0.71,0.13l1.08-4.55c-0.47-1.04-2.82-5.86-8.19-10.3c-0.2-0.17-0.3-0.43-0.26-0.69l0.47-2.77c0.04-0.23,0.18-0.42,0.38-0.53
						c0.2-0.11,0.44-0.12,0.65-0.02c0.25,0.11,6.09,2.6,11.53-3.64l-0.04-0.06c-1.55,1.2-5.67,3.7-11.64,2.02
						c-0.36-0.1-0.59-0.46-0.53-0.83c0.01-0.06,0.94-5.87,1-8.69c0.01-0.29,0.06-0.59,0.17-0.87c0.49-1.28,0.79-2.2,0.94-2.72
						c-0.62,0.04-1.85,0.4-2.96,1.74c-0.41,0.49-0.62,1.12-0.61,1.76c0.04,2.1,0.02,6.26-0.57,10.5c-0.02,0.14-0.08,0.28-0.18,0.39
						c-0.18,0.21-4.55,5.07-12.4,7.55c-0.43,0.64-1.8,2.79-2.87,5.54c0.34,0.94,1.49,4.12,1.85,5.5c0.42,1.63,0.12,12.76,0.08,14.03
						c0,0.02,0,0.05-0.01,0.07L834.02,211.79z M837.15,179.49L837.15,179.49L837.15,179.49z"/>
				</g>
			</g>
			<g>
				<g>
					<g>
						<circle cx="855.88" cy="196.1" r="8.22"/>
					</g>
					<g>
						<path d="M862.78,196.63c-1.17,4.38-5.68,6.99-10.06,5.81c-1.72-0.46-3.16-1.43-4.22-2.71c-0.56-1.14-0.86-2.42-0.85-3.74
							c0.99,1.49,2.5,2.64,4.37,3.14c4.08,1.09,8.27-1.33,9.37-5.41c0.33-1.24,0.33-2.49,0.07-3.65c0.27,0.25,0.52,0.52,0.75,0.8
							c0.01,0.01,0.01,0.01,0.01,0.01C863.07,192.6,863.32,194.63,862.78,196.63z"/>
					</g>
					<g class="st6">
						<path d="M853.64,193.41c-1.34,0.89-2.27,2.25-3.04,2.15c-0.79-0.03-0.95-2.72,1.4-4.43c2.36-1.68,4.86-0.67,4.64,0.08
							C856.49,191.97,854.91,192.42,853.64,193.41z"/>
					</g>
					<g>
						<path d="M855.87,205.15c-0.77,0-1.56-0.1-2.34-0.31c-4.82-1.29-7.69-6.26-6.4-11.08c0.63-2.33,2.12-4.29,4.22-5.49
							c2.09-1.21,4.53-1.53,6.87-0.9c2.33,0.63,4.29,2.12,5.49,4.22c1.21,2.09,1.53,4.53,0.9,6.87l0,0
							C863.53,202.48,859.87,205.15,855.87,205.15z M855.86,188.7c-1.28,0-2.55,0.34-3.68,0.99c-1.71,0.99-2.93,2.58-3.44,4.49
							c-1.05,3.94,1.29,8,5.23,9.05c3.94,1.06,8-1.29,9.05-5.23l0,0c0.51-1.91,0.25-3.9-0.74-5.61s-2.58-2.93-4.49-3.44
							C857.15,188.79,856.51,188.7,855.86,188.7z"/>
					</g>
				</g>
				<g>
					<g>
						<ellipse transform="matrix(0.0266 -0.9996 0.9996 0.0266 595.6404 1037.4751)" cx="830.55" cy="212.88" rx="6.25" ry="6.25"/>
					</g>
					<g>
						<path d="M835.81,213.28c-0.89,3.33-4.32,5.31-7.66,4.42c-1.31-0.35-2.41-1.09-3.21-2.06c-0.43-0.87-0.66-1.84-0.64-2.84
							c0.75,1.13,1.91,2.01,3.32,2.39c3.1,0.83,6.29-1.01,7.13-4.11c0.25-0.94,0.25-1.89,0.05-2.78c0.2,0.19,0.4,0.39,0.57,0.61
							c0,0,0.01,0,0,0.01C836.03,210.22,836.22,211.76,835.81,213.28z"/>
					</g>
					<g class="st6">
						<path d="M828.85,210.84c-1.02,0.68-1.73,1.71-2.31,1.63c-0.6-0.03-0.72-2.07,1.06-3.37c1.8-1.28,3.7-0.51,3.53,0.06
							C831.02,209.74,829.82,210.08,828.85,210.84z"/>
					</g>
					<g>
						<path d="M830.56,219.97c-0.62,0-1.23-0.08-1.84-0.24c-1.83-0.49-3.35-1.66-4.3-3.3c-0.95-1.64-1.2-3.55-0.71-5.37
							c1.01-3.77,4.9-6.02,8.67-5.01c1.83,0.49,3.35,1.66,4.3,3.3c0.95,1.64,1.2,3.55,0.71,5.37l0,0c-0.49,1.83-1.66,3.35-3.3,4.3
							C833,219.65,831.79,219.97,830.56,219.97z M830.55,207.46c-2.4,0-4.59,1.6-5.24,4.02c-0.77,2.89,0.95,5.87,3.84,6.65
							c1.4,0.38,2.86,0.18,4.12-0.54c1.26-0.72,2.15-1.89,2.53-3.29l0,0c0.38-1.4,0.18-2.86-0.54-4.12
							c-0.72-1.26-1.89-2.15-3.29-2.53C831.49,207.52,831.02,207.46,830.55,207.46z"/>
					</g>
				</g>
				<g>
					<g>
						<circle cx="834.13" cy="223.69" r="6.25"/>
					</g>
					<g>
						<path d="M839.39,224.09c-0.89,3.33-4.32,5.31-7.66,4.42c-1.31-0.35-2.41-1.09-3.21-2.06c-0.43-0.87-0.66-1.84-0.64-2.84
							c0.75,1.13,1.91,2.01,3.32,2.39c3.1,0.83,6.29-1.01,7.13-4.11c0.25-0.94,0.25-1.89,0.05-2.78c0.2,0.19,0.4,0.39,0.57,0.61
							c0,0,0.01,0,0,0.01C839.61,221.03,839.8,222.57,839.39,224.09z"/>
					</g>
					<g class="st6">
						<path d="M832.43,221.64c-1.02,0.68-1.73,1.71-2.31,1.63c-0.6-0.03-0.72-2.07,1.06-3.37c1.8-1.28,3.7-0.51,3.53,0.06
							C834.6,220.55,833.4,220.89,832.43,221.64z"/>
					</g>
					<g>
						<path d="M834.14,230.77c-0.62,0-1.23-0.08-1.84-0.24c-1.83-0.49-3.35-1.66-4.3-3.3s-1.2-3.55-0.71-5.37
							c0.49-1.83,1.66-3.35,3.3-4.3c1.64-0.95,3.55-1.2,5.37-0.71c3.77,1.01,6.02,4.9,5.01,8.67l0,0c-0.49,1.83-1.66,3.35-3.3,4.3
							C836.58,230.45,835.37,230.77,834.14,230.77z M834.13,218.26c-2.4,0-4.59,1.6-5.24,4.02c-0.38,1.4-0.18,2.86,0.54,4.12
							c0.72,1.26,1.89,2.15,3.29,2.53c1.4,0.38,2.86,0.18,4.12-0.54c1.26-0.72,2.15-1.89,2.53-3.29l0,0
							c0.77-2.89-0.95-5.87-3.84-6.65C835.07,218.32,834.6,218.26,834.13,218.26z M840.17,225.31L840.17,225.31L840.17,225.31z"/>
					</g>
				</g>
				<g>
					<g>
						<ellipse transform="matrix(0.6375 -0.7704 0.7704 0.6375 147.6415 732.3769)" cx="852.12" cy="209.29" rx="6.71" ry="6.71"/>
					</g>
					<g>
						<path d="M857.76,209.72c-0.96,3.58-4.64,5.7-8.21,4.74c-1.4-0.38-2.58-1.17-3.44-2.21c-0.46-0.93-0.71-1.97-0.69-3.05
							c0.81,1.21,2.04,2.15,3.56,2.56c3.33,0.89,6.75-1.09,7.64-4.41c0.27-1.01,0.27-2.03,0.06-2.98c0.22,0.2,0.43,0.42,0.61,0.65
							c0.01,0,0.01,0.01,0,0.01C857.99,206.44,858.2,208.09,857.76,209.72z"/>
					</g>
					<g class="st6">
						<path d="M850.3,207.09c-1.09,0.73-1.85,1.84-2.48,1.75c-0.64-0.03-0.77-2.22,1.14-3.61c1.93-1.37,3.97-0.55,3.79,0.07
							C852.63,205.92,851.33,206.29,850.3,207.09z"/>
					</g>
					<g>
						<path d="M852.12,216.89c-0.65,0-1.31-0.08-1.96-0.26c-1.96-0.53-3.6-1.78-4.61-3.54c-1.01-1.76-1.28-3.8-0.76-5.76
							c1.08-4.05,5.26-6.46,9.3-5.37c4.05,1.08,6.46,5.26,5.37,9.3c0,0,0,0,0,0C858.55,214.64,855.48,216.89,852.12,216.89z
							 M852.11,203.47c-1.01,0-2,0.26-2.9,0.78c-1.35,0.78-2.31,2.03-2.71,3.53c-0.4,1.5-0.2,3.07,0.58,4.42
							c0.78,1.35,2.03,2.31,3.53,2.71c3.1,0.83,6.3-1.02,7.13-4.12l0,0c0.83-3.1-1.02-6.3-4.12-7.13
							C853.13,203.53,852.62,203.47,852.11,203.47z M858.6,211.02L858.6,211.02L858.6,211.02z"/>
					</g>
				</g>
				<g>
					<g>
						<circle cx="843.83" cy="199.41" r="8.76"/>
					</g>
					<g>
						<path d="M851.19,199.97c-1.25,4.67-6.05,7.44-10.72,6.19c-1.83-0.49-3.37-1.53-4.49-2.89c-0.6-1.22-0.92-2.58-0.9-3.98
							c1.06,1.59,2.67,2.81,4.65,3.34c4.35,1.16,8.81-1.42,9.98-5.76c0.35-1.32,0.36-2.65,0.08-3.89c0.29,0.27,0.56,0.55,0.8,0.85
							c0.01,0.01,0.01,0.01,0.01,0.01C851.49,195.69,851.76,197.85,851.19,199.97z"/>
					</g>
					<g class="st6">
						<path d="M841.44,196.55c-1.43,0.95-2.42,2.4-3.24,2.29c-0.84-0.04-1.01-2.9,1.49-4.72c2.52-1.79,5.18-0.72,4.95,0.09
							C844.49,195.02,842.8,195.49,841.44,196.55z"/>
					</g>
					<g>
						<path d="M843.83,209c-0.82,0-1.65-0.11-2.48-0.33c-5.1-1.37-8.14-6.63-6.78-11.74c1.37-5.11,6.63-8.14,11.74-6.78
							c2.47,0.66,4.54,2.25,5.82,4.47c1.28,2.22,1.62,4.8,0.96,7.27C851.94,206.17,848.06,209,843.83,209z M843.83,191.48
							c-3.5,0-6.71,2.34-7.66,5.88c-1.13,4.22,1.38,8.58,5.61,9.71c4.22,1.13,8.58-1.38,9.71-5.61l0,0
							c0.55-2.05,0.27-4.18-0.79-6.02c-1.06-1.83-2.77-3.15-4.81-3.69C845.2,191.57,844.51,191.48,843.83,191.48z"/>
					</g>
				</g>
				<g>
					<g>
						<ellipse transform="matrix(0.7437 -0.6685 0.6685 0.7437 79.6445 606.6201)" cx="830.99" cy="199.44" rx="8.22" ry="8.22"/>
					</g>
					<g>
						<path d="M837.9,199.96c-1.17,4.38-5.68,6.99-10.06,5.81c-1.72-0.46-3.16-1.43-4.22-2.71c-0.56-1.14-0.86-2.42-0.85-3.74
							c0.99,1.49,2.5,2.64,4.37,3.14c4.08,1.09,8.27-1.33,9.37-5.41c0.33-1.24,0.33-2.49,0.07-3.65c0.27,0.25,0.52,0.52,0.75,0.8
							c0.01,0.01,0.01,0.01,0.01,0.01C838.18,195.94,838.43,197.97,837.9,199.96z"/>
					</g>
					<g class="st6">
						<path d="M828.75,196.75c-1.34,0.89-2.27,2.25-3.04,2.15c-0.79-0.03-0.95-2.72,1.4-4.43c2.36-1.68,4.86-0.67,4.64,0.08
							C831.61,195.31,830.02,195.76,828.75,196.75z"/>
					</g>
					<g>
						<path d="M830.99,208.48c-0.77,0-1.56-0.1-2.34-0.31c-2.33-0.63-4.29-2.12-5.49-4.22c-1.21-2.09-1.53-4.53-0.9-6.87
							c0.63-2.33,2.12-4.29,4.22-5.49c2.09-1.21,4.53-1.53,6.87-0.9c4.82,1.29,7.69,6.26,6.4,11.08l0,0
							C838.65,205.82,834.98,208.48,830.99,208.48z M830.98,192.04c-1.28,0-2.54,0.34-3.68,0.99c-1.71,0.99-2.93,2.58-3.44,4.49
							c-0.51,1.91-0.25,3.9,0.74,5.61c0.99,1.71,2.58,2.93,4.49,3.44c1.91,0.51,3.9,0.25,5.61-0.74c1.71-0.99,2.93-2.58,3.44-4.49
							c1.05-3.94-1.29-8-5.23-9.05C832.27,192.12,831.62,192.04,830.98,192.04z M838.93,201.56L838.93,201.56L838.93,201.56z"/>
					</g>
				</g>
				<g>
					<g>
						<circle cx="827.83" cy="186.23" r="8.22"/>
					</g>
					<g>
						<path d="M834.74,186.76c-1.17,4.38-5.68,6.99-10.06,5.81c-1.72-0.46-3.16-1.43-4.22-2.71c-0.56-1.14-0.86-2.42-0.85-3.74
							c0.99,1.49,2.5,2.64,4.37,3.14c4.08,1.09,8.27-1.33,9.37-5.41c0.33-1.24,0.33-2.49,0.07-3.65c0.27,0.25,0.52,0.52,0.75,0.8
							c0.01,0.01,0.01,0.01,0.01,0.01C835.02,182.74,835.27,184.76,834.74,186.76z"/>
					</g>
					<g class="st6">
						<path d="M825.59,183.54c-1.34,0.89-2.27,2.25-3.04,2.15c-0.79-0.03-0.95-2.72,1.4-4.43c2.36-1.68,4.86-0.67,4.64,0.08
							C828.45,182.11,826.86,182.55,825.59,183.54z"/>
					</g>
					<g>
						<path d="M827.83,195.28c-0.77,0-1.56-0.1-2.34-0.31c-4.82-1.29-7.69-6.26-6.4-11.08c1.29-4.82,6.26-7.69,11.08-6.4
							c2.33,0.63,4.29,2.12,5.49,4.22c1.21,2.09,1.53,4.53,0.9,6.87C835.49,192.61,831.82,195.28,827.83,195.28z M827.83,178.84
							c-3.26,0-6.26,2.18-7.14,5.48c-1.05,3.94,1.29,8,5.23,9.05c3.94,1.06,8-1.29,9.05-5.23l0,0c0.51-1.91,0.25-3.9-0.74-5.61
							c-0.99-1.71-2.58-2.93-4.49-3.44C829.1,178.92,828.46,178.84,827.83,178.84z"/>
					</g>
				</g>
				<g>
					<g>
						<ellipse transform="matrix(0.6375 -0.7704 0.7704 0.6375 139.6825 726.4799)" cx="841.88" cy="214.8" rx="6.71" ry="6.71"/>
					</g>
					<g>
						<path d="M847.51,215.23c-0.96,3.58-4.64,5.7-8.21,4.74c-1.4-0.38-2.58-1.17-3.44-2.21c-0.46-0.93-0.71-1.97-0.69-3.05
							c0.81,1.21,2.04,2.15,3.56,2.56c3.33,0.89,6.75-1.09,7.64-4.41c0.27-1.01,0.27-2.03,0.06-2.98c0.22,0.2,0.43,0.42,0.61,0.65
							c0.01,0,0.01,0.01,0,0.01C847.75,211.95,847.95,213.6,847.51,215.23z"/>
					</g>
					<g class="st6">
						<path d="M840.05,212.6c-1.09,0.73-1.85,1.84-2.48,1.75c-0.64-0.03-0.77-2.22,1.14-3.61c1.93-1.37,3.97-0.55,3.79,0.07
							C842.38,211.43,841.09,211.8,840.05,212.6z"/>
					</g>
					<g>
						<path d="M841.89,222.4c-0.66,0-1.32-0.09-1.98-0.26c-4.05-1.08-6.46-5.26-5.37-9.3c0.53-1.96,1.78-3.6,3.54-4.61
							c1.76-1.02,3.8-1.28,5.76-0.76c1.96,0.53,3.6,1.78,4.61,3.54c1.01,1.76,1.28,3.8,0.76,5.76c0,0,0,0,0,0
							c-0.53,1.96-1.78,3.6-3.54,4.61C844.5,222.05,843.21,222.4,841.89,222.4z M841.87,208.98c-1.01,0-2,0.26-2.9,0.78
							c-1.35,0.78-2.31,2.03-2.71,3.53c-0.4,1.5-0.2,3.07,0.58,4.42c0.78,1.35,2.03,2.31,3.53,2.71c1.5,0.4,3.07,0.2,4.42-0.58
							c1.35-0.78,2.31-2.03,2.71-3.53c0.4-1.5,0.2-3.07-0.58-4.42c-0.78-1.35-2.03-2.31-3.53-2.71
							C842.88,209.04,842.37,208.98,841.87,208.98z M848.36,216.53L848.36,216.53L848.36,216.53z"/>
					</g>
				</g>
				<g>
					<g>
						<ellipse transform="matrix(0.8538 -0.5207 0.5207 0.8538 27.4135 466.6794)" cx="844.49" cy="184.54" rx="8.22" ry="8.22"/>
					</g>
					<g>
						<path d="M851.12,186.54c-2.09,4.03-7.05,5.6-11.08,3.51c-1.58-0.82-2.78-2.08-3.53-3.55c-0.3-1.24-0.32-2.55-0.02-3.83
							c0.65,1.67,1.88,3.12,3.59,4c3.75,1.94,8.37,0.48,10.31-3.27c0.59-1.14,0.86-2.36,0.86-3.55c0.21,0.3,0.4,0.62,0.56,0.94
							c0,0.01,0.01,0.01,0,0.01C852.26,182.67,852.07,184.7,851.12,186.54z"/>
					</g>
					<g class="st6">
						<path d="M842.88,181.43c-1.5,0.58-2.7,1.71-3.43,1.44c-0.76-0.2-0.34-2.86,2.32-4.02c2.67-1.13,4.89,0.39,4.52,1.08
							C845.98,180.64,844.33,180.74,842.88,181.43z"/>
					</g>
					<g>
						<path d="M844.47,193.59c-1.4,0-2.82-0.33-4.15-1.01c-4.43-2.3-6.16-7.77-3.87-12.2c1.11-2.15,2.99-3.73,5.3-4.46
							c2.3-0.73,4.75-0.52,6.9,0.59c4.43,2.3,6.16,7.77,3.87,12.2l0,0C850.91,191.8,847.75,193.59,844.47,193.59z M844.5,177.14
							c-0.75,0-1.51,0.12-2.24,0.35c-1.88,0.6-3.42,1.89-4.33,3.64c-1.88,3.62-0.46,8.09,3.16,9.97c3.62,1.88,8.09,0.46,9.96-3.16
							l0,0c1.88-3.62,0.46-8.09-3.16-9.97C846.82,177.42,845.67,177.14,844.5,177.14z M851.79,188.32L851.79,188.32L851.79,188.32z"
							/>
					</g>
				</g>
			</g>
			<g>
				<g>
					<path d="M879.02,167.79c-1.98,1.32-4.39,1.44-4.39,1.44s0.63,1.06-1.03,1.14c-1.66,0.08-4.17-0.34-4.17-0.34
						s0.09,0.09,0.25,0.24c0,0,0,0,0.01,0c0.61,0.6,2.21,2.22,3.21,3.87c1.26,2.07,0.12,1.96-0.54,1.61c0,0,1.04,2.34,0.98,3.98
						c-0.01,0.09-0.01,0.18-0.02,0.26c-0.17,1.35-1.33,1.07-1.33,1.07s-0.62,1.02-2.67-0.64c-2.06-1.66-2.55-2.39-2.55-2.39
						s-0.31,1.34-1.96-0.93c-0.96-1.32-1.35-2.19-1.5-2.68c-0.11-0.36-0.1-0.52-0.1-0.52s-0.84,2.81-1.4,1.57
						c0,0-0.58,0.86-1.22,1.56c-0.51,0.56-1.05,1.02-1.36,0.86c-0.69-0.36-0.51-0.86-0.51-0.86s-0.92,0.44-0.9-0.58
						c0.02-1.03,0.46-2.42,0.46-2.42s-1.05,0.29-0.56-1.43c0.49-1.72,2.64-5.01,2.64-5.01s-0.07-0.03-0.2-0.1
						c-1.09-0.55-6.25-3.26-4.95-4.39c0,0-1.78-2.24-1.64-2.56c0.15-0.32,0.65-0.34,0.65-0.34s-0.21-1.21,0.74-1.2
						s2.8,1.12,2.8,1.12s-0.13-0.77,0.47-0.62c0.57,0.14,1.55,1.45,1.61,1.53c-0.02-0.1-0.59-3.19-0.32-4.49
						c0.28-1.32,0.73-1.75,1.15-0.95c0,0,1.2-4.42,2.14-5.3c0.94-0.88,1.28,0.09,1.28,0.09s0.57-0.78,1.23-0.1s1.17,2.51,1.32,4.17
						c0,0,0.58-0.97,1.1-0.25c0.53,0.72-0.32,4.62-0.86,7c0,0,3.21-2.65,4.13-2.76c0.92-0.11,0.68,0.73,0.68,0.73
						s3.29-1.23,4.91-1.11c1.62,0.12,1.66,0.79,0.98,1.56c0,0,3.28,0.12,5.53,1.46c0.12,0.08,0.24,0.15,0.36,0.23
						c0,0-0.69,2.68-3.99,4.64C879.49,165.96,881.01,166.48,879.02,167.79z"/>
				</g>
				<g class="st8">
					<path d="M869.17,162.58c1.01-0.87,3.09-2.18,6.27-1.93c0.35,0.03,0.42,0.51,0.1,0.63c-1.42,0.55-3.91,1.44-6.1,1.86
						C869.11,163.21,868.92,162.79,869.17,162.58z"/>
				</g>
				<g class="st8">
					<path d="M862.58,156.6c-0.18-0.86-0.26-2.47,0.9-4.22c0.13-0.19,0.43-0.08,0.39,0.15c-0.14,0.99-0.43,2.71-0.88,4.1
						C862.93,156.84,862.63,156.82,862.58,156.6z"/>
				</g>
				<g class="st7">
					<path d="M854.24,159.7c0,0,1.38,2.49,2.69,2.99c1.31,0.5,0.95,2.27,2.56,2.87c1.6,0.61,2.65-0.9,2.65-0.9l-1.35,2.9l-4.36-2.31
						c0,0-1.25-0.87-1.2-1.14c0.05-0.27-0.3-1.92-0.3-1.92l-1.01-1.34L854.24,159.7z"/>
				</g>
				<g class="st7">
					<path d="M859.88,171.55c-0.52,1.13,0.4,1.01-0.04,2.39c-0.43,1.35-1.13,3.63,0.75,3.09c-0.51,0.56-1.05,1.02-1.36,0.86
						c-0.69-0.36-0.51-0.86-0.51-0.86s-0.92,0.44-0.9-0.58c0.02-1.03,0.46-2.42,0.46-2.42s-1.05,0.29-0.56-1.43
						c0.49-1.72,2.64-5.01,2.64-5.01s-0.07-0.03-0.2-0.1l10.12-2.51c-0.19,0.07-6.27,2.27-6.76,2.63c-0.51,0.36,2.2,2.91,3.19,4.88
						c0,0-3.95-3.57-4.6-3.49C861.47,169.08,860.4,170.42,859.88,171.55z"/>
				</g>
				<g class="st7">
					<path d="M872,181.06c0,0-0.62,1.02-2.67-0.64c-2.06-1.66-2.55-2.39-2.55-2.39s-0.31,1.34-1.96-0.93
						c-0.96-1.32-1.35-2.19-1.5-2.68c0.01-0.25,0.03-0.46,0.08-0.65c0,0,0.21-1.26,0.75-1.33c0.54-0.07,1.16,2.27,2.06,3.01
						c0.9,0.74,0.61-0.47,1.59,0.2s1.78,5.25,5.39,4.36c0.05-0.01,0.1-0.02,0.15-0.04C873.15,181.34,872,181.06,872,181.06z"/>
				</g>
				<g class="st7">
					<path d="M879.02,167.79c-1.98,1.32-4.39,1.44-4.39,1.44s0.63,1.06-1.03,1.14c-1.66,0.08-4.17-0.34-4.17-0.34
						s0.09,0.09,0.25,0.24c-0.22-0.09-1.22-0.54-1.6-1.63c-0.13-0.38,0.18-0.78,0.58-0.74c1.2,0.11,3.5,0.32,3.79,0.24
						c0.4-0.11-0.71-1.01,0.32-0.95c1.04,0.06,4.52,0.37,4.27-0.72c-0.25-1.09-0.53-1.13,1.17-1.69c1.46-0.49,3.91-2.04,4.91-3.68
						c0.12,0.08,0.24,0.15,0.36,0.23c0,0-0.69,2.68-3.99,4.64C879.49,165.96,881.01,166.48,879.02,167.79z"/>
				</g>
				<g>
					<g>
						<path d="M860.28,167.24l14.17-3.38c0.04-0.01,0.06,0.06,0.02,0.07c0,0-14,4.02-14,4.02
							C859.99,168.09,859.8,167.36,860.28,167.24L860.28,167.24z"/>
					</g>
					<g>
						<path d="M869.12,165.17c1.45,0.57,3.03,0.97,4.56,1.21c-1.58-0.12-3.14-0.44-4.67-0.93
							C868.83,165.39,868.94,165.09,869.12,165.17L869.12,165.17z"/>
					</g>
					<g>
						<path d="M863.96,166.56c0.48-1.24,1.26-2.54,2.21-3.37c-0.84,1.01-1.5,2.22-1.85,3.48
							C864.25,166.91,863.87,166.8,863.96,166.56L863.96,166.56z"/>
					</g>
					<g>
						<path d="M860.58,167.39c2.15-3.07,3.2-6.82,3.43-10.54c0-0.02,0.04-0.02,0.04,0c0.08,3.79-1.02,7.63-3.17,10.77
							C860.74,167.81,860.43,167.58,860.58,167.39L860.58,167.39z"/>
					</g>
					<g>
						<path d="M863.09,162.2c0.84-0.89,1.54-1.95,2.07-3.06c-0.46,1.17-1.07,2.27-1.86,3.26
							C863.18,162.55,862.95,162.34,863.09,162.2L863.09,162.2z"/>
					</g>
					<g>
						<path d="M861.77,165.52c0.08-1.19-0.3-2.48-0.68-3.54c0.55,1.11,0.93,2.3,0.96,3.56c0,0.08-0.06,0.14-0.14,0.15
							C861.82,165.69,861.76,165.61,861.77,165.52L861.77,165.52z"/>
					</g>
					<g>
						<path d="M861.02,167.44c3.34,1.81,6.07,4.73,7.73,8.14c0.01,0.02-0.02,0.04-0.03,0.02c-1.9-3.21-4.55-6.06-7.86-7.82
							C860.64,167.67,860.8,167.32,861.02,167.44L861.02,167.44z"/>
					</g>
					<g>
						<path d="M865.56,170.98c1.15,0.52,2.2,1.21,3.14,2.05c-0.49-0.38-1.02-0.72-1.56-1.02c-0.54-0.3-1.11-0.57-1.69-0.77
							C865.27,171.18,865.38,170.9,865.56,170.98L865.56,170.98z"/>
					</g>
					<g>
						<path d="M863.01,168.75c0.52,1.11,0.8,2.45,0.75,3.61c-0.1-1.2-0.4-2.43-0.99-3.46C862.66,168.73,862.93,168.57,863.01,168.75
							L863.01,168.75z"/>
					</g>
				</g>
				<g>
					<path d="M871.29,182.1c-0.7,0-1.52-0.37-2.44-1.11c-1.06-0.86-1.73-1.48-2.13-1.9c-0.05,0.02-0.1,0.03-0.16,0.04
						c-0.92,0.19-1.74-0.76-2.35-1.6c-0.47-0.65-0.82-1.2-1.07-1.67c-0.42,0.61-0.79,0.64-0.95,0.65c-0.06,0-0.13,0-0.22-0.01
						c-1.94,2.63-2.79,2.18-3.08,2.03c-0.37-0.2-0.61-0.44-0.74-0.69c-0.16-0.02-0.33-0.07-0.49-0.18
						c-0.26-0.17-0.58-0.52-0.56-1.24c0.01-0.63,0.16-1.35,0.29-1.88c-0.05-0.04-0.09-0.08-0.14-0.12
						c-0.62-0.63-0.32-1.68-0.22-2.03c0.38-1.32,1.62-3.42,2.3-4.51c-1.86-0.96-4.84-2.72-5.03-4.18c-0.02-0.19-0.01-0.37,0.04-0.55
						c-1.73-2.23-1.57-2.58-1.41-2.92c0.13-0.29,0.36-0.47,0.58-0.58c0.03-0.29,0.13-0.62,0.36-0.9c0.19-0.22,0.55-0.5,1.12-0.48
						c0.7,0.01,1.68,0.43,2.38,0.78c0.01-0.01,0.02-0.02,0.04-0.03c0.15-0.14,0.49-0.36,1.02-0.23c0.13,0.03,0.26,0.09,0.4,0.17
						c-0.09-0.91-0.14-1.9,0-2.56c0.16-0.77,0.47-1.82,1.31-1.93c0.04-0.01,0.08-0.01,0.13-0.01c0.44-1.45,1.27-3.94,2.07-4.7
						c0.63-0.59,1.17-0.62,1.51-0.54c0.14,0.03,0.27,0.09,0.39,0.17c0.14-0.06,0.29-0.1,0.46-0.11c0.3-0.02,0.75,0.05,1.19,0.5
						c0.68,0.71,1.13,2.12,1.36,3.44c0.02,0,0.03,0,0.05,0c0.24-0.01,0.7,0.05,1.07,0.57c0.47,0.65,0.41,2.14-0.3,5.59
						c1.06-0.79,2.25-1.57,2.89-1.65c0.68-0.08,1.05,0.18,1.25,0.41c0.02,0.02,0.04,0.05,0.06,0.08c1.13-0.37,3.15-0.97,4.42-0.87
						c0.4,0.03,1.63,0.12,1.99,1.01c0.07,0.17,0.11,0.38,0.08,0.64c1.32,0.17,3.55,0.6,5.16,1.71c0.25,0.18,0.37,0.49,0.3,0.79
						c-0.03,0.11-0.68,2.55-3.52,4.57c0.05,0.11,0.08,0.23,0.1,0.35c0.13,1-0.98,1.74-1.34,1.98c-1.42,0.95-3.03,1.32-3.96,1.47
						c-0.02,0.14-0.07,0.28-0.14,0.41c-0.27,0.51-0.84,0.78-1.69,0.83c-0.68,0.03-1.48-0.01-2.2-0.08c0.69,0.76,1.49,1.73,2.09,2.72
						c0.3,0.49,1.1,1.81,0.37,2.58c-0.12,0.13-0.27,0.22-0.42,0.28c0.3,0.88,0.63,2.11,0.6,3.14c-0.03,0.97-0.43,1.46-0.75,1.71
						c-0.37,0.28-0.77,0.35-1.07,0.35c-0.17,0.12-0.39,0.22-0.64,0.26C871.51,182.09,871.4,182.1,871.29,182.1z M871.37,180.67
						C871.37,180.67,871.37,180.67,871.37,180.67C871.37,180.67,871.37,180.67,871.37,180.67z M871.37,180.67
						C871.37,180.67,871.37,180.67,871.37,180.67C871.37,180.67,871.37,180.67,871.37,180.67z M871.37,180.67
						C871.37,180.67,871.37,180.67,871.37,180.67C871.37,180.67,871.37,180.67,871.37,180.67z M867.38,177.62c0,0,0.51,0.7,2.4,2.23
						c1.03,0.83,1.53,0.82,1.63,0.76c0.17-0.23,0.47-0.34,0.76-0.27c0.02,0,0.18,0.02,0.27-0.05c0.1-0.08,0.16-0.3,0.17-0.59
						c0.05-1.45-0.91-3.64-0.92-3.66c-0.13-0.29-0.06-0.62,0.17-0.84c0.19-0.18,0.45-0.24,0.7-0.17c-0.07-0.14-0.16-0.31-0.28-0.51
						c-1.19-1.95-3.31-3.93-3.33-3.95c-0.24-0.22-0.3-0.57-0.16-0.86c0.14-0.29,0.46-0.45,0.78-0.4c0.02,0,2.45,0.41,4.01,0.33
						c0.22-0.01,0.35-0.04,0.42-0.06c-0.11-0.22-0.11-0.49,0.02-0.7c0.13-0.22,0.35-0.37,0.59-0.38c0.02,0,2.23-0.13,4.02-1.32
						c0.37-0.25,0.55-0.42,0.63-0.53c0,0,0,0,0,0c-0.26-0.1-0.45-0.35-0.48-0.63c-0.02-0.28,0.11-0.55,0.35-0.7
						c2.18-1.29,3.11-2.9,3.46-3.69c-2.05-1.13-4.99-1.26-5.02-1.26c-0.28-0.01-0.54-0.19-0.65-0.45c-0.11-0.26-0.06-0.56,0.13-0.78
						c0.08-0.09,0.13-0.16,0.17-0.22c-0.11-0.04-0.31-0.09-0.65-0.11c-1.19-0.08-3.73,0.74-4.6,1.06c-0.26,0.1-0.56,0.04-0.76-0.15
						c-0.14-0.13-0.22-0.31-0.23-0.49c-0.62,0.26-2.29,1.46-3.6,2.55c-0.24,0.2-0.59,0.23-0.85,0.06s-0.4-0.48-0.33-0.79
						c0.85-3.76,1.04-5.41,1.01-6.09c-0.18,0.19-0.45,0.28-0.71,0.22c-0.31-0.07-0.54-0.33-0.57-0.65c-0.16-1.78-0.7-3.29-1.12-3.73
						c-0.02-0.02-0.03-0.03-0.04-0.04c-0.03,0.02-0.06,0.06-0.06,0.06c-0.16,0.22-0.43,0.33-0.7,0.29
						c-0.24-0.03-0.44-0.18-0.55-0.39c-0.03,0.03-0.08,0.06-0.13,0.11c-0.49,0.46-1.38,2.93-1.93,4.96
						c-0.08,0.29-0.33,0.51-0.63,0.54c-0.14,0.02-0.28-0.01-0.4-0.07c-0.03,0.12-0.07,0.26-0.11,0.44c-0.2,0.96,0.17,3.37,0.33,4.21
						c0.06,0.34-0.11,0.67-0.43,0.81c-0.32,0.14-0.68,0.04-0.89-0.24c-0.27-0.36-0.6-0.74-0.85-0.99c-0.06,0.1-0.13,0.18-0.23,0.24
						c-0.24,0.16-0.54,0.17-0.78,0.02c-0.7-0.42-1.91-1-2.43-1.01c-0.02,0.09-0.02,0.25-0.01,0.33c0.04,0.21-0.02,0.42-0.15,0.59
						c-0.08,0.1-0.18,0.17-0.29,0.22c0.29,0.46,0.81,1.17,1.28,1.76c0.23,0.28,0.21,0.68-0.03,0.95c0.28,0.64,2.5,2.15,4.92,3.34
						c0.19,0.09,0.33,0.26,0.39,0.47c0.06,0.2,0.02,0.42-0.09,0.6c-0.02,0.03-2.1,3.22-2.55,4.8c-0.06,0.23-0.09,0.38-0.1,0.49
						c0.18,0.01,0.35,0.09,0.48,0.22c0.19,0.19,0.25,0.47,0.17,0.73c0,0.01-0.37,1.18-0.42,2.07c0.24-0.05,0.49,0.02,0.66,0.18
						c0.17,0.16,0.25,0.38,0.23,0.6c0.39-0.29,1.14-1.15,1.74-2.04c0.15-0.22,0.4-0.34,0.67-0.32c0.07,0.01,0.14,0.02,0.21,0.05
						c0.14-0.29,0.31-0.71,0.42-1.09c0.11-0.36,0.46-0.58,0.83-0.52c0.37,0.06,0.63,0.39,0.61,0.76c0,0,0,0,0,0
						c0,0,0.09,0.84,1.47,2.74c0.37,0.51,0.63,0.77,0.79,0.9c0.11-0.14,0.26-0.23,0.44-0.26
						C866.92,177.25,867.22,177.38,867.38,177.62L867.38,177.62z M871.42,180.61L871.42,180.61L871.42,180.61z M866.06,177.86
						C866.05,177.87,866.05,177.87,866.06,177.86C866.05,177.87,866.05,177.87,866.06,177.86z M859.42,177.29
						C859.42,177.29,859.42,177.29,859.42,177.29C859.42,177.29,859.42,177.29,859.42,177.29z M858.34,173.47L858.34,173.47
						L858.34,173.47z"/>
				</g>
			</g>
		</g>
	</g>
</g>
<g>
	<path class="st9" d="M1087.15,224.46h-198.1c-7.76,0-14.05-6.29-14.05-14.05v-52.35c0-7.76,6.29-14.05,14.05-14.05h198.1
		c7.76,0,14.05,6.29,14.05,14.05v52.35C1101.2,218.16,1094.91,224.46,1087.15,224.46z"/>
	<g>
		<text transform="matrix(1 0 0 1 944.3691 192.9781)" class="st1" style="font-family:'Allisya'; font-size:32.8171px;">water</text>
	</g>
	<g>
		<g>
			<g>
				<path class="st1" d="M914.04,163.31c-5.04,4.58-9.67,9.56-13.6,15.14c-2.9,4.12-7.36,9.62-7.51,14.9
					c-0.27,9.67,13.16,13.04,20.61,12.96c9.15-0.09,19.83-5,19.37-15.48c-0.24-5.62-2.48-10.94-5.99-15.29
					c-3.54-4.38-6.72-10.12-11.62-13.08c-1.33-0.8-2.53,1.28-1.21,2.07c3.78,2.28,5.5,6.08,8.21,9.37c3.31,4.01,6.35,7.54,7.6,12.75
					c1.38,5.74,0.44,10.78-4.73,14.11c-3.84,2.47-8.52,3.31-13.02,3.12c-4.1-0.17-8.54-1.15-12.05-3.37
					c-5.91-3.74-5.05-8.73-1.86-14.16c4.74-8.05,10.58-15.07,17.49-21.35C916.88,163.97,915.18,162.27,914.04,163.31L914.04,163.31z
					"/>
			</g>
		</g>
		<g>
			<g>
				<path class="st1" d="M897.81,192.63c-0.77,2.36,0.2,4.7,2.01,6.28c1.16,1.01,2.86-0.68,1.7-1.7c-1.2-1.05-1.92-2.35-1.4-3.94
					C900.61,191.8,898.29,191.17,897.81,192.63L897.81,192.63z"/>
			</g>
		</g>
	</g>
	<g>
		<defs>
			<path id="SVGID_00000066475707158881109940000016505441287182965651_" d="M1087.35,224.46h-198.1c-7.76,0-14.05-6.29-14.05-14.05
				v-52.35c0-7.76,6.29-14.05,14.05-14.05h198.1c7.76,0,14.05,6.29,14.05,14.05v52.35C1101.41,218.16,1095.12,224.46,1087.35,224.46
				z"/>
		</defs>
		<clipPath id="SVGID_00000052785489038460648000000005616095950267772547_">
			<use xlink:href="#SVGID_00000066475707158881109940000016505441287182965651_"  style="overflow:visible;"/>
		</clipPath>
		<g style="opacity:0.1;clip-path:url(#SVGID_00000052785489038460648000000005616095950267772547_);">
			<g>
				<path class="st11" d="M1058.82,208.42l2.8,23.14c0,0,25.85,1.45,46.29-1.51l0.87-22.77L1058.82,208.42z"/>
				<path class="st11" d="M1056.09,207.97l-0.86-5.92c0,0,26.69-8.12,57.29-2.59l-1.25,7.42
					C1111.28,206.88,1079.86,212.29,1056.09,207.97z"/>
				<path class="st11" d="M1055.23,202.05c0,0,28.65,3.52,57.29-2.59C1112.53,199.46,1088.44,193.33,1055.23,202.05z"/>
				<path class="st11" d="M1060.56,201.48c0,0,24.28,1.54,47.36-2.42C1107.92,199.06,1084.63,195.78,1060.56,201.48z"/>
				<g>
					<g>
						<polygon points="1083.93,209.53 1083.83,209.53 1084.33,202.87 1084.19,201.48 1084.29,201.47 1084.43,202.86 						"/>
					</g>
					<g>
						<polygon points="1093.13,209.01 1092.68,202.37 1090.61,201.16 1090.66,201.07 1092.79,202.31 1092.79,202.34 1093.24,209 
													"/>
					</g>
					<g>
						<polygon points="1097.8,208.61 1097.69,208.6 1098.03,201.8 1095.95,200.63 1096.01,200.54 1098.14,201.74 1098.13,201.78 
													"/>
					</g>
					<g>
						<polygon points="1107.54,207.45 1106.59,200.63 1102.06,200 1102.08,199.89 1106.68,200.54 1107.64,207.44 						"/>
					</g>
					<g>
						<polygon points="1110.1,207.09 1109.99,207.08 1110.65,199.89 1104.83,199.61 1104.83,199.5 1110.76,199.79 1110.76,199.84 
													"/>
					</g>
					<g>
						<polygon points="1073.89,209.62 1073.04,202.99 1073.08,202.97 1075.74,201.73 1075.79,201.82 1073.16,203.05 1074,209.6 
													"/>
					</g>
					<g>
						<polygon points="1068.51,209.54 1067.21,202.87 1069.83,201.72 1069.87,201.82 1067.33,202.93 1068.61,209.52 						"/>
					</g>
					<g>
						<polygon points="1060.19,208.61 1060.08,208.61 1060.14,202.46 1060.19,202.45 1065.93,201.64 1065.95,201.74 1060.25,202.55 
													"/>
					</g>
					<g>
						<polygon points="1057.23,208.11 1057.13,208.09 1058.07,202.32 1058.1,202.32 1062.42,201.52 1062.44,201.62 1058.16,202.41 
													"/>
					</g>
					<g>
						
							<rect x="1084.08" y="197.54" transform="matrix(0.9953 -0.0969 0.0969 0.9953 -14.0767 105.9921)" width="0.11" height="0.75"/>
					</g>
					<g>
						
							<rect x="1088.8" y="197.69" transform="matrix(0.6906 -0.7233 0.7233 0.6906 194.0641 849.0775)" width="1.04" height="0.11"/>
					</g>
					<g>
						<polygon points="1096.8,198.32 1096.71,198.26 1097.2,197.5 1097.29,197.56 						"/>
					</g>
					<g>
						
							<rect x="1079.54" y="197.77" transform="matrix(0.7905 -0.6125 0.6125 0.7905 104.8131 702.7991)" width="0.11" height="0.87"/>
					</g>
					<g>
						<polygon points="1075.14,198.99 1075.09,198.29 1075.19,198.28 1075.25,198.98 						"/>
					</g>
					<g>
						<polygon points="1072.73,199.32 1071.61,198.79 1071.66,198.69 1072.78,199.23 						"/>
					</g>
					<g>
						<polygon points="1102.08,198.6 1102.06,198.5 1104.82,197.96 1104.84,198.06 						"/>
					</g>
				</g>
				<g class="st12">
					<path class="st11" d="M1059.61,214.9c0,0,0.85-1.83,1.78-1.87c0.93-0.03,3.24,4.72,3.8,8.67s-4.09,5.53-4.09,5.53
						L1059.61,214.9z"/>
					<path class="st13" d="M1063.99,227.23c-0.86-1.24,1.43-2.93,1.95-3.01c0.52-0.08,2.62,2,2.76,3.01
						C1068.83,228.24,1064.28,227.65,1063.99,227.23z"/>
					<path class="st11" d="M1065.94,222.15c-0.26-0.51-2.28-8.6-1.71-9.86c0.57-1.27,9.64-2.6,12.11-1.43
						c2.47,1.17,2.23,11.27,0.3,12.84C1074.7,225.27,1066.99,224.2,1065.94,222.15z"/>
					<path class="st11" d="M1067.27,231.56c0,0,1.63-5.73,8.5-5.56c6.87,0.17,10.47,5.77,10.47,5.77S1076.6,231.86,1067.27,231.56z"
						/>
					<path class="st11" d="M1075.92,224.9c0.29-0.75,2.18-1.87,2.85-1.77c0.67,0.1,2.03,2.33,1.47,2.87
						C1079.67,226.54,1075.75,225.34,1075.92,224.9z"/>
					<path class="st11" d="M1076.75,209.65c0,0,1.22,3.25,7.49,5.25s12.52-6.2,12.52-6.2S1081.33,209.73,1076.75,209.65z"/>
					<path class="st11" d="M1059.61,208.61c0,0,0.51,2.18,1.97,2.93c1.47,0.76,7.61-2.1,7.61-2.1S1060.19,208.79,1059.61,208.61z"/>
					<path class="st13" d="M1108.61,211.96c0,0-2.73-0.45-4.16,0c-1.43,0.45-5.24,4.94-4.89,9.48c0.35,4.54,8.43,6.67,8.43,6.67
						L1108.61,211.96z"/>
					<path class="st11" d="M1108.73,208.86c0,0-2.51-0.17-3.14,0.49c-0.63,0.66,3.04,2.08,3.04,2.08L1108.73,208.86z"/>
					<path class="st11" d="M1100.6,208.31c0,0,2.2,0.73,4.05,0.69c1.85-0.04,3.96-1.7,3.96-1.7S1102.14,208.15,1100.6,208.31z"/>
					<path class="st13" d="M1102.36,210.96c0.11-1.78-12.54,3.3-13.92,5.33s5.56,7.77,6.96,7.41c1.4-0.36,3.22-2.83,3.4-3.57
						S1102.32,211.65,1102.36,210.96z"/>
					<path class="st11" d="M1088.26,231.7c0,0,1.51-7.45,3.2-8.21c1.69-0.76,7.83,2.8,9.74,4.11c1.91,1.31,1.96,3.05,1.96,3.05
						S1091.82,231.63,1088.26,231.7z"/>
					<path class="st11" d="M1096.76,224.22c-0.14-0.53,1.47-1.73,2.03-1.68s1.3,2.05,1.02,2.65
						C1099.53,225.79,1096.96,224.98,1096.76,224.22z"/>
					<path class="st11" d="M1091.47,222.1c0.25,0.43-0.71,1.7-1.09,1.86c-0.38,0.16-3.02-0.37-3.38-1.13
						c-0.36-0.76,0.24-3.17,0.62-3.24C1088,219.52,1091.18,221.61,1091.47,222.1z"/>
					<path class="st13" d="M1087.17,216.23c-0.12-0.38-6.09-2.22-7.49-1.69c-1.4,0.53-1.33,6.76-1.02,7.72
						c0.31,0.96,3.87,2.51,5.15,2.38C1085.08,224.5,1088.24,219.65,1087.17,216.23z"/>
					<path class="st11" d="M1083.42,228.42c1.98,1.47,4.33,2,4.85,1.53c0.52-0.47,1.49-4.83,1.4-5.32
						c-0.09-0.49-2.89-0.83-3.62-0.67C1085.31,224.12,1081.44,226.95,1083.42,228.42z"/>
					<path class="st11" d="M1080.94,224.22c-0.34-0.01,0.24,1.89,0.99,2.12c0.75,0.23,1.18-0.9,1.17-1.06
						C1083.07,225.12,1081.35,224.23,1080.94,224.22z"/>
					<path class="st11" d="M1072.19,225.4c-0.04-0.22-4.03-1.32-4.53-1.18c-0.5,0.14,1.32,2.94,1.73,3.01
						c0.42,0.08,2.05-0.46,2.37-0.86C1072.08,225.97,1072.29,225.91,1072.19,225.4z"/>
					<path class="st11" d="M1066.25,231.75c0,0,0.84-3.03-2.12-3.51c-2.96-0.48-2.5,3.32-2.5,3.32L1066.25,231.75z"/>
				</g>
				<path class="st14" d="M1084.38,202.87c0,0,6.01-0.32,8.36-0.53l0.45,6.67l-9.29,0.29L1084.38,202.87z"/>
				<polygon class="st14" points="1106.63,200.59 1110.71,199.84 1110.07,206.78 1107.59,207.27 				"/>
				<polygon class="st14" points="1064.7,217.15 1077.88,220.52 1078.13,216.64 1064.53,215.99 				"/>
				<polygon class="st14" points="1093.05,213.44 1100.49,215.87 1100.6,215.59 1093.51,213.23 				"/>
				<path class="st14" d="M1080.37,227l-7.98,4.7l5.74,0.04l4.61-3.42C1082.74,228.32,1081.02,227.33,1080.37,227z"/>
				<polygon class="st14" points="1073.1,203.32 1067.27,202.9 1068.79,209.4 1073.92,209.4 				"/>
				<path class="st15" d="M1108.61,209.65c0,0-27.17,1.11-36.98,4.18c-9.81,3.07-10.68,12.17-10.68,12.17l-2.13-17.58
					c0,0,27.86,2.63,49.79-1.12V209.65z"/>
				<polygon class="st14" points="1101.62,201.48 1099.88,208.39 1102.36,208.1 1104.08,201.12 				"/>
			</g>
			<path class="st16" d="M1102.18,198.12l-3.71,0.16l-5.28,2.63c0,0-7.43,1.01-26.87,0.78l0.03,0.65l-1.11,0.08l-2.2,0.27
				l-2.19,6.01l-4.76-0.73l-0.86-5.92C1055.23,202.05,1082.3,194.71,1102.18,198.12z"/>
			<polygon class="st11" points="1099.56,198.01 1099.88,168 1103.16,169.65 1101.62,198.12 			"/>
			<polygon class="st11" points="1103.08,171.27 1104.41,170.81 1102.18,198.12 1101.62,198.12 			"/>
			<g>
				<polygon class="st11" points="1047.22,173.61 1102.8,169.29 1107.59,152.23 1060.21,153.65 				"/>
				<polygon class="st11" points="1060.24,151.24 1075.98,173.59 1101.6,171.79 1101.22,170.81 1121.87,169.29 1107.3,151.39 				
					"/>
				<polygon class="st11" points="1075.98,173.59 1074.2,175.8 1060.21,153.65 1047.22,173.61 1046.32,173.16 1060.24,151.24 				
					"/>
				<polygon class="st11" points="1074.2,175.8 1101.22,172.72 1101.6,171.79 1075.98,173.59 				"/>
				<polygon class="st11" points="1121.87,169.29 1120.61,170.81 1101.44,171.37 1101.22,170.81 				"/>
				<polygon class="st11" points="1049.08,172.5 1050.22,174.37 1061.15,157.47 1072.19,174.37 1072.82,173.52 1060.92,154.78 				
					"/>
				<polygon class="st11" points="1050.22,174.37 1051.4,173.79 1061.86,158.55 1061.15,157.47 				"/>
				<polygon class="st11" points="1072.19,174.37 1073.29,174.37 1072.82,173.52 				"/>
				<g>
					<g>
						<rect x="1076.74" y="149.35" transform="matrix(0.8536 -0.521 0.521 0.8536 73.1512 584.7713)" width="0.18" height="25.82"/>
					</g>
					<g>
						<polygon points="1090.11,172.65 1072.43,151.29 1072.57,151.18 1090.25,172.54 						"/>
					</g>
					<g>
						
							<rect x="1080.02" y="160.91" transform="matrix(0.0163 -0.9999 0.9999 0.0163 899.0041 1240.7644)" width="0.18" height="5.12"/>
					</g>
					<g>
						<polygon points="1101.15,170.85 1089.1,151.38 1089.25,151.29 1101.3,170.76 						"/>
					</g>
					<g>
						
							<rect x="1103.67" y="148.54" transform="matrix(0.7685 -0.6398 0.6398 0.7685 152.6506 743.3704)" width="0.18" height="24.33"/>
					</g>
					<g>
						<polygon points="1115.79,169.79 1099.49,151.42 1099.62,151.31 1115.92,169.68 						"/>
					</g>
					<g>
						<rect x="1104.45" y="156.66" transform="matrix(0.9992 -0.039 0.039 0.9992 -5.2668 43.2982)" width="7.09" height="0.18"/>
					</g>
					<g>
						
							<rect x="1090.36" y="150.34" transform="matrix(0.9103 -0.4139 0.4139 0.9103 30.8272 465.8746)" width="0.18" height="22.93"/>
					</g>
				</g>
				<polygon class="st14" points="1060.24,151.24 1075.98,173.59 1083.55,173.28 1070.1,151.24 				"/>
				<polygon class="st14" points="1104.45,156.89 1115.97,169.73 1121.87,169.29 1111.54,156.61 				"/>
				<polygon class="st14" points="1090.18,172.59 1082.67,163.52 1077.54,163.43 1083.42,173.07 				"/>
				<polygon class="st14" points="1111.54,170.05 1095.98,151.35 1089.17,151.33 1101.22,170.81 				"/>
				<polygon class="st11" points="1102.36,170.63 1094.16,159.38 1101.44,171.37 				"/>
				<polygon class="st11" points="1084.84,151.37 1091.19,163.43 1085.71,151.37 				"/>
				<polygon class="st17" points="1105.43,162.7 1099.56,166.79 1100.06,167.48 1106.77,164.32 				"/>
				<polygon class="st18" points="1076.82,156.75 1087.67,156.75 1089.06,159.38 1079.24,159.38 				"/>
				<polygon class="st18" points="1081.62,162.26 1090.81,162.7 1090.96,162.92 1081.92,162.59 				"/>
			</g>
			<path class="st11" d="M1064.4,182.84c0,0,5.13,5.64,1.38,10.64l34.55-2.58c0,0,2.73-5.87-1.58-8.14L1064.4,182.84z"/>
			<path class="st11" d="M1064.4,182.84c0,0-5.03,5.63,1.38,10.64C1065.77,193.48,1071.64,187.63,1064.4,182.84z"/>
			<polygon class="st11" points="1062.63,202.42 1065.24,202.42 1063.04,160.35 1061.54,158.06 1058.38,162.59 			"/>
			<polygon class="st11" points="1063.04,160.35 1064.28,162.26 1066.35,202.34 1065.24,202.42 			"/>
			<polygon class="st11" points="1066.8,191.56 1070.1,191.56 1066.46,192.32 			"/>
			<path class="st14" d="M1067.66,186.51l17.18,0.33c0,0,0.67,0.73,0.53,2.4l-17.01,0.36
				C1068.36,189.61,1068.37,187.08,1067.66,186.51z"/>
			<path class="st14" d="M1100.36,184.16l-29.76,1.3v1.06h30.56C1101.15,186.51,1101.18,184.83,1100.36,184.16z"/>
			<polygon class="st11" points="1101.08,188.27 1099.25,187.71 1101.18,187.59 			"/>
			<path class="st11" d="M1062.26,187.4l-5.08,0.66l-1.14,10.93c0,0,0.16,0.59,1.4,0.25l0.44-10.36h4.63
				C1062.52,188.88,1062.93,187.89,1062.26,187.4z"/>
			<path class="st11" d="M1056.04,197.53l-6.34,0.21c0,0-1.25,1.27,0,3.38l7.88-0.91C1057.59,200.21,1058.97,197.75,1056.04,197.53z
				"/>
			<path class="st11" d="M1049.7,197.74c0,0,1.77,1.69,0,3.38C1049.7,201.12,1048.23,199.76,1049.7,197.74z"/>
			<path class="st11" d="M1078.14,182.76c0,0,1.28,0.67,2.3,3.2s-1.44,6.53-1.44,6.53l0.64-0.05c0,0,1.33-2.16,1.7-4.28
				c0,0,0.44,2.34,0.04,4.15l10.93-0.82c0,0,2.13-5.45,0-8.66c0,0,3.37,2.75,2.89,8.44l0.78-0.06c0,0,0.97-5.89-2.11-8.46H1078.14z"
				/>
			<path class="st11" d="M1084.17,182.76c0,0,2.36,5.24-0.62,9.39C1083.55,192.15,1085.76,188.65,1084.17,182.76z"/>
			<path class="st11" d="M1089.68,182.78c0,0,3.07,1.77,1.76,8.78C1091.44,191.56,1092.47,185.7,1089.68,182.78z"/>
			<path class="st11" d="M1079,192.49c0,0,1.8-3.41,1.35-5.74c-0.45-2.33-2.21-4-2.21-4s2.49,0.99,2.68,3.85
				C1081.01,189.47,1079,192.49,1079,192.49z"/>
			<g>
				<path class="st11" d="M1084.27,234.48l-1.19-16.01c0,0,7.97-1.93,16.78-0.43l-1.31,16.17
					C1098.54,234.21,1092.07,236.02,1084.27,234.48z"/>
				<path class="st11" d="M1083.08,218.47c0,0,7.08,0.87,16.78-0.43C1099.85,218.04,1093.07,215.83,1083.08,218.47z"/>
				<path class="st11" d="M1085.2,218.25c0,0,7.96-1.54,12.89-0.29C1098.08,217.96,1090.87,218.94,1085.2,218.25z"/>
				<g>
					<polygon points="1087.35,234.89 1085.84,218.64 1087.13,218.35 1087.15,218.43 1085.94,218.71 1087.43,234.88 					"/>
				</g>
				<g>
					<polygon points="1090.52,235.1 1090.43,235.1 1090.63,218.77 1090.44,218.53 1090.51,218.47 1090.72,218.73 1090.72,218.75 
											"/>
				</g>
				<g>
					<polygon points="1094.94,234.85 1094.7,218.59 1094.16,218.43 1094.19,218.35 1094.79,218.52 1094.79,218.56 1095.02,234.85 
											"/>
				</g>
				<g>
					<polygon points="1095.76,234.76 1095.67,234.75 1096.92,218.4 1096.5,218.18 1096.54,218.1 1097.02,218.35 1097.01,218.37 
											"/>
				</g>
				<g>
					<polygon points="1097.98,234.36 1097.9,234.35 1099.49,218.12 1098.08,218 1098.08,217.92 1099.59,218.04 1099.59,218.08 					
						"/>
				</g>
				<path class="st14" d="M1090.68,218.75l-0.2,16.01c0,0,2.83,0.33,4.5-0.17l-0.23-16.03
					C1094.74,218.56,1091.62,219,1090.68,218.75z"/>
				<polygon class="st14" points="1096.97,218.37 1099.54,218.08 1097.94,233.89 1095.76,234.12 				"/>
				<polygon class="st11" points="1086.26,218.69 1086.66,227 1085.89,218.67 				"/>
				<polygon class="st11" points="1096.18,218.17 1096.76,218.39 1096.4,225.84 1097.12,218.36 1096.83,218.11 				"/>
				<path class="st11" d="M1083.58,225.29c0,0,8.14,1.66,15.67,0.1l-0.34,4.24c0,0-6.88,1.38-15.03-0.74L1083.58,225.29z"/>
				<path class="st11" d="M1083.58,225.29c0,0,10.03,2.33,15.67,0.1C1099.26,225.4,1093.54,227.02,1083.58,225.29z"/>
				<polygon class="st11" points="1092.73,230.05 1093.85,226.34 1096.55,226.1 1096.55,229.94 				"/>
				<polygon class="st15" points="1085.39,229.25 1084.84,225.55 1084.06,225.4 1084.5,229.05 				"/>
				<polygon class="st11" points="1086.31,219.72 1088.26,219.85 1088.26,222.39 1086.44,222.39 				"/>
				<path class="st11" d="M1087.01,221.06c0,0,0.58-14.63,4.9-14.91c4.32-0.27,5.33,11.34,5.33,11.34l-0.49-0.32
					c0,0-0.34-9.99-4.63-10.09c-4.29-0.09-4.42,13.21-4.42,13.21S1087.66,221.35,1087.01,221.06z"/>
			</g>
			<path class="st11" d="M1086.89,182.79c0,0,1.3-0.6,2.43-0.56c1.13,0.04,4.11,5.38,3.73,10.26c-0.38,4.89-7.78,7.07-7.66,8.22
				c0.12,1.15,8.08,0.14,9.19,0.77c1.11,0.63,1.55,13.08-0.4,13.98c-1.77,0.82-2.05-8.37-2.05-8.37s0.23-0.67-0.22-0.93
				c0,0,0.35-0.46,0.8-0.34c0.44,0.12,0.2,1.46,0.2,1.46s0.07,7.06,1.16,7.03s0.51-10.58-0.55-11.88c-0.82-1.01-4.59,0-8.39-0.95
				c-3.8-0.95,7.17-4.86,7.6-8.98c0.46-4.43-3.53-9.65-3.53-9.65L1086.89,182.79z"/>
			<polygon class="st19" points="1065.04,176.92 1063.91,176.92 1060.56,183.06 1058.38,162.59 1061.54,158.06 1064.28,162.26 			
				"/>
			<polygon class="st19" points="1104.07,174.97 1102.86,175.32 1099.74,181.01 1099.83,172.88 1101.22,172.72 1101.6,171.79 
				1101.44,171.37 1104.45,171.19 			"/>
			<polygon class="st11" points="1075.28,172.59 1078.88,173.47 1075.28,174.46 			"/>
			<polygon class="st11" points="1101.94,170.05 1104.45,170.57 1101.82,171.07 			"/>
			<polygon class="st11" points="1096.34,162.92 1096.74,162.92 1092.93,157.4 			"/>
		</g>
	</g>
</g>
<g>
	<path class="st20" d="M1322.3,224.45h-198.1c-7.76,0-14.05-6.29-14.05-14.05v-52.35c0-7.76,6.29-14.05,14.05-14.05h198.1
		c7.76,0,14.05,6.29,14.05,14.05v52.35C1336.36,218.16,1330.07,224.45,1322.3,224.45z"/>
	<g>
		<text transform="matrix(1 0 0 1 1193.4141 192.8927)" class="st1" style="font-family:'Allisya'; font-size:32.8171px;">energy</text>
	</g>
	<g>
		<g>
			<path class="st1" d="M1143.33,170.09c-12.18,3.04-16.2,16.98-8.52,26.59c7.2,9,24.4,12.15,33.62,4.44
				c9.82-8.21,4.07-23.17-4.43-29.83c-8.81-6.9-23.8-8.23-28.7,3.85c-0.58,1.43,1.74,2.05,2.31,0.64c4.7-11.6,19.8-7.77,26.87-0.89
				c6.75,6.57,10.56,20.14,0.36,25.76c-8.14,4.49-20.89,2.32-27.19-4.32c-7.65-8.06-4.99-21.12,6.3-23.93
				C1145.47,172.03,1144.83,169.72,1143.33,170.09L1143.33,170.09z"/>
		</g>
	</g>
	<g>
		<g>
			<g>
				<path class="st1" d="M1167.07,162.23c-1.64,1.58-3.13,3.28-4.51,5.09c-0.49,0.65-0.1,1.68,0.54,2.05
					c0.77,0.45,1.56,0.11,2.05-0.54c1.22-1.6,2.58-3.09,4.04-4.49C1170.59,163.01,1168.46,160.9,1167.07,162.23L1167.07,162.23z"/>
			</g>
		</g>
		<g>
			<g>
				<path class="st1" d="M1172.67,180.12c3.74-0.58,7.48-1.17,11.22-1.75c1.9-0.3,1.09-3.19-0.8-2.89
					c-3.74,0.58-7.48,1.17-11.22,1.75C1169.97,177.53,1170.77,180.42,1172.67,180.12L1172.67,180.12z"/>
			</g>
		</g>
		<g>
			<g>
				<path class="st1" d="M1171.92,199.5c1.93,2.24,4.14,4.2,6.61,5.83c1.61,1.07,3.12-1.53,1.51-2.59c-2.26-1.5-4.23-3.31-6-5.36
					C1172.78,195.91,1170.67,198.04,1171.92,199.5L1171.92,199.5z"/>
			</g>
		</g>
		<g>
			<g>
				<path class="st1" d="M1155.49,206.27c0.11,1.66,0.21,3.31,0.32,4.97c0.12,1.92,3.12,1.93,3,0c-0.11-1.66-0.21-3.31-0.32-4.97
					C1158.37,204.35,1155.37,204.34,1155.49,206.27L1155.49,206.27z"/>
			</g>
		</g>
		<g>
			<g>
				<path class="st1" d="M1140.43,203.69c-1.56,1.04-2.99,2.25-4.22,3.66c-1.27,1.45,0.84,3.58,2.12,2.12
					c1.07-1.22,2.26-2.29,3.61-3.19C1143.55,205.22,1142.05,202.62,1140.43,203.69L1140.43,203.69z"/>
			</g>
		</g>
		<g>
			<g>
				<path class="st1" d="M1127.73,188.41c-1.4,1-2.96,1.67-4.68,1.85c-1.9,0.2-1.92,3.2,0,3c2.25-0.24,4.34-0.95,6.19-2.26
					C1130.81,189.89,1129.31,187.29,1127.73,188.41L1127.73,188.41z"/>
			</g>
		</g>
		<g>
			<g>
				<path class="st1" d="M1146.56,163.78c-0.37-2.08-0.74-4.17-1.11-6.25c-0.34-1.9-3.23-1.09-2.89,0.8
					c0.37,2.08,0.74,4.17,1.11,6.25C1144.01,166.48,1146.9,165.67,1146.56,163.78L1146.56,163.78z"/>
			</g>
		</g>
		<g>
			<g>
				<path class="st1" d="M1132.16,171.65c-1.93-0.6-3.87-1.2-5.8-1.79c-1.85-0.57-2.64,2.32-0.8,2.89c1.93,0.6,3.87,1.2,5.8,1.79
					C1133.21,175.12,1134,172.22,1132.16,171.65L1132.16,171.65z"/>
			</g>
		</g>
	</g>
	<g>
		<defs>
			<path id="SVGID_00000128480121878900370180000013007934313400382909_" d="M1322.3,224.46h-198.1c-7.76,0-14.05-6.29-14.05-14.05
				v-52.35c0-7.76,6.29-14.05,14.05-14.05h198.1c7.76,0,14.05,6.29,14.05,14.05v52.35C1336.35,218.16,1330.06,224.46,1322.3,224.46z
				"/>
		</defs>
		<clipPath id="SVGID_00000143601456145766819060000000736150467375884991_">
			<use xlink:href="#SVGID_00000128480121878900370180000013007934313400382909_"  style="overflow:visible;"/>
		</clipPath>
		<g style="opacity:0.1;clip-path:url(#SVGID_00000143601456145766819060000000736150467375884991_);">
			<path d="M1356.68,182.09c3.2-14.89-8.19-29.01-23.48-29.01c-15.06,0-26.66,13.81-23.48,29.01c2.87,13.79,16.7,22.21,16.7,26.77
				l0,5.08h13.56v-5.08C1339.98,204.3,1353.81,195.89,1356.68,182.09z"/>
			<path d="M1352.97,177.93c-0.47,0-0.85-0.38-0.85-0.85c0-10.43-8.49-18.92-18.92-18.92c-0.47,0-0.85-0.38-0.85-0.85
				c0-0.47,0.38-0.85,0.85-0.85c11.37,0,20.62,9.25,20.62,20.62C1353.82,177.55,1353.44,177.93,1352.97,177.93z"/>
			<path d="M1339.98,223.21c0,0.94-0.76,1.69-1.69,1.69h-10.17c-0.94,0-1.69-0.76-1.69-1.69v-7.86h13.56V223.21z"/>
			<path d="M1337.38,226.46c-0.22,0.71-0.88,1.2-1.62,1.2h-5.12c-0.74,0-1.4-0.49-1.62-1.2l-0.48-1.56h9.32L1337.38,226.46z"/>
			<g>
				<rect x="1326.42" y="222.39" width="13.56" height="0.72"/>
				<rect x="1326.42" y="220.23" width="13.56" height="0.72"/>
				<rect x="1326.42" y="218.07" width="13.56" height="0.72"/>
			</g>
			<rect x="1327.01" y="208.86" width="12.3" height="4.02"/>
			<rect x="1325.79" y="212.88" width="14.83" height="3.39"/>
		</g>
	</g>
</g>
</svg>
